<?xml version="1.0" encoding="UTF-8"?>
<svg xmlns="http://www.w3.org/2000/svg" xmlns:xlink="http://www.w3.org/1999/xlink" stroke-dasharray="none" shape-rendering="auto" font-family="'Dialog'" width="633" text-rendering="auto" fill-opacity="1" contentScriptType="text/ecmascript" color-interpolation="auto" color-rendering="auto" preserveAspectRatio="xMidYMid meet" font-size="12" viewBox="0 0 633 610" fill="black" stroke="black" image-rendering="auto" stroke-miterlimit="10" zoomAndPan="magnify" version="1.0" stroke-linecap="square" stroke-linejoin="miter" contentStyleType="text/css" font-style="normal" height="610" stroke-width="1" stroke-dashoffset="0" font-weight="normal" stroke-opacity="1">
  <!--Generated by the Batik Graphics2D SVG Generator-->
  <defs id="genericDefs" />
  <g>
    <defs id="defs1">
      <clipPath clipPathUnits="userSpaceOnUse" id="clipPath1">
        <path d="M12 9 L84 9 L84 41 L12 41 L12 9 Z" />
      </clipPath>
      <clipPath clipPathUnits="userSpaceOnUse" id="clipPath2">
        <path d="M12 9 L88 9 L88 41 L12 41 L12 9 Z" />
      </clipPath>
      <clipPath clipPathUnits="userSpaceOnUse" id="clipPath3">
        <path d="M42 39 L54 39 L54 601 L42 601 L42 39 Z" />
      </clipPath>
      <clipPath clipPathUnits="userSpaceOnUse" id="clipPath4">
        <path d="M112 9 L264 9 L264 61 L112 61 L112 9 Z" />
      </clipPath>
      <clipPath clipPathUnits="userSpaceOnUse" id="clipPath5">
        <path d="M112 9 L268 9 L268 61 L112 61 L112 9 Z" />
      </clipPath>
      <clipPath clipPathUnits="userSpaceOnUse" id="clipPath6">
        <path d="M112 9 L267 9 L267 61 L112 61 L112 9 Z" />
      </clipPath>
      <clipPath clipPathUnits="userSpaceOnUse" id="clipPath7">
        <path d="M182 59 L194 59 L194 601 L182 601 L182 59 Z" />
      </clipPath>
      <clipPath clipPathUnits="userSpaceOnUse" id="clipPath8">
        <path d="M177 89 L199 89 L199 131 L177 131 L177 89 Z" />
      </clipPath>
      <clipPath clipPathUnits="userSpaceOnUse" id="clipPath9">
        <path d="M198 89 L242 89 L242 108 L198 108 L198 89 Z" />
      </clipPath>
      <clipPath clipPathUnits="userSpaceOnUse" id="clipPath10">
        <path d="M292 9 L444 9 L444 61 L292 61 L292 9 Z" />
      </clipPath>
      <clipPath clipPathUnits="userSpaceOnUse" id="clipPath11">
        <path d="M292 9 L447 9 L447 61 L292 61 L292 9 Z" />
      </clipPath>
      <clipPath clipPathUnits="userSpaceOnUse" id="clipPath12">
        <path d="M362 59 L374 59 L374 601 L362 601 L362 59 Z" />
      </clipPath>
      <clipPath clipPathUnits="userSpaceOnUse" id="clipPath13">
        <path d="M357 329 L379 329 L379 371 L357 371 L357 329 Z" />
      </clipPath>
      <clipPath clipPathUnits="userSpaceOnUse" id="clipPath14">
        <path d="M378 329 L422 329 L422 348 L378 348 L378 329 Z" />
      </clipPath>
      <clipPath clipPathUnits="userSpaceOnUse" id="clipPath15">
        <path d="M357 269 L379 269 L379 311 L357 311 L357 269 Z" />
      </clipPath>
      <clipPath clipPathUnits="userSpaceOnUse" id="clipPath16">
        <path d="M378 269 L413 269 L413 288 L378 288 L378 269 Z" />
      </clipPath>
      <clipPath clipPathUnits="userSpaceOnUse" id="clipPath17">
        <path d="M357 389 L379 389 L379 431 L357 431 L357 389 Z" />
      </clipPath>
      <clipPath clipPathUnits="userSpaceOnUse" id="clipPath18">
        <path d="M378 389 L413 389 L413 408 L378 408 L378 389 Z" />
      </clipPath>
      <clipPath clipPathUnits="userSpaceOnUse" id="clipPath19">
        <path d="M357 449 L379 449 L379 491 L357 491 L357 449 Z" />
      </clipPath>
      <clipPath clipPathUnits="userSpaceOnUse" id="clipPath20">
        <path d="M378 449 L413 449 L413 468 L378 468 L378 449 Z" />
      </clipPath>
      <clipPath clipPathUnits="userSpaceOnUse" id="clipPath21">
        <path d="M357 509 L379 509 L379 551 L357 551 L357 509 Z" />
      </clipPath>
      <clipPath clipPathUnits="userSpaceOnUse" id="clipPath22">
        <path d="M378 509 L413 509 L413 528 L378 528 L378 509 Z" />
      </clipPath>
      <clipPath clipPathUnits="userSpaceOnUse" id="clipPath23">
        <path d="M472 9 L624 9 L624 61 L472 61 L472 9 Z" />
      </clipPath>
      <clipPath clipPathUnits="userSpaceOnUse" id="clipPath24">
        <path d="M472 9 L627 9 L627 61 L472 61 L472 9 Z" />
      </clipPath>
      <clipPath clipPathUnits="userSpaceOnUse" id="clipPath25">
        <path d="M542 59 L554 59 L554 601 L542 601 L542 59 Z" />
      </clipPath>
      <clipPath clipPathUnits="userSpaceOnUse" id="clipPath26">
        <path d="M537 209 L559 209 L559 251 L537 251 L537 209 Z" />
      </clipPath>
      <clipPath clipPathUnits="userSpaceOnUse" id="clipPath27">
        <path d="M558 209 L602 209 L602 228 L558 228 L558 209 Z" />
      </clipPath>
      <clipPath clipPathUnits="userSpaceOnUse" id="clipPath28">
        <path d="M537 149 L559 149 L559 191 L537 191 L537 149 Z" />
      </clipPath>
      <clipPath clipPathUnits="userSpaceOnUse" id="clipPath29">
        <path d="M558 149 L593 149 L593 168 L558 168 L558 149 Z" />
      </clipPath>
      <clipPath clipPathUnits="userSpaceOnUse" id="clipPath30">
        <path d="M-1 -1 L634 -1 L634 611 L-1 611 L-1 -1 Z" />
      </clipPath>
      <clipPath clipPathUnits="userSpaceOnUse" id="clipPath31">
        <path d="M23 70 L207 70 L207 89 L23 89 L23 70 Z" />
      </clipPath>
      <clipPath clipPathUnits="userSpaceOnUse" id="clipPath32">
        <path d="M46 84 L58 84 L58 95 L46 95 L46 84 Z" />
      </clipPath>
      <clipPath clipPathUnits="userSpaceOnUse" id="clipPath33">
        <path d="M170 190 L420 190 L420 209 L170 209 L170 190 Z" />
      </clipPath>
      <clipPath clipPathUnits="userSpaceOnUse" id="clipPath34">
        <path d="M46 204 L58 204 L58 215 L46 215 L46 204 Z" />
      </clipPath>
      <clipPath clipPathUnits="userSpaceOnUse" id="clipPath35">
        <path d="M39 310 L370 310 L370 329 L39 329 L39 310 Z" />
      </clipPath>
      <clipPath clipPathUnits="userSpaceOnUse" id="clipPath36">
        <path d="M46 324 L58 324 L58 335 L46 335 L46 324 Z" />
      </clipPath>
      <clipPath clipPathUnits="userSpaceOnUse" id="clipPath37">
        <path d="M235 130 L355 130 L355 149 L235 149 L235 130 Z" />
      </clipPath>
      <clipPath clipPathUnits="userSpaceOnUse" id="clipPath38">
        <path d="M529 144 L541 144 L541 155 L529 155 L529 144 Z" />
      </clipPath>
      <clipPath clipPathUnits="userSpaceOnUse" id="clipPath39">
        <path d="M52 250 L358 250 L358 269 L52 269 L52 250 Z" />
      </clipPath>
      <clipPath clipPathUnits="userSpaceOnUse" id="clipPath40">
        <path d="M349 264 L361 264 L361 275 L349 275 L349 264 Z" />
      </clipPath>
      <clipPath clipPathUnits="userSpaceOnUse" id="clipPath41">
        <path d="M28 370 L381 370 L381 389 L28 389 L28 370 Z" />
      </clipPath>
      <clipPath clipPathUnits="userSpaceOnUse" id="clipPath42">
        <path d="M349 384 L361 384 L361 395 L349 395 L349 384 Z" />
      </clipPath>
      <clipPath clipPathUnits="userSpaceOnUse" id="clipPath43">
        <path d="M28 430 L381 430 L381 449 L28 449 L28 430 Z" />
      </clipPath>
      <clipPath clipPathUnits="userSpaceOnUse" id="clipPath44">
        <path d="M349 444 L361 444 L361 455 L349 455 L349 444 Z" />
      </clipPath>
      <clipPath clipPathUnits="userSpaceOnUse" id="clipPath45">
        <path d="M28 490 L381 490 L381 509 L28 509 L28 490 Z" />
      </clipPath>
      <clipPath clipPathUnits="userSpaceOnUse" id="clipPath46">
        <path d="M349 504 L361 504 L361 515 L349 515 L349 504 Z" />
      </clipPath>
    </defs>
    <g font-size="9" fill="rgb(238,201,142)" stroke-linejoin="round" stroke="rgb(238,201,142)" stroke-width="0" stroke-miterlimit="0">
      <rect x="13" y="10" clip-path="url(#clipPath1)" width="70" height="30" stroke="none" />
    </g>
    <g font-size="9" stroke-width="0.1" stroke-linecap="butt">
      <rect x="13" y="10" clip-path="url(#clipPath1)" fill="none" width="69" height="29" />
      <text x="24" font-size="14" y="30" clip-path="url(#clipPath2)" stroke="none" xml:space="preserve">System</text>
      <line clip-path="url(#clipPath3)" fill="none" x1="47" x2="47" y1="40" y2="600" stroke-dasharray="10,10" stroke-width="1.1" />
    </g>
    <g stroke-linecap="butt" font-size="9" fill="rgb(255,245,181)" stroke-dasharray="10,10" stroke="rgb(255,245,181)" stroke-width="1.1">
      <rect x="113" y="10" clip-path="url(#clipPath4)" width="150" height="50" stroke="none" />
    </g>
    <g font-size="9" stroke-width="0.1" stroke-linecap="butt">
      <rect x="113" y="10" clip-path="url(#clipPath4)" fill="none" width="149" height="49" />
      <text x="158" font-size="14" y="32" clip-path="url(#clipPath5)" stroke="none" xml:space="preserve">MikeGPS</text>
      <text x="115" font-size="14" y="49" clip-path="url(#clipPath6)" stroke="none" xml:space="preserve">: actPositionRequester</text>
      <line clip-path="url(#clipPath7)" fill="none" x1="187" x2="187" y1="60" y2="600" stroke-dasharray="10,10" stroke-width="1.1" />
    </g>
    <g stroke-linecap="butt" font-size="9" fill="rgb(39,76,114)" stroke-dasharray="10,10" stroke="rgb(39,76,114)" stroke-width="1.1">
      <rect x="178" y="90" clip-path="url(#clipPath8)" width="20" height="40" stroke="none" />
      <rect x="178" y="90" clip-path="url(#clipPath8)" fill="none" width="19" stroke-dasharray="none" height="39" stroke-width="0.1" />
    </g>
    <g font-size="14" stroke-width="0.1" stroke-linecap="butt">
      <text xml:space="preserve" x="199" y="104" clip-path="url(#clipPath9)" stroke="none">out01</text>
      <rect x="293" y="10" clip-path="url(#clipPath10)" fill="rgb(255,245,181)" width="150" height="50" stroke="none" />
      <rect x="293" y="10" clip-path="url(#clipPath10)" fill="none" width="149" height="49" />
      <text xml:space="preserve" x="352" y="32" clip-path="url(#clipPath11)" stroke="none">Mike</text>
      <text xml:space="preserve" x="323" y="49" clip-path="url(#clipPath11)" stroke="none">: actVolunteer</text>
      <line clip-path="url(#clipPath12)" fill="none" x1="367" x2="367" y1="60" y2="600" stroke-dasharray="10,10" stroke-width="1.1" />
    </g>
    <g stroke-linecap="butt" font-size="9" fill="rgb(39,76,114)" stroke-dasharray="10,10" stroke="rgb(39,76,114)" stroke-width="1.1">
      <rect x="358" y="330" clip-path="url(#clipPath13)" width="20" height="40" stroke="none" />
      <rect x="358" y="330" clip-path="url(#clipPath13)" fill="none" width="19" stroke-dasharray="none" height="39" stroke-width="0.1" />
    </g>
    <g font-size="14" stroke-width="0.1" stroke-linecap="butt">
      <text xml:space="preserve" x="379" y="344" clip-path="url(#clipPath14)" stroke="none">out03</text>
      <rect x="358" y="270" clip-path="url(#clipPath15)" fill="rgb(194,239,255)" width="20" height="40" stroke="none" />
      <rect x="358" y="270" clip-path="url(#clipPath15)" fill="none" width="19" height="39" stroke="rgb(194,239,255)" />
      <text xml:space="preserve" x="379" y="284" clip-path="url(#clipPath16)" stroke="none">in02</text>
      <rect x="358" y="390" clip-path="url(#clipPath17)" fill="rgb(194,239,255)" width="20" height="40" stroke="none" />
      <rect x="358" y="390" clip-path="url(#clipPath17)" fill="none" width="19" height="39" stroke="rgb(194,239,255)" />
      <text xml:space="preserve" x="379" y="404" clip-path="url(#clipPath18)" stroke="none">in03</text>
      <rect x="358" y="450" clip-path="url(#clipPath19)" fill="rgb(194,239,255)" width="20" height="40" stroke="none" />
      <rect x="358" y="450" clip-path="url(#clipPath19)" fill="none" width="19" height="39" stroke="rgb(194,239,255)" />
      <text xml:space="preserve" x="379" y="464" clip-path="url(#clipPath20)" stroke="none">in04</text>
      <rect x="358" y="510" clip-path="url(#clipPath21)" fill="rgb(194,239,255)" width="20" height="40" stroke="none" />
      <rect x="358" y="510" clip-path="url(#clipPath21)" fill="none" width="19" height="39" stroke="rgb(194,239,255)" />
      <text xml:space="preserve" x="379" y="524" clip-path="url(#clipPath22)" stroke="none">in05</text>
      <rect x="473" y="10" clip-path="url(#clipPath23)" fill="rgb(255,245,181)" width="150" height="50" stroke="none" />
      <rect x="473" y="10" clip-path="url(#clipPath23)" fill="none" width="149" height="49" />
      <text xml:space="preserve" x="524" y="32" clip-path="url(#clipPath24)" stroke="none">Garmin</text>
      <text xml:space="preserve" x="511" y="49" clip-path="url(#clipPath24)" stroke="none">: actSensor</text>
      <line clip-path="url(#clipPath25)" fill="none" x1="547" x2="547" y1="60" y2="600" stroke-dasharray="10,10" stroke-width="1.1" />
    </g>
    <g stroke-linecap="butt" font-size="9" fill="rgb(39,76,114)" stroke-dasharray="10,10" stroke="rgb(39,76,114)" stroke-width="1.1">
      <rect x="538" y="210" clip-path="url(#clipPath26)" width="20" height="40" stroke="none" />
      <rect x="538" y="210" clip-path="url(#clipPath26)" fill="none" width="19" stroke-dasharray="none" height="39" stroke-width="0.1" />
    </g>
    <g font-size="14" stroke-width="0.1" stroke-linecap="butt">
      <text xml:space="preserve" x="559" y="224" clip-path="url(#clipPath27)" stroke="none">out02</text>
      <rect x="538" y="150" clip-path="url(#clipPath28)" fill="rgb(194,239,255)" width="20" height="40" stroke="none" />
      <rect x="538" y="150" clip-path="url(#clipPath28)" fill="none" width="19" height="39" stroke="rgb(194,239,255)" />
      <text xml:space="preserve" x="559" y="164" clip-path="url(#clipPath29)" stroke="none">in01</text>
      <line clip-path="url(#clipPath30)" fill="none" x1="178" x2="48" y1="89" y2="89" stroke="rgb(136,136,136)" stroke-width="2.1" />
      <text x="24" y="85" clip-path="url(#clipPath31)" stroke="none" stroke-width="2.1" xml:space="preserve">oeGetPositionFromSensor()</text>
      <line clip-path="url(#clipPath32)" fill="none" x1="55" x2="48" y1="86" y2="89" stroke="rgb(136,136,136)" stroke-width="2.1" />
      <line clip-path="url(#clipPath32)" fill="none" x1="48" x2="55" y1="89" y2="92" stroke="rgb(136,136,136)" stroke-width="2.1" />
      <line clip-path="url(#clipPath30)" fill="none" x1="538" x2="48" y1="209" y2="209" stroke="rgb(136,136,136)" stroke-width="2.1" />
      <text x="171" y="205" clip-path="url(#clipPath33)" stroke="none" stroke-width="2.1" xml:space="preserve">oeSendPos("49.626506, 6.163065")</text>
      <line clip-path="url(#clipPath34)" fill="none" x1="55" x2="48" y1="206" y2="209" stroke="rgb(136,136,136)" stroke-width="2.1" />
      <line clip-path="url(#clipPath34)" fill="none" x1="48" x2="55" y1="209" y2="212" stroke="rgb(136,136,136)" stroke-width="2.1" />
      <line clip-path="url(#clipPath30)" fill="none" x1="358" x2="48" y1="329" y2="329" stroke="rgb(136,136,136)" stroke-width="2.1" />
      <text x="40" y="325" clip-path="url(#clipPath35)" stroke="none" stroke-width="2.1" xml:space="preserve">oeGetInRangeMission("25","49.63999, 6.16399")</text>
      <line clip-path="url(#clipPath36)" fill="none" x1="55" x2="48" y1="326" y2="329" stroke="rgb(136,136,136)" stroke-width="2.1" />
      <line clip-path="url(#clipPath36)" fill="none" x1="48" x2="55" y1="329" y2="332" stroke="rgb(136,136,136)" stroke-width="2.1" />
    </g>
    <g stroke-linecap="butt" font-size="14" fill="rgb(136,136,136)" stroke-dasharray="5,5" stroke="rgb(136,136,136)" stroke-width="2.1">
      <line clip-path="url(#clipPath30)" fill="none" x1="538" x2="48" y1="149" y2="149" />
      <text x="236" y="145" clip-path="url(#clipPath37)" fill="black" stroke="none" xml:space="preserve">iereqCurrentPos()</text>
      <line clip-path="url(#clipPath38)" fill="none" x1="531" x2="538" y1="152" y2="149" stroke-dasharray="none" />
      <line clip-path="url(#clipPath38)" fill="none" x1="538" x2="531" y1="149" y2="146" stroke-dasharray="none" />
      <line clip-path="url(#clipPath30)" fill="none" x1="358" x2="48" y1="269" y2="269" />
      <text x="53" y="265" clip-path="url(#clipPath39)" fill="black" stroke="none" xml:space="preserve">ieSentCurrentPosition(49.626506, 6.163065)</text>
      <line clip-path="url(#clipPath40)" fill="none" x1="351" x2="358" y1="272" y2="269" stroke-dasharray="none" />
      <line clip-path="url(#clipPath40)" fill="none" x1="358" x2="351" y1="269" y2="266" stroke-dasharray="none" />
      <line clip-path="url(#clipPath30)" fill="none" x1="358" x2="48" y1="389" y2="389" />
      <text x="29" y="385" clip-path="url(#clipPath41)" fill="black" stroke="none" xml:space="preserve">ieSendInRangeMission(id=29,49.626506, 6.163065)</text>
      <line clip-path="url(#clipPath42)" fill="none" x1="351" x2="358" y1="392" y2="389" stroke-dasharray="none" />
      <line clip-path="url(#clipPath42)" fill="none" x1="358" x2="351" y1="389" y2="386" stroke-dasharray="none" />
      <line clip-path="url(#clipPath30)" fill="none" x1="358" x2="48" y1="449" y2="449" />
      <text x="29" y="445" clip-path="url(#clipPath43)" fill="black" stroke="none" xml:space="preserve">ieSendInRangeMission(id=34,49.627499, 6.274156)</text>
      <line clip-path="url(#clipPath44)" fill="none" x1="351" x2="358" y1="452" y2="449" stroke-dasharray="none" />
      <line clip-path="url(#clipPath44)" fill="none" x1="358" x2="351" y1="449" y2="446" stroke-dasharray="none" />
      <line clip-path="url(#clipPath30)" fill="none" x1="358" x2="48" y1="509" y2="509" />
      <text x="29" y="505" clip-path="url(#clipPath45)" fill="black" stroke="none" xml:space="preserve">ieSendInRangeMission(id=18,49.639006, 6.263164)</text>
      <line clip-path="url(#clipPath46)" fill="none" x1="351" x2="358" y1="512" y2="509" stroke-dasharray="none" />
      <line clip-path="url(#clipPath46)" fill="none" x1="358" x2="351" y1="509" y2="506" stroke-dasharray="none" />
    </g>
  </g>
</svg>

