<?xml version="1.0" encoding="UTF-8"?>
<svg xmlns="http://www.w3.org/2000/svg" xmlns:xlink="http://www.w3.org/1999/xlink" stroke-dasharray="none" shape-rendering="auto" font-family="'Dialog'" width="1189" text-rendering="auto" fill-opacity="1" contentScriptType="text/ecmascript" color-interpolation="auto" color-rendering="auto" preserveAspectRatio="xMidYMid meet" font-size="12" viewBox="0 0 1189 790" fill="black" stroke="black" image-rendering="auto" stroke-miterlimit="10" zoomAndPan="magnify" version="1.0" stroke-linecap="square" stroke-linejoin="miter" contentStyleType="text/css" font-style="normal" height="790" stroke-width="1" stroke-dashoffset="0" font-weight="normal" stroke-opacity="1">
  <!--Generated by the Batik Graphics2D SVG Generator-->
  <defs id="genericDefs" />
  <g>
    <defs id="defs1">
      <clipPath clipPathUnits="userSpaceOnUse" id="clipPath1">
        <path d="M131 9 L203 9 L203 41 L131 41 L131 9 Z" />
      </clipPath>
      <clipPath clipPathUnits="userSpaceOnUse" id="clipPath2">
        <path d="M131 9 L207 9 L207 41 L131 41 L131 9 Z" />
      </clipPath>
      <clipPath clipPathUnits="userSpaceOnUse" id="clipPath3">
        <path d="M161 39 L173 39 L173 781 L161 781 L161 39 Z" />
      </clipPath>
      <clipPath clipPathUnits="userSpaceOnUse" id="clipPath4">
        <path d="M343 9 L495 9 L495 61 L343 61 L343 9 Z" />
      </clipPath>
      <clipPath clipPathUnits="userSpaceOnUse" id="clipPath5">
        <path d="M343 9 L499 9 L499 61 L343 61 L343 9 Z" />
      </clipPath>
      <clipPath clipPathUnits="userSpaceOnUse" id="clipPath6">
        <path d="M343 9 L498 9 L498 61 L343 61 L343 9 Z" />
      </clipPath>
      <clipPath clipPathUnits="userSpaceOnUse" id="clipPath7">
        <path d="M413 59 L425 59 L425 781 L413 781 L413 59 Z" />
      </clipPath>
      <clipPath clipPathUnits="userSpaceOnUse" id="clipPath8">
        <path d="M408 329 L430 329 L430 371 L408 371 L408 329 Z" />
      </clipPath>
      <clipPath clipPathUnits="userSpaceOnUse" id="clipPath9">
        <path d="M429 329 L473 329 L473 348 L429 348 L429 329 Z" />
      </clipPath>
      <clipPath clipPathUnits="userSpaceOnUse" id="clipPath10">
        <path d="M408 449 L430 449 L430 491 L408 491 L408 449 Z" />
      </clipPath>
      <clipPath clipPathUnits="userSpaceOnUse" id="clipPath11">
        <path d="M429 449 L473 449 L473 468 L429 468 L429 449 Z" />
      </clipPath>
      <clipPath clipPathUnits="userSpaceOnUse" id="clipPath12">
        <path d="M408 689 L430 689 L430 731 L408 731 L408 689 Z" />
      </clipPath>
      <clipPath clipPathUnits="userSpaceOnUse" id="clipPath13">
        <path d="M429 689 L473 689 L473 708 L429 708 L429 689 Z" />
      </clipPath>
      <clipPath clipPathUnits="userSpaceOnUse" id="clipPath14">
        <path d="M408 269 L430 269 L430 311 L408 311 L408 269 Z" />
      </clipPath>
      <clipPath clipPathUnits="userSpaceOnUse" id="clipPath15">
        <path d="M429 269 L464 269 L464 288 L429 288 L429 269 Z" />
      </clipPath>
      <clipPath clipPathUnits="userSpaceOnUse" id="clipPath16">
        <path d="M408 389 L430 389 L430 431 L408 431 L408 389 Z" />
      </clipPath>
      <clipPath clipPathUnits="userSpaceOnUse" id="clipPath17">
        <path d="M429 389 L464 389 L464 408 L429 408 L429 389 Z" />
      </clipPath>
      <clipPath clipPathUnits="userSpaceOnUse" id="clipPath18">
        <path d="M408 629 L430 629 L430 671 L408 671 L408 629 Z" />
      </clipPath>
      <clipPath clipPathUnits="userSpaceOnUse" id="clipPath19">
        <path d="M429 629 L464 629 L464 648 L429 648 L429 629 Z" />
      </clipPath>
      <clipPath clipPathUnits="userSpaceOnUse" id="clipPath20">
        <path d="M823 9 L975 9 L975 61 L823 61 L823 9 Z" />
      </clipPath>
      <clipPath clipPathUnits="userSpaceOnUse" id="clipPath21">
        <path d="M823 9 L978 9 L978 61 L823 61 L823 9 Z" />
      </clipPath>
      <clipPath clipPathUnits="userSpaceOnUse" id="clipPath22">
        <path d="M893 59 L905 59 L905 781 L893 781 L893 59 Z" />
      </clipPath>
      <clipPath clipPathUnits="userSpaceOnUse" id="clipPath23">
        <path d="M888 209 L910 209 L910 251 L888 251 L888 209 Z" />
      </clipPath>
      <clipPath clipPathUnits="userSpaceOnUse" id="clipPath24">
        <path d="M909 209 L953 209 L953 228 L909 228 L909 209 Z" />
      </clipPath>
      <clipPath clipPathUnits="userSpaceOnUse" id="clipPath25">
        <path d="M888 149 L910 149 L910 191 L888 191 L888 149 Z" />
      </clipPath>
      <clipPath clipPathUnits="userSpaceOnUse" id="clipPath26">
        <path d="M909 149 L944 149 L944 168 L909 168 L909 149 Z" />
      </clipPath>
      <clipPath clipPathUnits="userSpaceOnUse" id="clipPath27">
        <path d="M1028 9 L1180 9 L1180 61 L1028 61 L1028 9 Z" />
      </clipPath>
      <clipPath clipPathUnits="userSpaceOnUse" id="clipPath28">
        <path d="M1028 9 L1184 9 L1184 61 L1028 61 L1028 9 Z" />
      </clipPath>
      <clipPath clipPathUnits="userSpaceOnUse" id="clipPath29">
        <path d="M1028 9 L1183 9 L1183 61 L1028 61 L1028 9 Z" />
      </clipPath>
      <clipPath clipPathUnits="userSpaceOnUse" id="clipPath30">
        <path d="M1098 59 L1110 59 L1110 781 L1098 781 L1098 59 Z" />
      </clipPath>
      <clipPath clipPathUnits="userSpaceOnUse" id="clipPath31">
        <path d="M1093 569 L1115 569 L1115 611 L1093 611 L1093 569 Z" />
      </clipPath>
      <clipPath clipPathUnits="userSpaceOnUse" id="clipPath32">
        <path d="M1114 569 L1158 569 L1158 588 L1114 588 L1114 569 Z" />
      </clipPath>
      <clipPath clipPathUnits="userSpaceOnUse" id="clipPath33">
        <path d="M1093 509 L1115 509 L1115 551 L1093 551 L1093 509 Z" />
      </clipPath>
      <clipPath clipPathUnits="userSpaceOnUse" id="clipPath34">
        <path d="M1114 509 L1149 509 L1149 528 L1114 528 L1114 509 Z" />
      </clipPath>
      <clipPath clipPathUnits="userSpaceOnUse" id="clipPath35">
        <path d="M503 9 L655 9 L655 61 L503 61 L503 9 Z" />
      </clipPath>
      <clipPath clipPathUnits="userSpaceOnUse" id="clipPath36">
        <path d="M503 9 L659 9 L659 61 L503 61 L503 9 Z" />
      </clipPath>
      <clipPath clipPathUnits="userSpaceOnUse" id="clipPath37">
        <path d="M503 9 L658 9 L658 61 L503 61 L503 9 Z" />
      </clipPath>
      <clipPath clipPathUnits="userSpaceOnUse" id="clipPath38">
        <path d="M573 59 L585 59 L585 781 L573 781 L573 59 Z" />
      </clipPath>
      <clipPath clipPathUnits="userSpaceOnUse" id="clipPath39">
        <path d="M568 89 L590 89 L590 131 L568 131 L568 89 Z" />
      </clipPath>
      <clipPath clipPathUnits="userSpaceOnUse" id="clipPath40">
        <path d="M589 89 L633 89 L633 108 L589 108 L589 89 Z" />
      </clipPath>
      <clipPath clipPathUnits="userSpaceOnUse" id="clipPath41">
        <path d="M-1 -1 L1190 -1 L1190 791 L-1 791 L-1 -1 Z" />
      </clipPath>
      <clipPath clipPathUnits="userSpaceOnUse" id="clipPath42">
        <path d="M405 191 L655 191 L655 210 L405 210 L405 191 Z" />
      </clipPath>
      <clipPath clipPathUnits="userSpaceOnUse" id="clipPath43">
        <path d="M165 205 L177 205 L177 216 L165 216 L165 205 Z" />
      </clipPath>
      <clipPath clipPathUnits="userSpaceOnUse" id="clipPath44">
        <path d="M23 311 L556 311 L556 330 L23 330 L23 311 Z" />
      </clipPath>
      <clipPath clipPathUnits="userSpaceOnUse" id="clipPath45">
        <path d="M165 325 L177 325 L177 336 L165 336 L165 325 Z" />
      </clipPath>
      <clipPath clipPathUnits="userSpaceOnUse" id="clipPath46">
        <path d="M216 431 L363 431 L363 450 L216 450 L216 431 Z" />
      </clipPath>
      <clipPath clipPathUnits="userSpaceOnUse" id="clipPath47">
        <path d="M165 445 L177 445 L177 456 L165 456 L165 445 Z" />
      </clipPath>
      <clipPath clipPathUnits="userSpaceOnUse" id="clipPath48">
        <path d="M507 551 L757 551 L757 570 L507 570 L507 551 Z" />
      </clipPath>
      <clipPath clipPathUnits="userSpaceOnUse" id="clipPath49">
        <path d="M165 565 L177 565 L177 576 L165 576 L165 565 Z" />
      </clipPath>
      <clipPath clipPathUnits="userSpaceOnUse" id="clipPath50">
        <path d="M238 671 L341 671 L341 690 L238 690 L238 671 Z" />
      </clipPath>
      <clipPath clipPathUnits="userSpaceOnUse" id="clipPath51">
        <path d="M165 685 L177 685 L177 696 L165 696 L165 685 Z" />
      </clipPath>
      <clipPath clipPathUnits="userSpaceOnUse" id="clipPath52">
        <path d="M470 131 L590 131 L590 150 L470 150 L470 131 Z" />
      </clipPath>
      <clipPath clipPathUnits="userSpaceOnUse" id="clipPath53">
        <path d="M880 145 L892 145 L892 156 L880 156 L880 145 Z" />
      </clipPath>
      <clipPath clipPathUnits="userSpaceOnUse" id="clipPath54">
        <path d="M157 251 L422 251 L422 270 L157 270 L157 251 Z" />
      </clipPath>
      <clipPath clipPathUnits="userSpaceOnUse" id="clipPath55">
        <path d="M400 265 L412 265 L412 276 L400 276 L400 265 Z" />
      </clipPath>
      <clipPath clipPathUnits="userSpaceOnUse" id="clipPath56">
        <path d="M50 371 L529 371 L529 390 L50 390 L50 371 Z" />
      </clipPath>
      <clipPath clipPathUnits="userSpaceOnUse" id="clipPath57">
        <path d="M400 385 L412 385 L412 396 L400 396 L400 385 Z" />
      </clipPath>
      <clipPath clipPathUnits="userSpaceOnUse" id="clipPath58">
        <path d="M336 491 L927 491 L927 510 L336 510 L336 491 Z" />
      </clipPath>
      <clipPath clipPathUnits="userSpaceOnUse" id="clipPath59">
        <path d="M1085 505 L1097 505 L1097 516 L1085 516 L1085 505 Z" />
      </clipPath>
      <clipPath clipPathUnits="userSpaceOnUse" id="clipPath60">
        <path d="M87 611 L492 611 L492 630 L87 630 L87 611 Z" />
      </clipPath>
      <clipPath clipPathUnits="userSpaceOnUse" id="clipPath61">
        <path d="M400 625 L412 625 L412 636 L400 636 L400 625 Z" />
      </clipPath>
      <clipPath clipPathUnits="userSpaceOnUse" id="clipPath62">
        <path d="M278 70 L462 70 L462 89 L278 89 L278 70 Z" />
      </clipPath>
      <clipPath clipPathUnits="userSpaceOnUse" id="clipPath63">
        <path d="M165 84 L177 84 L177 95 L165 95 L165 84 Z" />
      </clipPath>
    </defs>
    <g font-size="9" fill="rgb(238,201,142)" stroke-linejoin="round" stroke="rgb(238,201,142)" stroke-width="0" stroke-miterlimit="0">
      <rect x="132" y="10" clip-path="url(#clipPath1)" width="70" height="30" stroke="none" />
    </g>
    <g font-size="9" stroke-width="0.1" stroke-linecap="butt">
      <rect x="132" y="10" clip-path="url(#clipPath1)" fill="none" width="69" height="29" />
      <text x="143" font-size="14" y="30" clip-path="url(#clipPath2)" stroke="none" xml:space="preserve">System</text>
      <line clip-path="url(#clipPath3)" fill="none" x1="166" x2="166" y1="40" y2="780" stroke-dasharray="10,10" stroke-width="1.1" />
    </g>
    <g stroke-linecap="butt" font-size="9" fill="rgb(255,245,181)" stroke-dasharray="10,10" stroke="rgb(255,245,181)" stroke-width="1.1">
      <rect x="344" y="10" clip-path="url(#clipPath4)" width="150" height="50" stroke="none" />
    </g>
    <g font-size="9" stroke-width="0.1" stroke-linecap="butt">
      <rect x="344" y="10" clip-path="url(#clipPath4)" fill="none" width="149" height="49" />
      <text x="398" font-size="14" y="32" clip-path="url(#clipPath5)" stroke="none" xml:space="preserve">Benny</text>
      <text x="364" font-size="14" y="49" clip-path="url(#clipPath6)" stroke="none" xml:space="preserve">: actWeakPerson</text>
      <line clip-path="url(#clipPath7)" fill="none" x1="418" x2="418" y1="60" y2="780" stroke-dasharray="10,10" stroke-width="1.1" />
    </g>
    <g stroke-linecap="butt" font-size="9" fill="rgb(39,76,114)" stroke-dasharray="10,10" stroke="rgb(39,76,114)" stroke-width="1.1">
      <rect x="409" y="330" clip-path="url(#clipPath8)" width="20" height="40" stroke="none" />
      <rect x="409" y="330" clip-path="url(#clipPath8)" fill="none" width="19" stroke-dasharray="none" height="39" stroke-width="0.1" />
    </g>
    <g font-size="14" stroke-width="0.1" stroke-linecap="butt">
      <text xml:space="preserve" x="430" y="344" clip-path="url(#clipPath9)" stroke="none">out03</text>
      <rect x="409" y="450" clip-path="url(#clipPath10)" fill="rgb(39,76,114)" width="20" height="40" stroke="none" />
      <rect x="409" y="450" clip-path="url(#clipPath10)" fill="none" width="19" height="39" stroke="rgb(39,76,114)" />
      <text xml:space="preserve" x="430" y="464" clip-path="url(#clipPath11)" stroke="none">out04</text>
      <rect x="409" y="690" clip-path="url(#clipPath12)" fill="rgb(39,76,114)" width="20" height="40" stroke="none" />
      <rect x="409" y="690" clip-path="url(#clipPath12)" fill="none" width="19" height="39" stroke="rgb(39,76,114)" />
      <text xml:space="preserve" x="430" y="704" clip-path="url(#clipPath13)" stroke="none">out06</text>
      <rect x="409" y="270" clip-path="url(#clipPath14)" fill="rgb(194,239,255)" width="20" height="40" stroke="none" />
      <rect x="409" y="270" clip-path="url(#clipPath14)" fill="none" width="19" height="39" stroke="rgb(194,239,255)" />
      <text xml:space="preserve" x="430" y="284" clip-path="url(#clipPath15)" stroke="none">in02</text>
      <rect x="409" y="390" clip-path="url(#clipPath16)" fill="rgb(194,239,255)" width="20" height="40" stroke="none" />
      <rect x="409" y="390" clip-path="url(#clipPath16)" fill="none" width="19" height="39" stroke="rgb(194,239,255)" />
      <text xml:space="preserve" x="430" y="404" clip-path="url(#clipPath17)" stroke="none">in03</text>
      <rect x="409" y="630" clip-path="url(#clipPath18)" fill="rgb(194,239,255)" width="20" height="40" stroke="none" />
      <rect x="409" y="630" clip-path="url(#clipPath18)" fill="none" width="19" height="39" stroke="rgb(194,239,255)" />
      <text xml:space="preserve" x="430" y="644" clip-path="url(#clipPath19)" stroke="none">in05</text>
      <rect x="824" y="10" clip-path="url(#clipPath20)" fill="rgb(255,245,181)" width="150" height="50" stroke="none" />
      <rect x="824" y="10" clip-path="url(#clipPath20)" fill="none" width="149" height="49" />
      <text xml:space="preserve" x="875" y="32" clip-path="url(#clipPath21)" stroke="none">Garmin</text>
      <text xml:space="preserve" x="862" y="49" clip-path="url(#clipPath21)" stroke="none">: actSensor</text>
      <line clip-path="url(#clipPath22)" fill="none" x1="898" x2="898" y1="60" y2="780" stroke-dasharray="10,10" stroke-width="1.1" />
    </g>
    <g stroke-linecap="butt" font-size="9" fill="rgb(39,76,114)" stroke-dasharray="10,10" stroke="rgb(39,76,114)" stroke-width="1.1">
      <rect x="889" y="210" clip-path="url(#clipPath23)" width="20" height="40" stroke="none" />
      <rect x="889" y="210" clip-path="url(#clipPath23)" fill="none" width="19" stroke-dasharray="none" height="39" stroke-width="0.1" />
    </g>
    <g font-size="14" stroke-width="0.1" stroke-linecap="butt">
      <text xml:space="preserve" x="910" y="224" clip-path="url(#clipPath24)" stroke="none">out02</text>
      <rect x="889" y="150" clip-path="url(#clipPath25)" fill="rgb(194,239,255)" width="20" height="40" stroke="none" />
      <rect x="889" y="150" clip-path="url(#clipPath25)" fill="none" width="19" height="39" stroke="rgb(194,239,255)" />
      <text xml:space="preserve" x="910" y="164" clip-path="url(#clipPath26)" stroke="none">in01</text>
      <rect x="1029" y="10" clip-path="url(#clipPath27)" fill="rgb(255,245,181)" width="150" height="50" stroke="none" />
      <rect x="1029" y="10" clip-path="url(#clipPath27)" fill="none" width="149" height="49" />
      <text xml:space="preserve" x="1089" y="32" clip-path="url(#clipPath28)" stroke="none">DB1</text>
      <text xml:space="preserve" x="1043" y="49" clip-path="url(#clipPath29)" stroke="none">: actMainDatabase</text>
      <line clip-path="url(#clipPath30)" fill="none" x1="1103" x2="1103" y1="60" y2="780" stroke-dasharray="10,10" stroke-width="1.1" />
    </g>
    <g stroke-linecap="butt" font-size="9" fill="rgb(39,76,114)" stroke-dasharray="10,10" stroke="rgb(39,76,114)" stroke-width="1.1">
      <rect x="1094" y="570" clip-path="url(#clipPath31)" width="20" height="40" stroke="none" />
      <rect x="1094" y="570" clip-path="url(#clipPath31)" fill="none" width="19" stroke-dasharray="none" height="39" stroke-width="0.1" />
    </g>
    <g font-size="14" stroke-width="0.1" stroke-linecap="butt">
      <text xml:space="preserve" x="1115" y="584" clip-path="url(#clipPath32)" stroke="none">out05</text>
      <rect x="1094" y="510" clip-path="url(#clipPath33)" fill="rgb(194,239,255)" width="20" height="40" stroke="none" />
      <rect x="1094" y="510" clip-path="url(#clipPath33)" fill="none" width="19" height="39" stroke="rgb(194,239,255)" />
      <text xml:space="preserve" x="1115" y="524" clip-path="url(#clipPath34)" stroke="none">in04</text>
      <rect x="504" y="10" clip-path="url(#clipPath35)" fill="rgb(255,245,181)" width="150" height="50" stroke="none" />
      <rect x="504" y="10" clip-path="url(#clipPath35)" fill="none" width="149" height="49" />
      <text xml:space="preserve" x="545" y="32" clip-path="url(#clipPath36)" stroke="none">BennyGPS</text>
      <text xml:space="preserve" x="506" y="49" clip-path="url(#clipPath37)" stroke="none">: actPositionRequester</text>
      <line clip-path="url(#clipPath38)" fill="none" x1="578" x2="578" y1="60" y2="780" stroke-dasharray="10,10" stroke-width="1.1" />
    </g>
    <g stroke-linecap="butt" font-size="9" fill="rgb(39,76,114)" stroke-dasharray="10,10" stroke="rgb(39,76,114)" stroke-width="1.1">
      <rect x="569" y="90" clip-path="url(#clipPath39)" width="20" height="40" stroke="none" />
      <rect x="569" y="90" clip-path="url(#clipPath39)" fill="none" width="19" stroke-dasharray="none" height="39" stroke-width="0.1" />
    </g>
    <g font-size="14" stroke-width="0.1" stroke-linecap="butt">
      <text xml:space="preserve" x="590" y="104" clip-path="url(#clipPath40)" stroke="none">out01</text>
      <line clip-path="url(#clipPath41)" fill="none" x1="889" x2="167" y1="210" y2="210" stroke="rgb(136,136,136)" stroke-width="2.1" />
      <text x="406" y="206" clip-path="url(#clipPath42)" stroke="none" stroke-width="2.1" xml:space="preserve">oeSendPos("49.626506, 6.163065")</text>
      <line clip-path="url(#clipPath43)" fill="none" x1="174" x2="167" y1="207" y2="210" stroke="rgb(136,136,136)" stroke-width="2.1" />
      <line clip-path="url(#clipPath43)" fill="none" x1="167" x2="174" y1="210" y2="213" stroke="rgb(136,136,136)" stroke-width="2.1" />
      <line clip-path="url(#clipPath41)" fill="none" x1="409" x2="167" y1="330" y2="330" stroke="rgb(136,136,136)" stroke-width="2.1" />
      <text x="24" y="326" clip-path="url(#clipPath44)" stroke="none" stroke-width="2.1" xml:space="preserve">oeInputManualPos("1 rue des maraîchers-Luxembourg","49.626506, 6.163065")</text>
      <line clip-path="url(#clipPath45)" fill="none" x1="174" x2="167" y1="327" y2="330" stroke="rgb(136,136,136)" stroke-width="2.1" />
      <line clip-path="url(#clipPath45)" fill="none" x1="167" x2="174" y1="330" y2="333" stroke="rgb(136,136,136)" stroke-width="2.1" />
      <line clip-path="url(#clipPath41)" fill="none" x1="409" x2="167" y1="450" y2="450" stroke="rgb(136,136,136)" stroke-width="2.1" />
      <text x="217" y="446" clip-path="url(#clipPath46)" stroke="none" stroke-width="2.1" xml:space="preserve">oeSendHelpRequest()</text>
      <line clip-path="url(#clipPath47)" fill="none" x1="174" x2="167" y1="447" y2="450" stroke="rgb(136,136,136)" stroke-width="2.1" />
      <line clip-path="url(#clipPath47)" fill="none" x1="167" x2="174" y1="450" y2="453" stroke="rgb(136,136,136)" stroke-width="2.1" />
      <line clip-path="url(#clipPath41)" fill="none" x1="1094" x2="167" y1="570" y2="570" stroke="rgb(136,136,136)" stroke-width="2.1" />
      <text x="508" y="566" clip-path="url(#clipPath48)" stroke="none" stroke-width="2.1" xml:space="preserve">oeConfirmEntryAdded("id : 27","true")</text>
      <line clip-path="url(#clipPath49)" fill="none" x1="174" x2="167" y1="567" y2="570" stroke="rgb(136,136,136)" stroke-width="2.1" />
      <line clip-path="url(#clipPath49)" fill="none" x1="167" x2="174" y1="570" y2="573" stroke="rgb(136,136,136)" stroke-width="2.1" />
      <line clip-path="url(#clipPath41)" fill="none" x1="409" x2="167" y1="690" y2="690" stroke="rgb(136,136,136)" stroke-width="2.1" />
      <text x="239" y="686" clip-path="url(#clipPath50)" stroke="none" stroke-width="2.1" xml:space="preserve">oeAlertFamily()</text>
      <line clip-path="url(#clipPath51)" fill="none" x1="174" x2="167" y1="687" y2="690" stroke="rgb(136,136,136)" stroke-width="2.1" />
      <line clip-path="url(#clipPath51)" fill="none" x1="167" x2="174" y1="690" y2="693" stroke="rgb(136,136,136)" stroke-width="2.1" />
    </g>
    <g stroke-linecap="butt" font-size="14" fill="rgb(136,136,136)" stroke-dasharray="5,5" stroke="rgb(136,136,136)" stroke-width="2.1">
      <line clip-path="url(#clipPath41)" fill="none" x1="889" x2="167" y1="150" y2="150" />
      <text x="471" y="146" clip-path="url(#clipPath52)" fill="black" stroke="none" xml:space="preserve">iereqCurrentPos()</text>
      <line clip-path="url(#clipPath53)" fill="none" x1="882" x2="889" y1="153" y2="150" stroke-dasharray="none" />
      <line clip-path="url(#clipPath53)" fill="none" x1="889" x2="882" y1="150" y2="147" stroke-dasharray="none" />
      <line clip-path="url(#clipPath41)" fill="none" x1="409" x2="167" y1="270" y2="270" />
      <text x="158" y="266" clip-path="url(#clipPath54)" fill="black" stroke="none" xml:space="preserve">ieSentdPosition(49.626506, 6.163065)</text>
      <line clip-path="url(#clipPath55)" fill="none" x1="402" x2="409" y1="273" y2="270" stroke-dasharray="none" />
      <line clip-path="url(#clipPath55)" fill="none" x1="409" x2="402" y1="270" y2="267" stroke-dasharray="none" />
      <line clip-path="url(#clipPath41)" fill="none" x1="409" x2="167" y1="390" y2="390" />
      <text x="51" y="386" clip-path="url(#clipPath56)" fill="black" stroke="none" xml:space="preserve">ieConfirmPos(1 rue des maraîchers-Luxembourg,49.626506, 6.163065)</text>
      <line clip-path="url(#clipPath57)" fill="none" x1="402" x2="409" y1="393" y2="390" stroke-dasharray="none" />
      <line clip-path="url(#clipPath57)" fill="none" x1="409" x2="402" y1="390" y2="387" stroke-dasharray="none" />
      <line clip-path="url(#clipPath41)" fill="none" x1="1094" x2="167" y1="510" y2="510" />
      <text x="337" y="506" clip-path="url(#clipPath58)" fill="black" stroke="none" xml:space="preserve">ieAddEntry(Benny Hill,6611726354,49.618416, 6.172678,1 rue de Cents - Luxembourg)</text>
      <line clip-path="url(#clipPath59)" fill="none" x1="1087" x2="1094" y1="513" y2="510" stroke-dasharray="none" />
      <line clip-path="url(#clipPath59)" fill="none" x1="1094" x2="1087" y1="510" y2="507" stroke-dasharray="none" />
      <line clip-path="url(#clipPath41)" fill="none" x1="409" x2="167" y1="630" y2="630" />
      <text x="88" y="626" clip-path="url(#clipPath60)" fill="black" stroke="none" xml:space="preserve">ieSentConfirmationMessage(Your help request has been sent)</text>
      <line clip-path="url(#clipPath61)" fill="none" x1="402" x2="409" y1="633" y2="630" stroke-dasharray="none" />
      <line clip-path="url(#clipPath61)" fill="none" x1="409" x2="402" y1="630" y2="627" stroke-dasharray="none" />
      <line clip-path="url(#clipPath41)" fill="none" x1="569" x2="167" y1="89" y2="89" stroke-dasharray="none" />
      <text x="279" y="85" clip-path="url(#clipPath62)" fill="black" stroke-dasharray="none" stroke="none" xml:space="preserve">oeGetPositionFromSensor()</text>
      <line clip-path="url(#clipPath63)" fill="none" x1="174" x2="167" y1="86" y2="89" stroke-dasharray="none" />
      <line clip-path="url(#clipPath63)" fill="none" x1="167" x2="174" y1="89" y2="92" stroke-dasharray="none" />
    </g>
  </g>
</svg>

