<?xml version="1.0" encoding="UTF-8"?>
<svg xmlns="http://www.w3.org/2000/svg" xmlns:xlink="http://www.w3.org/1999/xlink" stroke-dasharray="none" shape-rendering="auto" font-family="'Dialog'" width="809" text-rendering="auto" fill-opacity="1" contentScriptType="text/ecmascript" color-interpolation="auto" color-rendering="auto" preserveAspectRatio="xMidYMid meet" font-size="12" viewBox="0 0 809 850" fill="black" stroke="black" image-rendering="auto" stroke-miterlimit="10" zoomAndPan="magnify" version="1.0" stroke-linecap="square" stroke-linejoin="miter" contentStyleType="text/css" font-style="normal" height="850" stroke-width="1" stroke-dashoffset="0" font-weight="normal" stroke-opacity="1">
  <!--Generated by the Batik Graphics2D SVG Generator-->
  <defs id="genericDefs" />
  <g>
    <defs id="defs1">
      <clipPath clipPathUnits="userSpaceOnUse" id="clipPath1">
        <path d="M247 9 L319 9 L319 41 L247 41 L247 9 Z" />
      </clipPath>
      <clipPath clipPathUnits="userSpaceOnUse" id="clipPath2">
        <path d="M247 9 L323 9 L323 41 L247 41 L247 9 Z" />
      </clipPath>
      <clipPath clipPathUnits="userSpaceOnUse" id="clipPath3">
        <path d="M277 39 L289 39 L289 841 L277 841 L277 39 Z" />
      </clipPath>
      <clipPath clipPathUnits="userSpaceOnUse" id="clipPath4">
        <path d="M347 9 L499 9 L499 61 L347 61 L347 9 Z" />
      </clipPath>
      <clipPath clipPathUnits="userSpaceOnUse" id="clipPath5">
        <path d="M347 9 L503 9 L503 61 L347 61 L347 9 Z" />
      </clipPath>
      <clipPath clipPathUnits="userSpaceOnUse" id="clipPath6">
        <path d="M347 9 L502 9 L502 61 L347 61 L347 9 Z" />
      </clipPath>
      <clipPath clipPathUnits="userSpaceOnUse" id="clipPath7">
        <path d="M417 59 L429 59 L429 841 L417 841 L417 59 Z" />
      </clipPath>
      <clipPath clipPathUnits="userSpaceOnUse" id="clipPath8">
        <path d="M412 89 L434 89 L434 131 L412 131 L412 89 Z" />
      </clipPath>
      <clipPath clipPathUnits="userSpaceOnUse" id="clipPath9">
        <path d="M433 89 L477 89 L477 108 L433 108 L433 89 Z" />
      </clipPath>
      <clipPath clipPathUnits="userSpaceOnUse" id="clipPath10">
        <path d="M412 569 L434 569 L434 611 L412 611 L412 569 Z" />
      </clipPath>
      <clipPath clipPathUnits="userSpaceOnUse" id="clipPath11">
        <path d="M433 569 L477 569 L477 588 L433 588 L433 569 Z" />
      </clipPath>
      <clipPath clipPathUnits="userSpaceOnUse" id="clipPath12">
        <path d="M412 269 L434 269 L434 311 L412 311 L412 269 Z" />
      </clipPath>
      <clipPath clipPathUnits="userSpaceOnUse" id="clipPath13">
        <path d="M433 269 L468 269 L468 288 L433 288 L433 269 Z" />
      </clipPath>
      <clipPath clipPathUnits="userSpaceOnUse" id="clipPath14">
        <path d="M412 389 L434 389 L434 431 L412 431 L412 389 Z" />
      </clipPath>
      <clipPath clipPathUnits="userSpaceOnUse" id="clipPath15">
        <path d="M433 389 L468 389 L468 408 L433 408 L433 389 Z" />
      </clipPath>
      <clipPath clipPathUnits="userSpaceOnUse" id="clipPath16">
        <path d="M412 509 L434 509 L434 551 L412 551 L412 509 Z" />
      </clipPath>
      <clipPath clipPathUnits="userSpaceOnUse" id="clipPath17">
        <path d="M433 509 L468 509 L468 528 L433 528 L433 509 Z" />
      </clipPath>
      <clipPath clipPathUnits="userSpaceOnUse" id="clipPath18">
        <path d="M412 749 L434 749 L434 791 L412 791 L412 749 Z" />
      </clipPath>
      <clipPath clipPathUnits="userSpaceOnUse" id="clipPath19">
        <path d="M433 749 L468 749 L468 768 L433 768 L433 749 Z" />
      </clipPath>
      <clipPath clipPathUnits="userSpaceOnUse" id="clipPath20">
        <path d="M527 9 L679 9 L679 61 L527 61 L527 9 Z" />
      </clipPath>
      <clipPath clipPathUnits="userSpaceOnUse" id="clipPath21">
        <path d="M527 9 L683 9 L683 61 L527 61 L527 9 Z" />
      </clipPath>
      <clipPath clipPathUnits="userSpaceOnUse" id="clipPath22">
        <path d="M527 9 L682 9 L682 61 L527 61 L527 9 Z" />
      </clipPath>
      <clipPath clipPathUnits="userSpaceOnUse" id="clipPath23">
        <path d="M597 59 L609 59 L609 841 L597 841 L597 59 Z" />
      </clipPath>
      <clipPath clipPathUnits="userSpaceOnUse" id="clipPath24">
        <path d="M592 209 L614 209 L614 251 L592 251 L592 209 Z" />
      </clipPath>
      <clipPath clipPathUnits="userSpaceOnUse" id="clipPath25">
        <path d="M613 209 L657 209 L657 228 L613 228 L613 209 Z" />
      </clipPath>
      <clipPath clipPathUnits="userSpaceOnUse" id="clipPath26">
        <path d="M592 329 L614 329 L614 371 L592 371 L592 329 Z" />
      </clipPath>
      <clipPath clipPathUnits="userSpaceOnUse" id="clipPath27">
        <path d="M613 329 L657 329 L657 348 L613 348 L613 329 Z" />
      </clipPath>
      <clipPath clipPathUnits="userSpaceOnUse" id="clipPath28">
        <path d="M592 449 L614 449 L614 491 L592 491 L592 449 Z" />
      </clipPath>
      <clipPath clipPathUnits="userSpaceOnUse" id="clipPath29">
        <path d="M613 449 L657 449 L657 468 L613 468 L613 449 Z" />
      </clipPath>
      <clipPath clipPathUnits="userSpaceOnUse" id="clipPath30">
        <path d="M592 689 L614 689 L614 731 L592 731 L592 689 Z" />
      </clipPath>
      <clipPath clipPathUnits="userSpaceOnUse" id="clipPath31">
        <path d="M613 689 L657 689 L657 708 L613 708 L613 689 Z" />
      </clipPath>
      <clipPath clipPathUnits="userSpaceOnUse" id="clipPath32">
        <path d="M592 149 L614 149 L614 191 L592 191 L592 149 Z" />
      </clipPath>
      <clipPath clipPathUnits="userSpaceOnUse" id="clipPath33">
        <path d="M613 149 L648 149 L648 168 L613 168 L613 149 Z" />
      </clipPath>
      <clipPath clipPathUnits="userSpaceOnUse" id="clipPath34">
        <path d="M592 629 L614 629 L614 671 L592 671 L592 629 Z" />
      </clipPath>
      <clipPath clipPathUnits="userSpaceOnUse" id="clipPath35">
        <path d="M613 629 L648 629 L648 648 L613 648 L613 629 Z" />
      </clipPath>
      <clipPath clipPathUnits="userSpaceOnUse" id="clipPath36">
        <path d="M-1 -1 L810 -1 L810 851 L-1 851 L-1 -1 Z" />
      </clipPath>
      <clipPath clipPathUnits="userSpaceOnUse" id="clipPath37">
        <path d="M251 70 L448 70 L448 89 L251 89 L251 70 Z" />
      </clipPath>
      <clipPath clipPathUnits="userSpaceOnUse" id="clipPath38">
        <path d="M281 84 L293 84 L293 95 L281 95 L281 84 Z" />
      </clipPath>
      <clipPath clipPathUnits="userSpaceOnUse" id="clipPath39">
        <path d="M267 190 L613 190 L613 209 L267 209 L267 190 Z" />
      </clipPath>
      <clipPath clipPathUnits="userSpaceOnUse" id="clipPath40">
        <path d="M281 204 L293 204 L293 215 L281 215 L281 204 Z" />
      </clipPath>
      <clipPath clipPathUnits="userSpaceOnUse" id="clipPath41">
        <path d="M267 310 L613 310 L613 329 L267 329 L267 310 Z" />
      </clipPath>
      <clipPath clipPathUnits="userSpaceOnUse" id="clipPath42">
        <path d="M281 324 L293 324 L293 335 L281 335 L281 324 Z" />
      </clipPath>
      <clipPath clipPathUnits="userSpaceOnUse" id="clipPath43">
        <path d="M267 430 L613 430 L613 449 L267 449 L267 430 Z" />
      </clipPath>
      <clipPath clipPathUnits="userSpaceOnUse" id="clipPath44">
        <path d="M281 444 L293 444 L293 455 L281 455 L281 444 Z" />
      </clipPath>
      <clipPath clipPathUnits="userSpaceOnUse" id="clipPath45">
        <path d="M236 550 L463 550 L463 569 L236 569 L236 550 Z" />
      </clipPath>
      <clipPath clipPathUnits="userSpaceOnUse" id="clipPath46">
        <path d="M281 564 L293 564 L293 575 L281 575 L281 564 Z" />
      </clipPath>
      <clipPath clipPathUnits="userSpaceOnUse" id="clipPath47">
        <path d="M90 670 L789 670 L789 689 L90 689 L90 670 Z" />
      </clipPath>
      <clipPath clipPathUnits="userSpaceOnUse" id="clipPath48">
        <path d="M281 684 L293 684 L293 695 L281 695 L281 684 Z" />
      </clipPath>
      <clipPath clipPathUnits="userSpaceOnUse" id="clipPath49">
        <path d="M343 130 L537 130 L537 149 L343 149 L343 130 Z" />
      </clipPath>
      <clipPath clipPathUnits="userSpaceOnUse" id="clipPath50">
        <path d="M584 144 L596 144 L596 155 L584 155 L584 144 Z" />
      </clipPath>
      <clipPath clipPathUnits="userSpaceOnUse" id="clipPath51">
        <path d="M220 250 L479 250 L479 269 L220 269 L220 250 Z" />
      </clipPath>
      <clipPath clipPathUnits="userSpaceOnUse" id="clipPath52">
        <path d="M404 264 L416 264 L416 275 L404 275 L404 264 Z" />
      </clipPath>
      <clipPath clipPathUnits="userSpaceOnUse" id="clipPath53">
        <path d="M220 370 L479 370 L479 389 L220 389 L220 370 Z" />
      </clipPath>
      <clipPath clipPathUnits="userSpaceOnUse" id="clipPath54">
        <path d="M404 384 L416 384 L416 395 L404 395 L404 384 Z" />
      </clipPath>
      <clipPath clipPathUnits="userSpaceOnUse" id="clipPath55">
        <path d="M220 490 L479 490 L479 509 L220 509 L220 490 Z" />
      </clipPath>
      <clipPath clipPathUnits="userSpaceOnUse" id="clipPath56">
        <path d="M404 504 L416 504 L416 515 L404 515 L404 504 Z" />
      </clipPath>
      <clipPath clipPathUnits="userSpaceOnUse" id="clipPath57">
        <path d="M358 610 L522 610 L522 629 L358 629 L358 610 Z" />
      </clipPath>
      <clipPath clipPathUnits="userSpaceOnUse" id="clipPath58">
        <path d="M584 624 L596 624 L596 635 L584 635 L584 624 Z" />
      </clipPath>
      <clipPath clipPathUnits="userSpaceOnUse" id="clipPath59">
        <path d="M23 730 L676 730 L676 749 L23 749 L23 730 Z" />
      </clipPath>
      <clipPath clipPathUnits="userSpaceOnUse" id="clipPath60">
        <path d="M404 744 L416 744 L416 755 L404 755 L404 744 Z" />
      </clipPath>
    </defs>
    <g font-size="9" fill="rgb(238,201,142)" stroke-linejoin="round" stroke="rgb(238,201,142)" stroke-width="0" stroke-miterlimit="0">
      <rect x="248" y="10" clip-path="url(#clipPath1)" width="70" height="30" stroke="none" />
    </g>
    <g font-size="9" stroke-width="0.1" stroke-linecap="butt">
      <rect x="248" y="10" clip-path="url(#clipPath1)" fill="none" width="69" height="29" />
      <text x="259" font-size="14" y="30" clip-path="url(#clipPath2)" stroke="none" xml:space="preserve">System</text>
      <line clip-path="url(#clipPath3)" fill="none" x1="282" x2="282" y1="40" y2="840" stroke-dasharray="10,10" stroke-width="1.1" />
    </g>
    <g stroke-linecap="butt" font-size="9" fill="rgb(255,245,181)" stroke-dasharray="10,10" stroke="rgb(255,245,181)" stroke-width="1.1">
      <rect x="348" y="10" clip-path="url(#clipPath4)" width="150" height="50" stroke="none" />
    </g>
    <g font-size="9" stroke-width="0.1" stroke-linecap="butt">
      <rect x="348" y="10" clip-path="url(#clipPath4)" fill="none" width="149" height="49" />
      <text x="410" font-size="14" y="32" clip-path="url(#clipPath5)" stroke="none" xml:space="preserve">tom</text>
      <text x="370" font-size="14" y="49" clip-path="url(#clipPath6)" stroke="none" xml:space="preserve">: actCoordinator</text>
      <line clip-path="url(#clipPath7)" fill="none" x1="422" x2="422" y1="60" y2="840" stroke-dasharray="10,10" stroke-width="1.1" />
    </g>
    <g stroke-linecap="butt" font-size="9" fill="rgb(39,76,114)" stroke-dasharray="10,10" stroke="rgb(39,76,114)" stroke-width="1.1">
      <rect x="413" y="90" clip-path="url(#clipPath8)" width="20" height="40" stroke="none" />
      <rect x="413" y="90" clip-path="url(#clipPath8)" fill="none" width="19" stroke-dasharray="none" height="39" stroke-width="0.1" />
    </g>
    <g font-size="14" stroke-width="0.1" stroke-linecap="butt">
      <text xml:space="preserve" x="434" y="104" clip-path="url(#clipPath9)" stroke="none">out01</text>
      <rect x="413" y="570" clip-path="url(#clipPath10)" fill="rgb(39,76,114)" width="20" height="40" stroke="none" />
      <rect x="413" y="570" clip-path="url(#clipPath10)" fill="none" width="19" height="39" stroke="rgb(39,76,114)" />
      <text xml:space="preserve" x="434" y="584" clip-path="url(#clipPath11)" stroke="none">out05</text>
      <rect x="413" y="270" clip-path="url(#clipPath12)" fill="rgb(194,239,255)" width="20" height="40" stroke="none" />
      <rect x="413" y="270" clip-path="url(#clipPath12)" fill="none" width="19" height="39" stroke="rgb(194,239,255)" />
      <text xml:space="preserve" x="434" y="284" clip-path="url(#clipPath13)" stroke="none">in02</text>
      <rect x="413" y="390" clip-path="url(#clipPath14)" fill="rgb(194,239,255)" width="20" height="40" stroke="none" />
      <rect x="413" y="390" clip-path="url(#clipPath14)" fill="none" width="19" height="39" stroke="rgb(194,239,255)" />
      <text xml:space="preserve" x="434" y="404" clip-path="url(#clipPath15)" stroke="none">in03</text>
      <rect x="413" y="510" clip-path="url(#clipPath16)" fill="rgb(194,239,255)" width="20" height="40" stroke="none" />
      <rect x="413" y="510" clip-path="url(#clipPath16)" fill="none" width="19" height="39" stroke="rgb(194,239,255)" />
      <text xml:space="preserve" x="434" y="524" clip-path="url(#clipPath17)" stroke="none">in04</text>
      <rect x="413" y="750" clip-path="url(#clipPath18)" fill="rgb(194,239,255)" width="20" height="40" stroke="none" />
      <rect x="413" y="750" clip-path="url(#clipPath18)" fill="none" width="19" height="39" stroke="rgb(194,239,255)" />
      <text xml:space="preserve" x="434" y="764" clip-path="url(#clipPath19)" stroke="none">in06</text>
      <rect x="528" y="10" clip-path="url(#clipPath20)" fill="rgb(255,245,181)" width="150" height="50" stroke="none" />
      <rect x="528" y="10" clip-path="url(#clipPath20)" fill="none" width="149" height="49" />
      <text xml:space="preserve" x="589" y="32" clip-path="url(#clipPath21)" stroke="none">db1</text>
      <text xml:space="preserve" x="542" y="49" clip-path="url(#clipPath22)" stroke="none">: actMainDatabase</text>
      <line clip-path="url(#clipPath23)" fill="none" x1="602" x2="602" y1="60" y2="840" stroke-dasharray="10,10" stroke-width="1.1" />
    </g>
    <g stroke-linecap="butt" font-size="9" fill="rgb(39,76,114)" stroke-dasharray="10,10" stroke="rgb(39,76,114)" stroke-width="1.1">
      <rect x="593" y="210" clip-path="url(#clipPath24)" width="20" height="40" stroke="none" />
      <rect x="593" y="210" clip-path="url(#clipPath24)" fill="none" width="19" stroke-dasharray="none" height="39" stroke-width="0.1" />
    </g>
    <g font-size="14" stroke-width="0.1" stroke-linecap="butt">
      <text xml:space="preserve" x="614" y="224" clip-path="url(#clipPath25)" stroke="none">out02</text>
      <rect x="593" y="330" clip-path="url(#clipPath26)" fill="rgb(39,76,114)" width="20" height="40" stroke="none" />
      <rect x="593" y="330" clip-path="url(#clipPath26)" fill="none" width="19" height="39" stroke="rgb(39,76,114)" />
      <text xml:space="preserve" x="614" y="344" clip-path="url(#clipPath27)" stroke="none">out03</text>
      <rect x="593" y="450" clip-path="url(#clipPath28)" fill="rgb(39,76,114)" width="20" height="40" stroke="none" />
      <rect x="593" y="450" clip-path="url(#clipPath28)" fill="none" width="19" height="39" stroke="rgb(39,76,114)" />
      <text xml:space="preserve" x="614" y="464" clip-path="url(#clipPath29)" stroke="none">out04</text>
      <rect x="593" y="690" clip-path="url(#clipPath30)" fill="rgb(39,76,114)" width="20" height="40" stroke="none" />
      <rect x="593" y="690" clip-path="url(#clipPath30)" fill="none" width="19" height="39" stroke="rgb(39,76,114)" />
      <text xml:space="preserve" x="614" y="704" clip-path="url(#clipPath31)" stroke="none">out06</text>
      <rect x="593" y="150" clip-path="url(#clipPath32)" fill="rgb(194,239,255)" width="20" height="40" stroke="none" />
      <rect x="593" y="150" clip-path="url(#clipPath32)" fill="none" width="19" height="39" stroke="rgb(194,239,255)" />
      <text xml:space="preserve" x="614" y="164" clip-path="url(#clipPath33)" stroke="none">in01</text>
      <rect x="593" y="630" clip-path="url(#clipPath34)" fill="rgb(194,239,255)" width="20" height="40" stroke="none" />
      <rect x="593" y="630" clip-path="url(#clipPath34)" fill="none" width="19" height="39" stroke="rgb(194,239,255)" />
      <text xml:space="preserve" x="614" y="644" clip-path="url(#clipPath35)" stroke="none">in05</text>
      <line clip-path="url(#clipPath36)" fill="none" x1="413" x2="283" y1="89" y2="89" stroke="rgb(136,136,136)" stroke-width="2.1" />
      <text x="252" y="85" clip-path="url(#clipPath37)" stroke="none" stroke-width="2.1" xml:space="preserve">oeGetPendingHelpRequests()</text>
      <line clip-path="url(#clipPath38)" fill="none" x1="290" x2="283" y1="86" y2="89" stroke="rgb(136,136,136)" stroke-width="2.1" />
      <line clip-path="url(#clipPath38)" fill="none" x1="283" x2="290" y1="89" y2="92" stroke="rgb(136,136,136)" stroke-width="2.1" />
      <line clip-path="url(#clipPath36)" fill="none" x1="593" x2="283" y1="209" y2="209" stroke="rgb(136,136,136)" stroke-width="2.1" />
      <text x="268" y="205" clip-path="url(#clipPath39)" stroke="none" stroke-width="2.1" xml:space="preserve">oeSentPendingHelpRequest("12h40","661234567")</text>
      <line clip-path="url(#clipPath40)" fill="none" x1="290" x2="283" y1="206" y2="209" stroke="rgb(136,136,136)" stroke-width="2.1" />
      <line clip-path="url(#clipPath40)" fill="none" x1="283" x2="290" y1="209" y2="212" stroke="rgb(136,136,136)" stroke-width="2.1" />
      <line clip-path="url(#clipPath36)" fill="none" x1="593" x2="283" y1="329" y2="329" stroke="rgb(136,136,136)" stroke-width="2.1" />
      <text x="268" y="325" clip-path="url(#clipPath41)" stroke="none" stroke-width="2.1" xml:space="preserve">oeSentPendingHelpRequest("12h42","661234156")</text>
      <line clip-path="url(#clipPath42)" fill="none" x1="290" x2="283" y1="326" y2="329" stroke="rgb(136,136,136)" stroke-width="2.1" />
      <line clip-path="url(#clipPath42)" fill="none" x1="283" x2="290" y1="329" y2="332" stroke="rgb(136,136,136)" stroke-width="2.1" />
      <line clip-path="url(#clipPath36)" fill="none" x1="593" x2="283" y1="449" y2="449" stroke="rgb(136,136,136)" stroke-width="2.1" />
      <text x="268" y="445" clip-path="url(#clipPath43)" stroke="none" stroke-width="2.1" xml:space="preserve">oeSentPendingHelpRequest("12h48","691007221")</text>
      <line clip-path="url(#clipPath44)" fill="none" x1="290" x2="283" y1="446" y2="449" stroke="rgb(136,136,136)" stroke-width="2.1" />
      <line clip-path="url(#clipPath44)" fill="none" x1="283" x2="290" y1="449" y2="452" stroke="rgb(136,136,136)" stroke-width="2.1" />
      <line clip-path="url(#clipPath36)" fill="none" x1="413" x2="283" y1="569" y2="569" stroke="rgb(136,136,136)" stroke-width="2.1" />
      <text x="237" y="565" clip-path="url(#clipPath45)" stroke="none" stroke-width="2.1" xml:space="preserve">oeGetHelpRequestDetail("id : 32")</text>
      <line clip-path="url(#clipPath46)" fill="none" x1="290" x2="283" y1="566" y2="569" stroke="rgb(136,136,136)" stroke-width="2.1" />
      <line clip-path="url(#clipPath46)" fill="none" x1="283" x2="290" y1="569" y2="572" stroke="rgb(136,136,136)" stroke-width="2.1" />
      <line clip-path="url(#clipPath36)" fill="none" x1="593" x2="283" y1="689" y2="689" stroke="rgb(136,136,136)" stroke-width="2.1" />
      <text x="91" y="685" clip-path="url(#clipPath47)" stroke="none" stroke-width="2.1" xml:space="preserve">oeSendHRDetails("Paul Kremmer","6611726354","49.618416, 6.172678","1 rue de Cents - Luxembourg")</text>
      <line clip-path="url(#clipPath48)" fill="none" x1="290" x2="283" y1="686" y2="689" stroke="rgb(136,136,136)" stroke-width="2.1" />
      <line clip-path="url(#clipPath48)" fill="none" x1="283" x2="290" y1="689" y2="692" stroke="rgb(136,136,136)" stroke-width="2.1" />
    </g>
    <g stroke-linecap="butt" font-size="14" fill="rgb(136,136,136)" stroke-dasharray="5,5" stroke="rgb(136,136,136)" stroke-width="2.1">
      <line clip-path="url(#clipPath36)" fill="none" x1="593" x2="283" y1="149" y2="149" />
      <text x="344" y="145" clip-path="url(#clipPath49)" fill="black" stroke="none" xml:space="preserve">ieReqPendingHelpRequests()</text>
      <line clip-path="url(#clipPath50)" fill="none" x1="586" x2="593" y1="152" y2="149" stroke-dasharray="none" />
      <line clip-path="url(#clipPath50)" fill="none" x1="593" x2="586" y1="149" y2="146" stroke-dasharray="none" />
      <line clip-path="url(#clipPath36)" fill="none" x1="413" x2="283" y1="269" y2="269" />
      <text x="221" y="265" clip-path="url(#clipPath51)" fill="black" stroke="none" xml:space="preserve">ieSendPendingHR(12h40,661234567)</text>
      <line clip-path="url(#clipPath52)" fill="none" x1="406" x2="413" y1="272" y2="269" stroke-dasharray="none" />
      <line clip-path="url(#clipPath52)" fill="none" x1="413" x2="406" y1="269" y2="266" stroke-dasharray="none" />
      <line clip-path="url(#clipPath36)" fill="none" x1="413" x2="283" y1="389" y2="389" />
      <text x="221" y="385" clip-path="url(#clipPath53)" fill="black" stroke="none" xml:space="preserve">ieSendPendingHR(12h42,661234156)</text>
      <line clip-path="url(#clipPath54)" fill="none" x1="406" x2="413" y1="392" y2="389" stroke-dasharray="none" />
      <line clip-path="url(#clipPath54)" fill="none" x1="413" x2="406" y1="389" y2="386" stroke-dasharray="none" />
      <line clip-path="url(#clipPath36)" fill="none" x1="413" x2="283" y1="509" y2="509" />
      <text x="221" y="505" clip-path="url(#clipPath55)" fill="black" stroke="none" xml:space="preserve">ieSendPendingHR(12h48,691007221)</text>
      <line clip-path="url(#clipPath56)" fill="none" x1="406" x2="413" y1="512" y2="509" stroke-dasharray="none" />
      <line clip-path="url(#clipPath56)" fill="none" x1="413" x2="406" y1="509" y2="506" stroke-dasharray="none" />
      <line clip-path="url(#clipPath36)" fill="none" x1="593" x2="283" y1="629" y2="629" />
      <text x="359" y="625" clip-path="url(#clipPath57)" fill="black" stroke="none" xml:space="preserve">ieRequHRDetails(id : 32)</text>
      <line clip-path="url(#clipPath58)" fill="none" x1="586" x2="593" y1="632" y2="629" stroke-dasharray="none" />
      <line clip-path="url(#clipPath58)" fill="none" x1="593" x2="586" y1="629" y2="626" stroke-dasharray="none" />
      <line clip-path="url(#clipPath36)" fill="none" x1="413" x2="283" y1="749" y2="749" />
      <text x="24" y="745" clip-path="url(#clipPath59)" fill="black" stroke="none" xml:space="preserve">ieRequHRDetails(Paul Kremmer,6611726354,49.618416, 6.172678,1 rue de Cents - Luxembourg)</text>
      <line clip-path="url(#clipPath60)" fill="none" x1="406" x2="413" y1="752" y2="749" stroke-dasharray="none" />
      <line clip-path="url(#clipPath60)" fill="none" x1="413" x2="406" y1="749" y2="746" stroke-dasharray="none" />
    </g>
  </g>
</svg>

