<?xml version="1.0" encoding="UTF-8"?>
<svg xmlns="http://www.w3.org/2000/svg" xmlns:xlink="http://www.w3.org/1999/xlink" stroke-dasharray="none" shape-rendering="auto" font-family="'Dialog'" width="823" text-rendering="auto" fill-opacity="1" contentScriptType="text/ecmascript" color-interpolation="auto" color-rendering="auto" preserveAspectRatio="xMidYMid meet" font-size="12" viewBox="0 0 823 850" fill="black" stroke="black" image-rendering="auto" stroke-miterlimit="10" zoomAndPan="magnify" version="1.0" stroke-linecap="square" stroke-linejoin="miter" contentStyleType="text/css" font-style="normal" height="850" stroke-width="1" stroke-dashoffset="0" font-weight="normal" stroke-opacity="1">
  <!--Generated by the Batik Graphics2D SVG Generator-->
  <defs id="genericDefs" />
  <g>
    <defs id="defs1">
      <clipPath clipPathUnits="userSpaceOnUse" id="clipPath1">
        <path d="M252 9 L324 9 L324 41 L252 41 L252 9 Z" />
      </clipPath>
      <clipPath clipPathUnits="userSpaceOnUse" id="clipPath2">
        <path d="M252 9 L328 9 L328 41 L252 41 L252 9 Z" />
      </clipPath>
      <clipPath clipPathUnits="userSpaceOnUse" id="clipPath3">
        <path d="M282 39 L294 39 L294 841 L282 841 L282 39 Z" />
      </clipPath>
      <clipPath clipPathUnits="userSpaceOnUse" id="clipPath4">
        <path d="M352 9 L504 9 L504 61 L352 61 L352 9 Z" />
      </clipPath>
      <clipPath clipPathUnits="userSpaceOnUse" id="clipPath5">
        <path d="M352 9 L508 9 L508 61 L352 61 L352 9 Z" />
      </clipPath>
      <clipPath clipPathUnits="userSpaceOnUse" id="clipPath6">
        <path d="M352 9 L507 9 L507 61 L352 61 L352 9 Z" />
      </clipPath>
      <clipPath clipPathUnits="userSpaceOnUse" id="clipPath7">
        <path d="M422 59 L434 59 L434 841 L422 841 L422 59 Z" />
      </clipPath>
      <clipPath clipPathUnits="userSpaceOnUse" id="clipPath8">
        <path d="M417 89 L439 89 L439 131 L417 131 L417 89 Z" />
      </clipPath>
      <clipPath clipPathUnits="userSpaceOnUse" id="clipPath9">
        <path d="M438 89 L482 89 L482 108 L438 108 L438 89 Z" />
      </clipPath>
      <clipPath clipPathUnits="userSpaceOnUse" id="clipPath10">
        <path d="M417 569 L439 569 L439 611 L417 611 L417 569 Z" />
      </clipPath>
      <clipPath clipPathUnits="userSpaceOnUse" id="clipPath11">
        <path d="M438 569 L482 569 L482 588 L438 588 L438 569 Z" />
      </clipPath>
      <clipPath clipPathUnits="userSpaceOnUse" id="clipPath12">
        <path d="M417 269 L439 269 L439 311 L417 311 L417 269 Z" />
      </clipPath>
      <clipPath clipPathUnits="userSpaceOnUse" id="clipPath13">
        <path d="M438 269 L472 269 L472 288 L438 288 L438 269 Z" />
      </clipPath>
      <clipPath clipPathUnits="userSpaceOnUse" id="clipPath14">
        <path d="M417 389 L439 389 L439 431 L417 431 L417 389 Z" />
      </clipPath>
      <clipPath clipPathUnits="userSpaceOnUse" id="clipPath15">
        <path d="M438 389 L472 389 L472 408 L438 408 L438 389 Z" />
      </clipPath>
      <clipPath clipPathUnits="userSpaceOnUse" id="clipPath16">
        <path d="M417 509 L439 509 L439 551 L417 551 L417 509 Z" />
      </clipPath>
      <clipPath clipPathUnits="userSpaceOnUse" id="clipPath17">
        <path d="M438 509 L472 509 L472 528 L438 528 L438 509 Z" />
      </clipPath>
      <clipPath clipPathUnits="userSpaceOnUse" id="clipPath18">
        <path d="M417 749 L439 749 L439 791 L417 791 L417 749 Z" />
      </clipPath>
      <clipPath clipPathUnits="userSpaceOnUse" id="clipPath19">
        <path d="M438 749 L472 749 L472 768 L438 768 L438 749 Z" />
      </clipPath>
      <clipPath clipPathUnits="userSpaceOnUse" id="clipPath20">
        <path d="M532 9 L684 9 L684 61 L532 61 L532 9 Z" />
      </clipPath>
      <clipPath clipPathUnits="userSpaceOnUse" id="clipPath21">
        <path d="M532 9 L688 9 L688 61 L532 61 L532 9 Z" />
      </clipPath>
      <clipPath clipPathUnits="userSpaceOnUse" id="clipPath22">
        <path d="M532 9 L687 9 L687 61 L532 61 L532 9 Z" />
      </clipPath>
      <clipPath clipPathUnits="userSpaceOnUse" id="clipPath23">
        <path d="M602 59 L614 59 L614 841 L602 841 L602 59 Z" />
      </clipPath>
      <clipPath clipPathUnits="userSpaceOnUse" id="clipPath24">
        <path d="M597 209 L619 209 L619 251 L597 251 L597 209 Z" />
      </clipPath>
      <clipPath clipPathUnits="userSpaceOnUse" id="clipPath25">
        <path d="M618 209 L662 209 L662 228 L618 228 L618 209 Z" />
      </clipPath>
      <clipPath clipPathUnits="userSpaceOnUse" id="clipPath26">
        <path d="M597 329 L619 329 L619 371 L597 371 L597 329 Z" />
      </clipPath>
      <clipPath clipPathUnits="userSpaceOnUse" id="clipPath27">
        <path d="M618 329 L662 329 L662 348 L618 348 L618 329 Z" />
      </clipPath>
      <clipPath clipPathUnits="userSpaceOnUse" id="clipPath28">
        <path d="M597 449 L619 449 L619 491 L597 491 L597 449 Z" />
      </clipPath>
      <clipPath clipPathUnits="userSpaceOnUse" id="clipPath29">
        <path d="M618 449 L662 449 L662 468 L618 468 L618 449 Z" />
      </clipPath>
      <clipPath clipPathUnits="userSpaceOnUse" id="clipPath30">
        <path d="M597 689 L619 689 L619 731 L597 731 L597 689 Z" />
      </clipPath>
      <clipPath clipPathUnits="userSpaceOnUse" id="clipPath31">
        <path d="M618 689 L662 689 L662 708 L618 708 L618 689 Z" />
      </clipPath>
      <clipPath clipPathUnits="userSpaceOnUse" id="clipPath32">
        <path d="M597 149 L619 149 L619 191 L597 191 L597 149 Z" />
      </clipPath>
      <clipPath clipPathUnits="userSpaceOnUse" id="clipPath33">
        <path d="M618 149 L652 149 L652 168 L618 168 L618 149 Z" />
      </clipPath>
      <clipPath clipPathUnits="userSpaceOnUse" id="clipPath34">
        <path d="M597 629 L619 629 L619 671 L597 671 L597 629 Z" />
      </clipPath>
      <clipPath clipPathUnits="userSpaceOnUse" id="clipPath35">
        <path d="M618 629 L652 629 L652 648 L618 648 L618 629 Z" />
      </clipPath>
      <clipPath clipPathUnits="userSpaceOnUse" id="clipPath36">
        <path d="M-1 -1 L824 -1 L824 851 L-1 851 L-1 -1 Z" />
      </clipPath>
      <clipPath clipPathUnits="userSpaceOnUse" id="clipPath37">
        <path d="M255 70 L455 70 L455 89 L255 89 L255 70 Z" />
      </clipPath>
      <clipPath clipPathUnits="userSpaceOnUse" id="clipPath38">
        <path d="M286 84 L298 84 L298 95 L286 95 L286 84 Z" />
      </clipPath>
      <clipPath clipPathUnits="userSpaceOnUse" id="clipPath39">
        <path d="M268 190 L621 190 L621 209 L268 209 L268 190 Z" />
      </clipPath>
      <clipPath clipPathUnits="userSpaceOnUse" id="clipPath40">
        <path d="M286 204 L298 204 L298 215 L286 215 L286 204 Z" />
      </clipPath>
      <clipPath clipPathUnits="userSpaceOnUse" id="clipPath41">
        <path d="M268 310 L621 310 L621 329 L268 329 L268 310 Z" />
      </clipPath>
      <clipPath clipPathUnits="userSpaceOnUse" id="clipPath42">
        <path d="M286 324 L298 324 L298 335 L286 335 L286 324 Z" />
      </clipPath>
      <clipPath clipPathUnits="userSpaceOnUse" id="clipPath43">
        <path d="M268 430 L621 430 L621 449 L268 449 L268 430 Z" />
      </clipPath>
      <clipPath clipPathUnits="userSpaceOnUse" id="clipPath44">
        <path d="M286 444 L298 444 L298 455 L286 455 L286 444 Z" />
      </clipPath>
      <clipPath clipPathUnits="userSpaceOnUse" id="clipPath45">
        <path d="M239 550 L470 550 L470 569 L239 569 L239 550 Z" />
      </clipPath>
      <clipPath clipPathUnits="userSpaceOnUse" id="clipPath46">
        <path d="M286 564 L298 564 L298 575 L286 575 L286 564 Z" />
      </clipPath>
      <clipPath clipPathUnits="userSpaceOnUse" id="clipPath47">
        <path d="M87 670 L803 670 L803 689 L87 689 L87 670 Z" />
      </clipPath>
      <clipPath clipPathUnits="userSpaceOnUse" id="clipPath48">
        <path d="M286 684 L298 684 L298 695 L286 695 L286 684 Z" />
      </clipPath>
      <clipPath clipPathUnits="userSpaceOnUse" id="clipPath49">
        <path d="M346 130 L544 130 L544 149 L346 149 L346 130 Z" />
      </clipPath>
      <clipPath clipPathUnits="userSpaceOnUse" id="clipPath50">
        <path d="M589 144 L601 144 L601 155 L589 155 L589 144 Z" />
      </clipPath>
      <clipPath clipPathUnits="userSpaceOnUse" id="clipPath51">
        <path d="M224 250 L487 250 L487 269 L224 269 L224 250 Z" />
      </clipPath>
      <clipPath clipPathUnits="userSpaceOnUse" id="clipPath52">
        <path d="M409 264 L421 264 L421 275 L409 275 L409 264 Z" />
      </clipPath>
      <clipPath clipPathUnits="userSpaceOnUse" id="clipPath53">
        <path d="M224 370 L487 370 L487 389 L224 389 L224 370 Z" />
      </clipPath>
      <clipPath clipPathUnits="userSpaceOnUse" id="clipPath54">
        <path d="M409 384 L421 384 L421 395 L409 395 L409 384 Z" />
      </clipPath>
      <clipPath clipPathUnits="userSpaceOnUse" id="clipPath55">
        <path d="M224 490 L487 490 L487 509 L224 509 L224 490 Z" />
      </clipPath>
      <clipPath clipPathUnits="userSpaceOnUse" id="clipPath56">
        <path d="M409 504 L421 504 L421 515 L409 515 L409 504 Z" />
      </clipPath>
      <clipPath clipPathUnits="userSpaceOnUse" id="clipPath57">
        <path d="M362 610 L528 610 L528 629 L362 629 L362 610 Z" />
      </clipPath>
      <clipPath clipPathUnits="userSpaceOnUse" id="clipPath58">
        <path d="M589 624 L601 624 L601 635 L589 635 L589 624 Z" />
      </clipPath>
      <clipPath clipPathUnits="userSpaceOnUse" id="clipPath59">
        <path d="M23 730 L686 730 L686 749 L23 749 L23 730 Z" />
      </clipPath>
      <clipPath clipPathUnits="userSpaceOnUse" id="clipPath60">
        <path d="M409 744 L421 744 L421 755 L409 755 L409 744 Z" />
      </clipPath>
    </defs>
    <g font-size="9" fill="rgb(238,201,142)" stroke-linejoin="round" stroke="rgb(238,201,142)" stroke-width="0" stroke-miterlimit="0">
      <rect x="253" y="10" clip-path="url(#clipPath1)" width="70" height="30" stroke="none" />
    </g>
    <g font-size="9" stroke-width="0.1" stroke-linecap="butt">
      <rect x="253" y="10" clip-path="url(#clipPath1)" fill="none" width="69" height="29" />
      <text x="263" font-size="14" y="30" clip-path="url(#clipPath2)" stroke="none" xml:space="preserve">System</text>
      <line clip-path="url(#clipPath3)" fill="none" x1="287" x2="287" y1="40" y2="840" stroke-dasharray="10,10" stroke-width="1.1" />
    </g>
    <g stroke-linecap="butt" font-size="9" fill="rgb(255,245,181)" stroke-dasharray="10,10" stroke="rgb(255,245,181)" stroke-width="1.1">
      <rect x="353" y="10" clip-path="url(#clipPath4)" width="150" height="50" stroke="none" />
    </g>
    <g font-size="9" stroke-width="0.1" stroke-linecap="butt">
      <rect x="353" y="10" clip-path="url(#clipPath4)" fill="none" width="149" height="49" />
      <text x="415" font-size="14" y="32" clip-path="url(#clipPath5)" stroke="none" xml:space="preserve">tom</text>
      <text x="375" font-size="14" y="49" clip-path="url(#clipPath6)" stroke="none" xml:space="preserve">: actCoordinator</text>
      <line clip-path="url(#clipPath7)" fill="none" x1="427" x2="427" y1="60" y2="840" stroke-dasharray="10,10" stroke-width="1.1" />
    </g>
    <g stroke-linecap="butt" font-size="9" fill="rgb(39,76,114)" stroke-dasharray="10,10" stroke="rgb(39,76,114)" stroke-width="1.1">
      <rect x="418" y="90" clip-path="url(#clipPath8)" width="20" height="40" stroke="none" />
      <rect x="418" y="90" clip-path="url(#clipPath8)" fill="none" width="19" stroke-dasharray="none" height="39" stroke-width="0.1" />
    </g>
    <g font-size="14" stroke-width="0.1" stroke-linecap="butt">
      <text xml:space="preserve" x="439" y="104" clip-path="url(#clipPath9)" stroke="none">out01</text>
      <rect x="418" y="570" clip-path="url(#clipPath10)" fill="rgb(39,76,114)" width="20" height="40" stroke="none" />
      <rect x="418" y="570" clip-path="url(#clipPath10)" fill="none" width="19" height="39" stroke="rgb(39,76,114)" />
      <text xml:space="preserve" x="439" y="584" clip-path="url(#clipPath11)" stroke="none">out05</text>
      <rect x="418" y="270" clip-path="url(#clipPath12)" fill="rgb(194,239,255)" width="20" height="40" stroke="none" />
      <rect x="418" y="270" clip-path="url(#clipPath12)" fill="none" width="19" height="39" stroke="rgb(194,239,255)" />
      <text xml:space="preserve" x="439" y="284" clip-path="url(#clipPath13)" stroke="none">in02</text>
      <rect x="418" y="390" clip-path="url(#clipPath14)" fill="rgb(194,239,255)" width="20" height="40" stroke="none" />
      <rect x="418" y="390" clip-path="url(#clipPath14)" fill="none" width="19" height="39" stroke="rgb(194,239,255)" />
      <text xml:space="preserve" x="439" y="404" clip-path="url(#clipPath15)" stroke="none">in03</text>
      <rect x="418" y="510" clip-path="url(#clipPath16)" fill="rgb(194,239,255)" width="20" height="40" stroke="none" />
      <rect x="418" y="510" clip-path="url(#clipPath16)" fill="none" width="19" height="39" stroke="rgb(194,239,255)" />
      <text xml:space="preserve" x="439" y="524" clip-path="url(#clipPath17)" stroke="none">in04</text>
      <rect x="418" y="750" clip-path="url(#clipPath18)" fill="rgb(194,239,255)" width="20" height="40" stroke="none" />
      <rect x="418" y="750" clip-path="url(#clipPath18)" fill="none" width="19" height="39" stroke="rgb(194,239,255)" />
      <text xml:space="preserve" x="439" y="764" clip-path="url(#clipPath19)" stroke="none">in06</text>
      <rect x="533" y="10" clip-path="url(#clipPath20)" fill="rgb(255,245,181)" width="150" height="50" stroke="none" />
      <rect x="533" y="10" clip-path="url(#clipPath20)" fill="none" width="149" height="49" />
      <text xml:space="preserve" x="594" y="32" clip-path="url(#clipPath21)" stroke="none">db1</text>
      <text xml:space="preserve" x="546" y="49" clip-path="url(#clipPath22)" stroke="none">: actMainDatabase</text>
      <line clip-path="url(#clipPath23)" fill="none" x1="607" x2="607" y1="60" y2="840" stroke-dasharray="10,10" stroke-width="1.1" />
    </g>
    <g stroke-linecap="butt" font-size="9" fill="rgb(39,76,114)" stroke-dasharray="10,10" stroke="rgb(39,76,114)" stroke-width="1.1">
      <rect x="598" y="210" clip-path="url(#clipPath24)" width="20" height="40" stroke="none" />
      <rect x="598" y="210" clip-path="url(#clipPath24)" fill="none" width="19" stroke-dasharray="none" height="39" stroke-width="0.1" />
    </g>
    <g font-size="14" stroke-width="0.1" stroke-linecap="butt">
      <text xml:space="preserve" x="619" y="224" clip-path="url(#clipPath25)" stroke="none">out02</text>
      <rect x="598" y="330" clip-path="url(#clipPath26)" fill="rgb(39,76,114)" width="20" height="40" stroke="none" />
      <rect x="598" y="330" clip-path="url(#clipPath26)" fill="none" width="19" height="39" stroke="rgb(39,76,114)" />
      <text xml:space="preserve" x="619" y="344" clip-path="url(#clipPath27)" stroke="none">out03</text>
      <rect x="598" y="450" clip-path="url(#clipPath28)" fill="rgb(39,76,114)" width="20" height="40" stroke="none" />
      <rect x="598" y="450" clip-path="url(#clipPath28)" fill="none" width="19" height="39" stroke="rgb(39,76,114)" />
      <text xml:space="preserve" x="619" y="464" clip-path="url(#clipPath29)" stroke="none">out04</text>
      <rect x="598" y="690" clip-path="url(#clipPath30)" fill="rgb(39,76,114)" width="20" height="40" stroke="none" />
      <rect x="598" y="690" clip-path="url(#clipPath30)" fill="none" width="19" height="39" stroke="rgb(39,76,114)" />
      <text xml:space="preserve" x="619" y="704" clip-path="url(#clipPath31)" stroke="none">out06</text>
      <rect x="598" y="150" clip-path="url(#clipPath32)" fill="rgb(194,239,255)" width="20" height="40" stroke="none" />
      <rect x="598" y="150" clip-path="url(#clipPath32)" fill="none" width="19" height="39" stroke="rgb(194,239,255)" />
      <text xml:space="preserve" x="619" y="164" clip-path="url(#clipPath33)" stroke="none">in01</text>
      <rect x="598" y="630" clip-path="url(#clipPath34)" fill="rgb(194,239,255)" width="20" height="40" stroke="none" />
      <rect x="598" y="630" clip-path="url(#clipPath34)" fill="none" width="19" height="39" stroke="rgb(194,239,255)" />
      <text xml:space="preserve" x="619" y="644" clip-path="url(#clipPath35)" stroke="none">in05</text>
      <line clip-path="url(#clipPath36)" fill="none" x1="418" x2="288" y1="89" y2="89" stroke="rgb(136,136,136)" stroke-width="2.1" />
      <text x="256" y="85" clip-path="url(#clipPath37)" stroke="none" stroke-width="2.1" xml:space="preserve">oeGetPendingHelpRequests()</text>
      <line clip-path="url(#clipPath38)" fill="none" x1="295" x2="288" y1="86" y2="89" stroke="rgb(136,136,136)" stroke-width="2.1" />
      <line clip-path="url(#clipPath38)" fill="none" x1="288" x2="295" y1="89" y2="92" stroke="rgb(136,136,136)" stroke-width="2.1" />
      <line clip-path="url(#clipPath36)" fill="none" x1="598" x2="288" y1="209" y2="209" stroke="rgb(136,136,136)" stroke-width="2.1" />
      <text x="269" y="205" clip-path="url(#clipPath39)" stroke="none" stroke-width="2.1" xml:space="preserve">oeSentPendingHelpRequest("12h40","661234567")</text>
      <line clip-path="url(#clipPath40)" fill="none" x1="295" x2="288" y1="206" y2="209" stroke="rgb(136,136,136)" stroke-width="2.1" />
      <line clip-path="url(#clipPath40)" fill="none" x1="288" x2="295" y1="209" y2="212" stroke="rgb(136,136,136)" stroke-width="2.1" />
      <line clip-path="url(#clipPath36)" fill="none" x1="598" x2="288" y1="329" y2="329" stroke="rgb(136,136,136)" stroke-width="2.1" />
      <text x="269" y="325" clip-path="url(#clipPath41)" stroke="none" stroke-width="2.1" xml:space="preserve">oeSentPendingHelpRequest("12h42","661234156")</text>
      <line clip-path="url(#clipPath42)" fill="none" x1="295" x2="288" y1="326" y2="329" stroke="rgb(136,136,136)" stroke-width="2.1" />
      <line clip-path="url(#clipPath42)" fill="none" x1="288" x2="295" y1="329" y2="332" stroke="rgb(136,136,136)" stroke-width="2.1" />
      <line clip-path="url(#clipPath36)" fill="none" x1="598" x2="288" y1="449" y2="449" stroke="rgb(136,136,136)" stroke-width="2.1" />
      <text x="269" y="445" clip-path="url(#clipPath43)" stroke="none" stroke-width="2.1" xml:space="preserve">oeSentPendingHelpRequest("12h48","691007221")</text>
      <line clip-path="url(#clipPath44)" fill="none" x1="295" x2="288" y1="446" y2="449" stroke="rgb(136,136,136)" stroke-width="2.1" />
      <line clip-path="url(#clipPath44)" fill="none" x1="288" x2="295" y1="449" y2="452" stroke="rgb(136,136,136)" stroke-width="2.1" />
      <line clip-path="url(#clipPath36)" fill="none" x1="418" x2="288" y1="569" y2="569" stroke="rgb(136,136,136)" stroke-width="2.1" />
      <text x="240" y="565" clip-path="url(#clipPath45)" stroke="none" stroke-width="2.1" xml:space="preserve">oeGetHelpRequestDetail("id : 32")</text>
      <line clip-path="url(#clipPath46)" fill="none" x1="295" x2="288" y1="566" y2="569" stroke="rgb(136,136,136)" stroke-width="2.1" />
      <line clip-path="url(#clipPath46)" fill="none" x1="288" x2="295" y1="569" y2="572" stroke="rgb(136,136,136)" stroke-width="2.1" />
      <line clip-path="url(#clipPath36)" fill="none" x1="598" x2="288" y1="689" y2="689" stroke="rgb(136,136,136)" stroke-width="2.1" />
      <text x="88" y="685" clip-path="url(#clipPath47)" stroke="none" stroke-width="2.1" xml:space="preserve">oeSendHRDetails("Paul Kremmer","6611726354","49.618416, 6.172678","1 rue de Cents - Luxembourg")</text>
      <line clip-path="url(#clipPath48)" fill="none" x1="295" x2="288" y1="686" y2="689" stroke="rgb(136,136,136)" stroke-width="2.1" />
      <line clip-path="url(#clipPath48)" fill="none" x1="288" x2="295" y1="689" y2="692" stroke="rgb(136,136,136)" stroke-width="2.1" />
    </g>
    <g stroke-linecap="butt" font-size="14" fill="rgb(136,136,136)" stroke-dasharray="5,5" stroke="rgb(136,136,136)" stroke-width="2.1">
      <line clip-path="url(#clipPath36)" fill="none" x1="598" x2="288" y1="149" y2="149" />
      <text x="347" y="145" clip-path="url(#clipPath49)" fill="black" stroke="none" xml:space="preserve">ieReqPendingHelpRequests()</text>
      <line clip-path="url(#clipPath50)" fill="none" x1="591" x2="598" y1="152" y2="149" stroke-dasharray="none" />
      <line clip-path="url(#clipPath50)" fill="none" x1="598" x2="591" y1="149" y2="146" stroke-dasharray="none" />
      <line clip-path="url(#clipPath36)" fill="none" x1="418" x2="288" y1="269" y2="269" />
      <text x="225" y="265" clip-path="url(#clipPath51)" fill="black" stroke="none" xml:space="preserve">ieSendPendingHR(12h40,661234567)</text>
      <line clip-path="url(#clipPath52)" fill="none" x1="411" x2="418" y1="272" y2="269" stroke-dasharray="none" />
      <line clip-path="url(#clipPath52)" fill="none" x1="418" x2="411" y1="269" y2="266" stroke-dasharray="none" />
      <line clip-path="url(#clipPath36)" fill="none" x1="418" x2="288" y1="389" y2="389" />
      <text x="225" y="385" clip-path="url(#clipPath53)" fill="black" stroke="none" xml:space="preserve">ieSendPendingHR(12h42,661234156)</text>
      <line clip-path="url(#clipPath54)" fill="none" x1="411" x2="418" y1="392" y2="389" stroke-dasharray="none" />
      <line clip-path="url(#clipPath54)" fill="none" x1="418" x2="411" y1="389" y2="386" stroke-dasharray="none" />
      <line clip-path="url(#clipPath36)" fill="none" x1="418" x2="288" y1="509" y2="509" />
      <text x="225" y="505" clip-path="url(#clipPath55)" fill="black" stroke="none" xml:space="preserve">ieSendPendingHR(12h48,691007221)</text>
      <line clip-path="url(#clipPath56)" fill="none" x1="411" x2="418" y1="512" y2="509" stroke-dasharray="none" />
      <line clip-path="url(#clipPath56)" fill="none" x1="418" x2="411" y1="509" y2="506" stroke-dasharray="none" />
      <line clip-path="url(#clipPath36)" fill="none" x1="598" x2="288" y1="629" y2="629" />
      <text x="363" y="625" clip-path="url(#clipPath57)" fill="black" stroke="none" xml:space="preserve">ieRequHRDetails(id : 32)</text>
      <line clip-path="url(#clipPath58)" fill="none" x1="591" x2="598" y1="632" y2="629" stroke-dasharray="none" />
      <line clip-path="url(#clipPath58)" fill="none" x1="598" x2="591" y1="629" y2="626" stroke-dasharray="none" />
      <line clip-path="url(#clipPath36)" fill="none" x1="418" x2="288" y1="749" y2="749" />
      <text x="24" y="745" clip-path="url(#clipPath59)" fill="black" stroke="none" xml:space="preserve">ieRequHRDetails(Paul Kremmer,6611726354,49.618416, 6.172678,1 rue de Cents - Luxembourg)</text>
      <line clip-path="url(#clipPath60)" fill="none" x1="411" x2="418" y1="752" y2="749" stroke-dasharray="none" />
      <line clip-path="url(#clipPath60)" fill="none" x1="418" x2="411" y1="749" y2="746" stroke-dasharray="none" />
    </g>
  </g>
</svg>

