<?xml version="1.0" encoding="UTF-8"?>
<svg xmlns="http://www.w3.org/2000/svg" xmlns:xlink="http://www.w3.org/1999/xlink" stroke-dasharray="none" shape-rendering="auto" font-family="'Dialog'" width="753" text-rendering="auto" fill-opacity="1" contentScriptType="text/ecmascript" color-interpolation="auto" color-rendering="auto" preserveAspectRatio="xMidYMid meet" font-size="12" viewBox="0 0 753 850" fill="black" stroke="black" image-rendering="auto" stroke-miterlimit="10" zoomAndPan="magnify" version="1.0" stroke-linecap="square" stroke-linejoin="miter" contentStyleType="text/css" font-style="normal" height="850" stroke-width="1" stroke-dashoffset="0" font-weight="normal" stroke-opacity="1">
  <!--Generated by the Batik Graphics2D SVG Generator-->
  <defs id="genericDefs" />
  <g>
    <defs id="defs1">
      <clipPath clipPathUnits="userSpaceOnUse" id="clipPath1">
        <path d="M118 9 L190 9 L190 41 L118 41 L118 9 Z" />
      </clipPath>
      <clipPath clipPathUnits="userSpaceOnUse" id="clipPath2">
        <path d="M118 9 L194 9 L194 41 L118 41 L118 9 Z" />
      </clipPath>
      <clipPath clipPathUnits="userSpaceOnUse" id="clipPath3">
        <path d="M148 39 L160 39 L160 841 L148 841 L148 39 Z" />
      </clipPath>
      <clipPath clipPathUnits="userSpaceOnUse" id="clipPath4">
        <path d="M533 9 L685 9 L685 61 L533 61 L533 9 Z" />
      </clipPath>
      <clipPath clipPathUnits="userSpaceOnUse" id="clipPath5">
        <path d="M533 9 L689 9 L689 61 L533 61 L533 9 Z" />
      </clipPath>
      <clipPath clipPathUnits="userSpaceOnUse" id="clipPath6">
        <path d="M533 9 L688 9 L688 61 L533 61 L533 9 Z" />
      </clipPath>
      <clipPath clipPathUnits="userSpaceOnUse" id="clipPath7">
        <path d="M603 59 L615 59 L615 841 L603 841 L603 59 Z" />
      </clipPath>
      <clipPath clipPathUnits="userSpaceOnUse" id="clipPath8">
        <path d="M598 89 L620 89 L620 131 L598 131 L598 89 Z" />
      </clipPath>
      <clipPath clipPathUnits="userSpaceOnUse" id="clipPath9">
        <path d="M619 89 L663 89 L663 108 L619 108 L619 89 Z" />
      </clipPath>
      <clipPath clipPathUnits="userSpaceOnUse" id="clipPath10">
        <path d="M598 344 L620 344 L620 386 L598 386 L598 344 Z" />
      </clipPath>
      <clipPath clipPathUnits="userSpaceOnUse" id="clipPath11">
        <path d="M619 344 L654 344 L654 363 L619 363 L619 344 Z" />
      </clipPath>
      <clipPath clipPathUnits="userSpaceOnUse" id="clipPath12">
        <path d="M598 284 L620 284 L620 326 L598 326 L598 284 Z" />
      </clipPath>
      <clipPath clipPathUnits="userSpaceOnUse" id="clipPath13">
        <path d="M619 284 L663 284 L663 303 L619 303 L619 284 Z" />
      </clipPath>
      <clipPath clipPathUnits="userSpaceOnUse" id="clipPath14">
        <path d="M598 149 L620 149 L620 191 L598 191 L598 149 Z" />
      </clipPath>
      <clipPath clipPathUnits="userSpaceOnUse" id="clipPath15">
        <path d="M619 149 L654 149 L654 168 L619 168 L619 149 Z" />
      </clipPath>
      <clipPath clipPathUnits="userSpaceOnUse" id="clipPath16">
        <path d="M598 194 L620 194 L620 236 L598 236 L598 194 Z" />
      </clipPath>
      <clipPath clipPathUnits="userSpaceOnUse" id="clipPath17">
        <path d="M619 194 L654 194 L654 213 L619 213 L619 194 Z" />
      </clipPath>
      <clipPath clipPathUnits="userSpaceOnUse" id="clipPath18">
        <path d="M598 239 L620 239 L620 281 L598 281 L598 239 Z" />
      </clipPath>
      <clipPath clipPathUnits="userSpaceOnUse" id="clipPath19">
        <path d="M619 239 L654 239 L654 258 L619 258 L619 239 Z" />
      </clipPath>
      <clipPath clipPathUnits="userSpaceOnUse" id="clipPath20">
        <path d="M-1 -1 L754 -1 L754 851 L-1 851 L-1 -1 Z" />
      </clipPath>
      <clipPath clipPathUnits="userSpaceOnUse" id="clipPath21">
        <path d="M279 70 L476 70 L476 89 L279 89 L279 70 Z" />
      </clipPath>
      <clipPath clipPathUnits="userSpaceOnUse" id="clipPath22">
        <path d="M152 84 L164 84 L164 95 L152 95 L152 84 Z" />
      </clipPath>
      <clipPath clipPathUnits="userSpaceOnUse" id="clipPath23">
        <path d="M23 325 L733 325 L733 344 L23 344 L23 325 Z" />
      </clipPath>
      <clipPath clipPathUnits="userSpaceOnUse" id="clipPath24">
        <path d="M590 339 L602 339 L602 350 L590 350 L590 339 Z" />
      </clipPath>
      <clipPath clipPathUnits="userSpaceOnUse" id="clipPath25">
        <path d="M264 266 L491 266 L491 285 L264 285 L264 266 Z" />
      </clipPath>
      <clipPath clipPathUnits="userSpaceOnUse" id="clipPath26">
        <path d="M152 280 L164 280 L164 291 L152 291 L152 280 Z" />
      </clipPath>
      <clipPath clipPathUnits="userSpaceOnUse" id="clipPath27">
        <path d="M248 131 L507 131 L507 150 L248 150 L248 131 Z" />
      </clipPath>
      <clipPath clipPathUnits="userSpaceOnUse" id="clipPath28">
        <path d="M590 145 L602 145 L602 156 L590 156 L590 145 Z" />
      </clipPath>
      <clipPath clipPathUnits="userSpaceOnUse" id="clipPath29">
        <path d="M248 176 L507 176 L507 195 L248 195 L248 176 Z" />
      </clipPath>
      <clipPath clipPathUnits="userSpaceOnUse" id="clipPath30">
        <path d="M590 190 L602 190 L602 201 L590 201 L590 190 Z" />
      </clipPath>
      <clipPath clipPathUnits="userSpaceOnUse" id="clipPath31">
        <path d="M248 221 L507 221 L507 240 L248 240 L248 221 Z" />
      </clipPath>
      <clipPath clipPathUnits="userSpaceOnUse" id="clipPath32">
        <path d="M590 235 L602 235 L602 246 L590 246 L590 235 Z" />
      </clipPath>
    </defs>
    <g font-size="9" fill="rgb(238,201,142)" stroke-linejoin="round" stroke="rgb(238,201,142)" stroke-width="0" stroke-miterlimit="0">
      <rect x="119" y="10" clip-path="url(#clipPath1)" width="70" height="30" stroke="none" />
    </g>
    <g font-size="9" stroke-width="0.1" stroke-linecap="butt">
      <rect x="119" y="10" clip-path="url(#clipPath1)" fill="none" width="69" height="29" />
      <text x="130" font-size="14" y="30" clip-path="url(#clipPath2)" stroke="none" xml:space="preserve">System</text>
      <line clip-path="url(#clipPath3)" fill="none" x1="153" x2="153" y1="40" y2="840" stroke-dasharray="10,10" stroke-width="1.1" />
    </g>
    <g stroke-linecap="butt" font-size="9" fill="rgb(255,245,181)" stroke-dasharray="10,10" stroke="rgb(255,245,181)" stroke-width="1.1">
      <rect x="534" y="10" clip-path="url(#clipPath4)" width="150" height="50" stroke="none" />
    </g>
    <g font-size="9" stroke-width="0.1" stroke-linecap="butt">
      <rect x="534" y="10" clip-path="url(#clipPath4)" fill="none" width="149" height="49" />
      <text x="596" font-size="14" y="32" clip-path="url(#clipPath5)" stroke="none" xml:space="preserve">tom</text>
      <text x="556" font-size="14" y="49" clip-path="url(#clipPath6)" stroke="none" xml:space="preserve">: actCoordinator</text>
      <line clip-path="url(#clipPath7)" fill="none" x1="608" x2="608" y1="60" y2="840" stroke-dasharray="10,10" stroke-width="1.1" />
    </g>
    <g stroke-linecap="butt" font-size="9" fill="rgb(39,76,114)" stroke-dasharray="10,10" stroke="rgb(39,76,114)" stroke-width="1.1">
      <rect x="599" y="90" clip-path="url(#clipPath8)" width="20" height="40" stroke="none" />
      <rect x="599" y="90" clip-path="url(#clipPath8)" fill="none" width="19" stroke-dasharray="none" height="39" stroke-width="0.1" />
    </g>
    <g font-size="14" stroke-width="0.1" stroke-linecap="butt">
      <text xml:space="preserve" x="620" y="104" clip-path="url(#clipPath9)" stroke="none">out01</text>
      <rect x="599" y="345" clip-path="url(#clipPath10)" fill="rgb(194,239,255)" width="20" height="40" stroke="none" />
      <rect x="599" y="345" clip-path="url(#clipPath10)" fill="none" width="19" height="39" stroke="rgb(194,239,255)" />
      <text xml:space="preserve" x="620" y="359" clip-path="url(#clipPath11)" stroke="none">in04</text>
      <rect x="599" y="285" clip-path="url(#clipPath12)" fill="rgb(39,76,114)" width="20" height="40" stroke="none" />
      <rect x="599" y="285" clip-path="url(#clipPath12)" fill="none" width="19" height="39" stroke="rgb(39,76,114)" />
      <text xml:space="preserve" x="620" y="299" clip-path="url(#clipPath13)" stroke="none">out02</text>
      <rect x="599" y="150" clip-path="url(#clipPath14)" fill="rgb(194,239,255)" width="20" height="40" stroke="none" />
      <rect x="599" y="150" clip-path="url(#clipPath14)" fill="none" width="19" height="39" stroke="rgb(194,239,255)" />
      <text xml:space="preserve" x="620" y="164" clip-path="url(#clipPath15)" stroke="none">in01</text>
      <rect x="599" y="195" clip-path="url(#clipPath16)" fill="rgb(194,239,255)" width="20" height="40" stroke="none" />
      <rect x="599" y="195" clip-path="url(#clipPath16)" fill="none" width="19" height="39" stroke="rgb(194,239,255)" />
      <text xml:space="preserve" x="620" y="209" clip-path="url(#clipPath17)" stroke="none">in02</text>
      <rect x="599" y="240" clip-path="url(#clipPath18)" fill="rgb(194,239,255)" width="20" height="40" stroke="none" />
      <rect x="599" y="240" clip-path="url(#clipPath18)" fill="none" width="19" height="39" stroke="rgb(194,239,255)" />
      <text xml:space="preserve" x="620" y="254" clip-path="url(#clipPath19)" stroke="none">in03</text>
      <line clip-path="url(#clipPath20)" fill="none" x1="599" x2="154" y1="89" y2="89" stroke="rgb(136,136,136)" stroke-width="2.1" />
      <text x="280" y="85" clip-path="url(#clipPath21)" stroke="none" stroke-width="2.1" xml:space="preserve">oeGetPendingHelpRequests()</text>
      <line clip-path="url(#clipPath22)" fill="none" x1="161" x2="154" y1="86" y2="89" stroke="rgb(136,136,136)" stroke-width="2.1" />
      <line clip-path="url(#clipPath22)" fill="none" x1="154" x2="161" y1="89" y2="92" stroke="rgb(136,136,136)" stroke-width="2.1" />
    </g>
    <g stroke-linecap="butt" font-size="14" fill="rgb(136,136,136)" stroke-dasharray="5,5" stroke="rgb(136,136,136)" stroke-width="2.1">
      <line clip-path="url(#clipPath20)" fill="none" x1="599" x2="154" y1="344" y2="344" />
      <text x="24" y="340" clip-path="url(#clipPath23)" fill="black" stroke="none" xml:space="preserve">ieSendHelpRequestDetail(Paul Kremmer,6611726354,49.618416, 6.172678,1 rue de Cents - Luxembourg)</text>
      <line clip-path="url(#clipPath24)" fill="none" x1="592" x2="599" y1="347" y2="344" stroke-dasharray="none" />
      <line clip-path="url(#clipPath24)" fill="none" x1="599" x2="592" y1="344" y2="341" stroke-dasharray="none" />
      <line clip-path="url(#clipPath20)" fill="none" x1="599" x2="154" y1="285" y2="285" stroke-dasharray="none" />
      <text x="265" y="281" clip-path="url(#clipPath25)" fill="black" stroke-dasharray="none" stroke="none" xml:space="preserve">oeGetHelpRequestDetail("id : 32")</text>
      <line clip-path="url(#clipPath26)" fill="none" x1="161" x2="154" y1="282" y2="285" stroke-dasharray="none" />
      <line clip-path="url(#clipPath26)" fill="none" x1="154" x2="161" y1="285" y2="288" stroke-dasharray="none" />
      <line clip-path="url(#clipPath20)" fill="none" x1="599" x2="154" y1="150" y2="150" />
      <text x="249" y="146" clip-path="url(#clipPath27)" fill="black" stroke="none" xml:space="preserve">ieSendPendingHR(12h40,661234567)</text>
      <line clip-path="url(#clipPath28)" fill="none" x1="592" x2="599" y1="153" y2="150" stroke-dasharray="none" />
      <line clip-path="url(#clipPath28)" fill="none" x1="599" x2="592" y1="150" y2="147" stroke-dasharray="none" />
      <line clip-path="url(#clipPath20)" fill="none" x1="599" x2="154" y1="195" y2="195" />
      <text x="249" y="191" clip-path="url(#clipPath29)" fill="black" stroke="none" xml:space="preserve">ieSendPendingHR(12h43,661334569)</text>
      <line clip-path="url(#clipPath30)" fill="none" x1="592" x2="599" y1="198" y2="195" stroke-dasharray="none" />
      <line clip-path="url(#clipPath30)" fill="none" x1="599" x2="592" y1="195" y2="192" stroke-dasharray="none" />
      <line clip-path="url(#clipPath20)" fill="none" x1="599" x2="154" y1="240" y2="240" />
      <text x="249" y="236" clip-path="url(#clipPath31)" fill="black" stroke="none" xml:space="preserve">ieSendPendingHR(12h48,691007221)</text>
      <line clip-path="url(#clipPath32)" fill="none" x1="592" x2="599" y1="243" y2="240" stroke-dasharray="none" />
      <line clip-path="url(#clipPath32)" fill="none" x1="599" x2="592" y1="240" y2="237" stroke-dasharray="none" />
    </g>
  </g>
</svg>

