<?xml version="1.0" encoding="UTF-8"?>
<svg xmlns="http://www.w3.org/2000/svg" xmlns:xlink="http://www.w3.org/1999/xlink" stroke-dasharray="none" shape-rendering="auto" font-family="'Dialog'" width="765" text-rendering="auto" fill-opacity="1" contentScriptType="text/ecmascript" color-interpolation="auto" color-rendering="auto" preserveAspectRatio="xMidYMid meet" font-size="12" viewBox="0 0 765 850" fill="black" stroke="black" image-rendering="auto" stroke-miterlimit="10" zoomAndPan="magnify" version="1.0" stroke-linecap="square" stroke-linejoin="miter" contentStyleType="text/css" font-style="normal" height="850" stroke-width="1" stroke-dashoffset="0" font-weight="normal" stroke-opacity="1">
  <!--Generated by the Batik Graphics2D SVG Generator-->
  <defs id="genericDefs" />
  <g>
    <defs id="defs1">
      <clipPath clipPathUnits="userSpaceOnUse" id="clipPath1">
        <path d="M124 9 L196 9 L196 41 L124 41 L124 9 Z" />
      </clipPath>
      <clipPath clipPathUnits="userSpaceOnUse" id="clipPath2">
        <path d="M124 9 L200 9 L200 41 L124 41 L124 9 Z" />
      </clipPath>
      <clipPath clipPathUnits="userSpaceOnUse" id="clipPath3">
        <path d="M154 39 L166 39 L166 841 L154 841 L154 39 Z" />
      </clipPath>
      <clipPath clipPathUnits="userSpaceOnUse" id="clipPath4">
        <path d="M539 9 L691 9 L691 61 L539 61 L539 9 Z" />
      </clipPath>
      <clipPath clipPathUnits="userSpaceOnUse" id="clipPath5">
        <path d="M539 9 L695 9 L695 61 L539 61 L539 9 Z" />
      </clipPath>
      <clipPath clipPathUnits="userSpaceOnUse" id="clipPath6">
        <path d="M539 9 L694 9 L694 61 L539 61 L539 9 Z" />
      </clipPath>
      <clipPath clipPathUnits="userSpaceOnUse" id="clipPath7">
        <path d="M609 59 L621 59 L621 841 L609 841 L609 59 Z" />
      </clipPath>
      <clipPath clipPathUnits="userSpaceOnUse" id="clipPath8">
        <path d="M604 89 L626 89 L626 131 L604 131 L604 89 Z" />
      </clipPath>
      <clipPath clipPathUnits="userSpaceOnUse" id="clipPath9">
        <path d="M625 89 L669 89 L669 108 L625 108 L625 89 Z" />
      </clipPath>
      <clipPath clipPathUnits="userSpaceOnUse" id="clipPath10">
        <path d="M604 344 L626 344 L626 386 L604 386 L604 344 Z" />
      </clipPath>
      <clipPath clipPathUnits="userSpaceOnUse" id="clipPath11">
        <path d="M625 344 L659 344 L659 363 L625 363 L625 344 Z" />
      </clipPath>
      <clipPath clipPathUnits="userSpaceOnUse" id="clipPath12">
        <path d="M604 284 L626 284 L626 326 L604 326 L604 284 Z" />
      </clipPath>
      <clipPath clipPathUnits="userSpaceOnUse" id="clipPath13">
        <path d="M625 284 L669 284 L669 303 L625 303 L625 284 Z" />
      </clipPath>
      <clipPath clipPathUnits="userSpaceOnUse" id="clipPath14">
        <path d="M604 149 L626 149 L626 191 L604 191 L604 149 Z" />
      </clipPath>
      <clipPath clipPathUnits="userSpaceOnUse" id="clipPath15">
        <path d="M625 149 L659 149 L659 168 L625 168 L625 149 Z" />
      </clipPath>
      <clipPath clipPathUnits="userSpaceOnUse" id="clipPath16">
        <path d="M604 194 L626 194 L626 236 L604 236 L604 194 Z" />
      </clipPath>
      <clipPath clipPathUnits="userSpaceOnUse" id="clipPath17">
        <path d="M625 194 L659 194 L659 213 L625 213 L625 194 Z" />
      </clipPath>
      <clipPath clipPathUnits="userSpaceOnUse" id="clipPath18">
        <path d="M604 239 L626 239 L626 281 L604 281 L604 239 Z" />
      </clipPath>
      <clipPath clipPathUnits="userSpaceOnUse" id="clipPath19">
        <path d="M625 239 L659 239 L659 258 L625 258 L625 239 Z" />
      </clipPath>
      <clipPath clipPathUnits="userSpaceOnUse" id="clipPath20">
        <path d="M-1 -1 L766 -1 L766 851 L-1 851 L-1 -1 Z" />
      </clipPath>
      <clipPath clipPathUnits="userSpaceOnUse" id="clipPath21">
        <path d="M284 70 L484 70 L484 89 L284 89 L284 70 Z" />
      </clipPath>
      <clipPath clipPathUnits="userSpaceOnUse" id="clipPath22">
        <path d="M158 84 L170 84 L170 95 L158 95 L158 84 Z" />
      </clipPath>
      <clipPath clipPathUnits="userSpaceOnUse" id="clipPath23">
        <path d="M23 325 L745 325 L745 344 L23 344 L23 325 Z" />
      </clipPath>
      <clipPath clipPathUnits="userSpaceOnUse" id="clipPath24">
        <path d="M596 339 L608 339 L608 350 L596 350 L596 339 Z" />
      </clipPath>
      <clipPath clipPathUnits="userSpaceOnUse" id="clipPath25">
        <path d="M268 266 L499 266 L499 285 L268 285 L268 266 Z" />
      </clipPath>
      <clipPath clipPathUnits="userSpaceOnUse" id="clipPath26">
        <path d="M158 280 L170 280 L170 291 L158 291 L158 280 Z" />
      </clipPath>
      <clipPath clipPathUnits="userSpaceOnUse" id="clipPath27">
        <path d="M253 131 L516 131 L516 150 L253 150 L253 131 Z" />
      </clipPath>
      <clipPath clipPathUnits="userSpaceOnUse" id="clipPath28">
        <path d="M596 145 L608 145 L608 156 L596 156 L596 145 Z" />
      </clipPath>
      <clipPath clipPathUnits="userSpaceOnUse" id="clipPath29">
        <path d="M253 176 L516 176 L516 195 L253 195 L253 176 Z" />
      </clipPath>
      <clipPath clipPathUnits="userSpaceOnUse" id="clipPath30">
        <path d="M596 190 L608 190 L608 201 L596 201 L596 190 Z" />
      </clipPath>
      <clipPath clipPathUnits="userSpaceOnUse" id="clipPath31">
        <path d="M253 221 L516 221 L516 240 L253 240 L253 221 Z" />
      </clipPath>
      <clipPath clipPathUnits="userSpaceOnUse" id="clipPath32">
        <path d="M596 235 L608 235 L608 246 L596 246 L596 235 Z" />
      </clipPath>
    </defs>
    <g font-size="9" fill="rgb(238,201,142)" stroke-linejoin="round" stroke="rgb(238,201,142)" stroke-width="0" stroke-miterlimit="0">
      <rect x="125" y="10" clip-path="url(#clipPath1)" width="70" height="30" stroke="none" />
    </g>
    <g font-size="9" stroke-width="0.1" stroke-linecap="butt">
      <rect x="125" y="10" clip-path="url(#clipPath1)" fill="none" width="69" height="29" />
      <text x="135" font-size="14" y="30" clip-path="url(#clipPath2)" stroke="none" xml:space="preserve">System</text>
      <line clip-path="url(#clipPath3)" fill="none" x1="159" x2="159" y1="40" y2="840" stroke-dasharray="10,10" stroke-width="1.1" />
    </g>
    <g stroke-linecap="butt" font-size="9" fill="rgb(255,245,181)" stroke-dasharray="10,10" stroke="rgb(255,245,181)" stroke-width="1.1">
      <rect x="540" y="10" clip-path="url(#clipPath4)" width="150" height="50" stroke="none" />
    </g>
    <g font-size="9" stroke-width="0.1" stroke-linecap="butt">
      <rect x="540" y="10" clip-path="url(#clipPath4)" fill="none" width="149" height="49" />
      <text x="602" font-size="14" y="32" clip-path="url(#clipPath5)" stroke="none" xml:space="preserve">tom</text>
      <text x="562" font-size="14" y="49" clip-path="url(#clipPath6)" stroke="none" xml:space="preserve">: actCoordinator</text>
      <line clip-path="url(#clipPath7)" fill="none" x1="614" x2="614" y1="60" y2="840" stroke-dasharray="10,10" stroke-width="1.1" />
    </g>
    <g stroke-linecap="butt" font-size="9" fill="rgb(39,76,114)" stroke-dasharray="10,10" stroke="rgb(39,76,114)" stroke-width="1.1">
      <rect x="605" y="90" clip-path="url(#clipPath8)" width="20" height="40" stroke="none" />
      <rect x="605" y="90" clip-path="url(#clipPath8)" fill="none" width="19" stroke-dasharray="none" height="39" stroke-width="0.1" />
    </g>
    <g font-size="14" stroke-width="0.1" stroke-linecap="butt">
      <text xml:space="preserve" x="626" y="104" clip-path="url(#clipPath9)" stroke="none">out01</text>
      <rect x="605" y="345" clip-path="url(#clipPath10)" fill="rgb(194,239,255)" width="20" height="40" stroke="none" />
      <rect x="605" y="345" clip-path="url(#clipPath10)" fill="none" width="19" height="39" stroke="rgb(194,239,255)" />
      <text xml:space="preserve" x="626" y="359" clip-path="url(#clipPath11)" stroke="none">in04</text>
      <rect x="605" y="285" clip-path="url(#clipPath12)" fill="rgb(39,76,114)" width="20" height="40" stroke="none" />
      <rect x="605" y="285" clip-path="url(#clipPath12)" fill="none" width="19" height="39" stroke="rgb(39,76,114)" />
      <text xml:space="preserve" x="626" y="299" clip-path="url(#clipPath13)" stroke="none">out02</text>
      <rect x="605" y="150" clip-path="url(#clipPath14)" fill="rgb(194,239,255)" width="20" height="40" stroke="none" />
      <rect x="605" y="150" clip-path="url(#clipPath14)" fill="none" width="19" height="39" stroke="rgb(194,239,255)" />
      <text xml:space="preserve" x="626" y="164" clip-path="url(#clipPath15)" stroke="none">in01</text>
      <rect x="605" y="195" clip-path="url(#clipPath16)" fill="rgb(194,239,255)" width="20" height="40" stroke="none" />
      <rect x="605" y="195" clip-path="url(#clipPath16)" fill="none" width="19" height="39" stroke="rgb(194,239,255)" />
      <text xml:space="preserve" x="626" y="209" clip-path="url(#clipPath17)" stroke="none">in02</text>
      <rect x="605" y="240" clip-path="url(#clipPath18)" fill="rgb(194,239,255)" width="20" height="40" stroke="none" />
      <rect x="605" y="240" clip-path="url(#clipPath18)" fill="none" width="19" height="39" stroke="rgb(194,239,255)" />
      <text xml:space="preserve" x="626" y="254" clip-path="url(#clipPath19)" stroke="none">in03</text>
      <line clip-path="url(#clipPath20)" fill="none" x1="605" x2="160" y1="89" y2="89" stroke="rgb(136,136,136)" stroke-width="2.1" />
      <text x="285" y="85" clip-path="url(#clipPath21)" stroke="none" stroke-width="2.1" xml:space="preserve">oeGetPendingHelpRequests()</text>
      <line clip-path="url(#clipPath22)" fill="none" x1="167" x2="160" y1="86" y2="89" stroke="rgb(136,136,136)" stroke-width="2.1" />
      <line clip-path="url(#clipPath22)" fill="none" x1="160" x2="167" y1="89" y2="92" stroke="rgb(136,136,136)" stroke-width="2.1" />
    </g>
    <g stroke-linecap="butt" font-size="14" fill="rgb(136,136,136)" stroke-dasharray="5,5" stroke="rgb(136,136,136)" stroke-width="2.1">
      <line clip-path="url(#clipPath20)" fill="none" x1="605" x2="160" y1="344" y2="344" />
      <text x="24" y="340" clip-path="url(#clipPath23)" fill="black" stroke="none" xml:space="preserve">ieSendHelpRequestDetail(Paul Kremmer,6611726354,49.618416, 6.172678,1 rue de Cents - Luxembourg)</text>
      <line clip-path="url(#clipPath24)" fill="none" x1="598" x2="605" y1="347" y2="344" stroke-dasharray="none" />
      <line clip-path="url(#clipPath24)" fill="none" x1="605" x2="598" y1="344" y2="341" stroke-dasharray="none" />
      <line clip-path="url(#clipPath20)" fill="none" x1="605" x2="160" y1="285" y2="285" stroke-dasharray="none" />
      <text x="269" y="281" clip-path="url(#clipPath25)" fill="black" stroke-dasharray="none" stroke="none" xml:space="preserve">oeGetHelpRequestDetail("id : 32")</text>
      <line clip-path="url(#clipPath26)" fill="none" x1="167" x2="160" y1="282" y2="285" stroke-dasharray="none" />
      <line clip-path="url(#clipPath26)" fill="none" x1="160" x2="167" y1="285" y2="288" stroke-dasharray="none" />
      <line clip-path="url(#clipPath20)" fill="none" x1="605" x2="160" y1="150" y2="150" />
      <text x="254" y="146" clip-path="url(#clipPath27)" fill="black" stroke="none" xml:space="preserve">ieSendPendingHR(12h40,661234567)</text>
      <line clip-path="url(#clipPath28)" fill="none" x1="598" x2="605" y1="153" y2="150" stroke-dasharray="none" />
      <line clip-path="url(#clipPath28)" fill="none" x1="605" x2="598" y1="150" y2="147" stroke-dasharray="none" />
      <line clip-path="url(#clipPath20)" fill="none" x1="605" x2="160" y1="195" y2="195" />
      <text x="254" y="191" clip-path="url(#clipPath29)" fill="black" stroke="none" xml:space="preserve">ieSendPendingHR(12h43,661334569)</text>
      <line clip-path="url(#clipPath30)" fill="none" x1="598" x2="605" y1="198" y2="195" stroke-dasharray="none" />
      <line clip-path="url(#clipPath30)" fill="none" x1="605" x2="598" y1="195" y2="192" stroke-dasharray="none" />
      <line clip-path="url(#clipPath20)" fill="none" x1="605" x2="160" y1="240" y2="240" />
      <text x="254" y="236" clip-path="url(#clipPath31)" fill="black" stroke="none" xml:space="preserve">ieSendPendingHR(12h48,691007221)</text>
      <line clip-path="url(#clipPath32)" fill="none" x1="598" x2="605" y1="243" y2="240" stroke-dasharray="none" />
      <line clip-path="url(#clipPath32)" fill="none" x1="605" x2="598" y1="240" y2="237" stroke-dasharray="none" />
    </g>
  </g>
</svg>

