<?xml version="1.0" encoding="UTF-8"?>
<svg xmlns="http://www.w3.org/2000/svg" xmlns:xlink="http://www.w3.org/1999/xlink" stroke-dasharray="none" shape-rendering="auto" font-family="'Dialog'" width="753" text-rendering="auto" fill-opacity="1" contentScriptType="text/ecmascript" color-interpolation="auto" color-rendering="auto" preserveAspectRatio="xMidYMid meet" font-size="12" viewBox="0 0 753 490" fill="black" stroke="black" image-rendering="auto" stroke-miterlimit="10" zoomAndPan="magnify" version="1.0" stroke-linecap="square" stroke-linejoin="miter" contentStyleType="text/css" font-style="normal" height="490" stroke-width="1" stroke-dashoffset="0" font-weight="normal" stroke-opacity="1">
  <!--Generated by the Batik Graphics2D SVG Generator-->
  <defs id="genericDefs" />
  <g>
    <defs id="defs1">
      <clipPath clipPathUnits="userSpaceOnUse" id="clipPath1">
        <path d="M275 9 L347 9 L347 41 L275 41 L275 9 Z" />
      </clipPath>
      <clipPath clipPathUnits="userSpaceOnUse" id="clipPath2">
        <path d="M275 9 L351 9 L351 41 L275 41 L275 9 Z" />
      </clipPath>
      <clipPath clipPathUnits="userSpaceOnUse" id="clipPath3">
        <path d="M305 39 L317 39 L317 481 L305 481 L305 39 Z" />
      </clipPath>
      <clipPath clipPathUnits="userSpaceOnUse" id="clipPath4">
        <path d="M375 9 L527 9 L527 61 L375 61 L375 9 Z" />
      </clipPath>
      <clipPath clipPathUnits="userSpaceOnUse" id="clipPath5">
        <path d="M375 9 L531 9 L531 61 L375 61 L375 9 Z" />
      </clipPath>
      <clipPath clipPathUnits="userSpaceOnUse" id="clipPath6">
        <path d="M375 9 L530 9 L530 61 L375 61 L375 9 Z" />
      </clipPath>
      <clipPath clipPathUnits="userSpaceOnUse" id="clipPath7">
        <path d="M445 59 L457 59 L457 481 L445 481 L445 59 Z" />
      </clipPath>
      <clipPath clipPathUnits="userSpaceOnUse" id="clipPath8">
        <path d="M440 89 L462 89 L462 131 L440 131 L440 89 Z" />
      </clipPath>
      <clipPath clipPathUnits="userSpaceOnUse" id="clipPath9">
        <path d="M461 89 L505 89 L505 108 L461 108 L461 89 Z" />
      </clipPath>
      <clipPath clipPathUnits="userSpaceOnUse" id="clipPath10">
        <path d="M440 329 L462 329 L462 371 L440 371 L440 329 Z" />
      </clipPath>
      <clipPath clipPathUnits="userSpaceOnUse" id="clipPath11">
        <path d="M461 329 L505 329 L505 348 L461 348 L461 329 Z" />
      </clipPath>
      <clipPath clipPathUnits="userSpaceOnUse" id="clipPath12">
        <path d="M440 149 L462 149 L462 191 L440 191 L440 149 Z" />
      </clipPath>
      <clipPath clipPathUnits="userSpaceOnUse" id="clipPath13">
        <path d="M461 149 L496 149 L496 168 L461 168 L461 149 Z" />
      </clipPath>
      <clipPath clipPathUnits="userSpaceOnUse" id="clipPath14">
        <path d="M440 209 L462 209 L462 251 L440 251 L440 209 Z" />
      </clipPath>
      <clipPath clipPathUnits="userSpaceOnUse" id="clipPath15">
        <path d="M461 209 L496 209 L496 228 L461 228 L461 209 Z" />
      </clipPath>
      <clipPath clipPathUnits="userSpaceOnUse" id="clipPath16">
        <path d="M440 269 L462 269 L462 311 L440 311 L440 269 Z" />
      </clipPath>
      <clipPath clipPathUnits="userSpaceOnUse" id="clipPath17">
        <path d="M461 269 L496 269 L496 288 L461 288 L461 269 Z" />
      </clipPath>
      <clipPath clipPathUnits="userSpaceOnUse" id="clipPath18">
        <path d="M440 389 L462 389 L462 431 L440 431 L440 389 Z" />
      </clipPath>
      <clipPath clipPathUnits="userSpaceOnUse" id="clipPath19">
        <path d="M461 389 L496 389 L496 408 L461 408 L461 389 Z" />
      </clipPath>
      <clipPath clipPathUnits="userSpaceOnUse" id="clipPath20">
        <path d="M-1 -1 L754 -1 L754 491 L-1 491 L-1 -1 Z" />
      </clipPath>
      <clipPath clipPathUnits="userSpaceOnUse" id="clipPath21">
        <path d="M279 71 L476 71 L476 90 L279 90 L279 71 Z" />
      </clipPath>
      <clipPath clipPathUnits="userSpaceOnUse" id="clipPath22">
        <path d="M309 85 L321 85 L321 96 L309 96 L309 85 Z" />
      </clipPath>
      <clipPath clipPathUnits="userSpaceOnUse" id="clipPath23">
        <path d="M264 311 L491 311 L491 330 L264 330 L264 311 Z" />
      </clipPath>
      <clipPath clipPathUnits="userSpaceOnUse" id="clipPath24">
        <path d="M309 325 L321 325 L321 336 L309 336 L309 325 Z" />
      </clipPath>
      <clipPath clipPathUnits="userSpaceOnUse" id="clipPath25">
        <path d="M248 131 L507 131 L507 150 L248 150 L248 131 Z" />
      </clipPath>
      <clipPath clipPathUnits="userSpaceOnUse" id="clipPath26">
        <path d="M432 145 L444 145 L444 156 L432 156 L432 145 Z" />
      </clipPath>
      <clipPath clipPathUnits="userSpaceOnUse" id="clipPath27">
        <path d="M248 191 L507 191 L507 210 L248 210 L248 191 Z" />
      </clipPath>
      <clipPath clipPathUnits="userSpaceOnUse" id="clipPath28">
        <path d="M432 205 L444 205 L444 216 L432 216 L432 205 Z" />
      </clipPath>
      <clipPath clipPathUnits="userSpaceOnUse" id="clipPath29">
        <path d="M248 251 L507 251 L507 270 L248 270 L248 251 Z" />
      </clipPath>
      <clipPath clipPathUnits="userSpaceOnUse" id="clipPath30">
        <path d="M432 265 L444 265 L444 276 L432 276 L432 265 Z" />
      </clipPath>
      <clipPath clipPathUnits="userSpaceOnUse" id="clipPath31">
        <path d="M23 371 L733 371 L733 390 L23 390 L23 371 Z" />
      </clipPath>
      <clipPath clipPathUnits="userSpaceOnUse" id="clipPath32">
        <path d="M432 385 L444 385 L444 396 L432 396 L432 385 Z" />
      </clipPath>
    </defs>
    <g font-size="9" fill="rgb(238,201,142)" stroke-linejoin="round" stroke="rgb(238,201,142)" stroke-width="0" stroke-miterlimit="0">
      <rect x="276" y="10" clip-path="url(#clipPath1)" width="70" height="30" stroke="none" />
    </g>
    <g font-size="9" stroke-width="0.1" stroke-linecap="butt">
      <rect x="276" y="10" clip-path="url(#clipPath1)" fill="none" width="69" height="29" />
      <text x="287" font-size="14" y="30" clip-path="url(#clipPath2)" stroke="none" xml:space="preserve">System</text>
      <line clip-path="url(#clipPath3)" fill="none" x1="310" x2="310" y1="40" y2="480" stroke-dasharray="10,10" stroke-width="1.1" />
    </g>
    <g stroke-linecap="butt" font-size="9" fill="rgb(255,245,181)" stroke-dasharray="10,10" stroke="rgb(255,245,181)" stroke-width="1.1">
      <rect x="376" y="10" clip-path="url(#clipPath4)" width="150" height="50" stroke="none" />
    </g>
    <g font-size="9" stroke-width="0.1" stroke-linecap="butt">
      <rect x="376" y="10" clip-path="url(#clipPath4)" fill="none" width="149" height="49" />
      <text x="438" font-size="14" y="32" clip-path="url(#clipPath5)" stroke="none" xml:space="preserve">tom</text>
      <text x="398" font-size="14" y="49" clip-path="url(#clipPath6)" stroke="none" xml:space="preserve">: actCoordinator</text>
      <line clip-path="url(#clipPath7)" fill="none" x1="450" x2="450" y1="60" y2="480" stroke-dasharray="10,10" stroke-width="1.1" />
    </g>
    <g stroke-linecap="butt" font-size="9" fill="rgb(39,76,114)" stroke-dasharray="10,10" stroke="rgb(39,76,114)" stroke-width="1.1">
      <rect x="441" y="90" clip-path="url(#clipPath8)" width="20" height="40" stroke="none" />
      <rect x="441" y="90" clip-path="url(#clipPath8)" fill="none" width="19" stroke-dasharray="none" height="39" stroke-width="0.1" />
    </g>
    <g font-size="14" stroke-width="0.1" stroke-linecap="butt">
      <text xml:space="preserve" x="462" y="104" clip-path="url(#clipPath9)" stroke="none">out01</text>
      <rect x="441" y="330" clip-path="url(#clipPath10)" fill="rgb(39,76,114)" width="20" height="40" stroke="none" />
      <rect x="441" y="330" clip-path="url(#clipPath10)" fill="none" width="19" height="39" stroke="rgb(39,76,114)" />
      <text xml:space="preserve" x="462" y="344" clip-path="url(#clipPath11)" stroke="none">out02</text>
      <rect x="441" y="150" clip-path="url(#clipPath12)" fill="rgb(194,239,255)" width="20" height="40" stroke="none" />
      <rect x="441" y="150" clip-path="url(#clipPath12)" fill="none" width="19" height="39" stroke="rgb(194,239,255)" />
      <text xml:space="preserve" x="462" y="164" clip-path="url(#clipPath13)" stroke="none">in01</text>
      <rect x="441" y="210" clip-path="url(#clipPath14)" fill="rgb(194,239,255)" width="20" height="40" stroke="none" />
      <rect x="441" y="210" clip-path="url(#clipPath14)" fill="none" width="19" height="39" stroke="rgb(194,239,255)" />
      <text xml:space="preserve" x="462" y="224" clip-path="url(#clipPath15)" stroke="none">in02</text>
      <rect x="441" y="270" clip-path="url(#clipPath16)" fill="rgb(194,239,255)" width="20" height="40" stroke="none" />
      <rect x="441" y="270" clip-path="url(#clipPath16)" fill="none" width="19" height="39" stroke="rgb(194,239,255)" />
      <text xml:space="preserve" x="462" y="284" clip-path="url(#clipPath17)" stroke="none">in03</text>
      <rect x="441" y="390" clip-path="url(#clipPath18)" fill="rgb(194,239,255)" width="20" height="40" stroke="none" />
      <rect x="441" y="390" clip-path="url(#clipPath18)" fill="none" width="19" height="39" stroke="rgb(194,239,255)" />
      <text xml:space="preserve" x="462" y="404" clip-path="url(#clipPath19)" stroke="none">in04</text>
      <line clip-path="url(#clipPath20)" fill="none" x1="441" x2="311" y1="90" y2="90" stroke="rgb(136,136,136)" stroke-width="2.1" />
      <text x="280" y="86" clip-path="url(#clipPath21)" stroke="none" stroke-width="2.1" xml:space="preserve">oeGetPendingHelpRequests()</text>
      <line clip-path="url(#clipPath22)" fill="none" x1="318" x2="311" y1="87" y2="90" stroke="rgb(136,136,136)" stroke-width="2.1" />
      <line clip-path="url(#clipPath22)" fill="none" x1="311" x2="318" y1="90" y2="93" stroke="rgb(136,136,136)" stroke-width="2.1" />
      <line clip-path="url(#clipPath20)" fill="none" x1="441" x2="311" y1="330" y2="330" stroke="rgb(136,136,136)" stroke-width="2.1" />
      <text x="265" y="326" clip-path="url(#clipPath23)" stroke="none" stroke-width="2.1" xml:space="preserve">oeGetHelpRequestDetail("id : 32")</text>
      <line clip-path="url(#clipPath24)" fill="none" x1="318" x2="311" y1="327" y2="330" stroke="rgb(136,136,136)" stroke-width="2.1" />
      <line clip-path="url(#clipPath24)" fill="none" x1="311" x2="318" y1="330" y2="333" stroke="rgb(136,136,136)" stroke-width="2.1" />
    </g>
    <g stroke-linecap="butt" font-size="14" fill="rgb(136,136,136)" stroke-dasharray="5,5" stroke="rgb(136,136,136)" stroke-width="2.1">
      <line clip-path="url(#clipPath20)" fill="none" x1="441" x2="311" y1="150" y2="150" />
      <text x="249" y="146" clip-path="url(#clipPath25)" fill="black" stroke="none" xml:space="preserve">ieSendPendingHR(12h40,661234567)</text>
      <line clip-path="url(#clipPath26)" fill="none" x1="434" x2="441" y1="153" y2="150" stroke-dasharray="none" />
      <line clip-path="url(#clipPath26)" fill="none" x1="441" x2="434" y1="150" y2="147" stroke-dasharray="none" />
      <line clip-path="url(#clipPath20)" fill="none" x1="441" x2="311" y1="210" y2="210" />
      <text x="249" y="206" clip-path="url(#clipPath27)" fill="black" stroke="none" xml:space="preserve">ieSendPendingHR(12h43,661334569)</text>
      <line clip-path="url(#clipPath28)" fill="none" x1="434" x2="441" y1="213" y2="210" stroke-dasharray="none" />
      <line clip-path="url(#clipPath28)" fill="none" x1="441" x2="434" y1="210" y2="207" stroke-dasharray="none" />
      <line clip-path="url(#clipPath20)" fill="none" x1="441" x2="311" y1="270" y2="270" />
      <text x="249" y="266" clip-path="url(#clipPath29)" fill="black" stroke="none" xml:space="preserve">ieSendPendingHR(12h48,691007221)</text>
      <line clip-path="url(#clipPath30)" fill="none" x1="434" x2="441" y1="273" y2="270" stroke-dasharray="none" />
      <line clip-path="url(#clipPath30)" fill="none" x1="441" x2="434" y1="270" y2="267" stroke-dasharray="none" />
      <line clip-path="url(#clipPath20)" fill="none" x1="441" x2="311" y1="390" y2="390" />
      <text x="24" y="386" clip-path="url(#clipPath31)" fill="black" stroke="none" xml:space="preserve">ieSendHelpRequestDetail(Paul Kremmer,6611726354,49.618416, 6.172678,1 rue de Cents - Luxembourg)</text>
      <line clip-path="url(#clipPath32)" fill="none" x1="434" x2="441" y1="393" y2="390" stroke-dasharray="none" />
      <line clip-path="url(#clipPath32)" fill="none" x1="441" x2="434" y1="390" y2="387" stroke-dasharray="none" />
    </g>
  </g>
</svg>

