<?xml version="1.0" encoding="UTF-8"?>
<svg xmlns="http://www.w3.org/2000/svg" xmlns:xlink="http://www.w3.org/1999/xlink" stroke-dasharray="none" shape-rendering="auto" font-family="'Dialog'" width="957" text-rendering="auto" fill-opacity="1" contentScriptType="text/ecmascript" color-interpolation="auto" color-rendering="auto" preserveAspectRatio="xMidYMid meet" font-size="12" viewBox="0 0 957 730" fill="black" stroke="black" image-rendering="auto" stroke-miterlimit="10" zoomAndPan="magnify" version="1.0" stroke-linecap="square" stroke-linejoin="miter" contentStyleType="text/css" font-style="normal" height="730" stroke-width="1" stroke-dashoffset="0" font-weight="normal" stroke-opacity="1">
  <!--Generated by the Batik Graphics2D SVG Generator-->
  <defs id="genericDefs" />
  <g>
    <defs id="defs1">
      <clipPath clipPathUnits="userSpaceOnUse" id="clipPath1">
        <path d="M277 9 L349 9 L349 41 L277 41 L277 9 Z" />
      </clipPath>
      <clipPath clipPathUnits="userSpaceOnUse" id="clipPath2">
        <path d="M277 9 L353 9 L353 41 L277 41 L277 9 Z" />
      </clipPath>
      <clipPath clipPathUnits="userSpaceOnUse" id="clipPath3">
        <path d="M307 39 L319 39 L319 721 L307 721 L307 39 Z" />
      </clipPath>
      <clipPath clipPathUnits="userSpaceOnUse" id="clipPath4">
        <path d="M377 9 L483 9 L483 61 L377 61 L377 9 Z" />
      </clipPath>
      <clipPath clipPathUnits="userSpaceOnUse" id="clipPath5">
        <path d="M377 9 L487 9 L487 61 L377 61 L377 9 Z" />
      </clipPath>
      <clipPath clipPathUnits="userSpaceOnUse" id="clipPath6">
        <path d="M377 9 L485 9 L485 61 L377 61 L377 9 Z" />
      </clipPath>
      <clipPath clipPathUnits="userSpaceOnUse" id="clipPath7">
        <path d="M377 9 L486 9 L486 61 L377 61 L377 9 Z" />
      </clipPath>
      <clipPath clipPathUnits="userSpaceOnUse" id="clipPath8">
        <path d="M424 59 L436 59 L436 721 L424 721 L424 59 Z" />
      </clipPath>
      <clipPath clipPathUnits="userSpaceOnUse" id="clipPath9">
        <path d="M419 329 L441 329 L441 371 L419 371 L419 329 Z" />
      </clipPath>
      <clipPath clipPathUnits="userSpaceOnUse" id="clipPath10">
        <path d="M440 329 L484 329 L484 348 L440 348 L440 329 Z" />
      </clipPath>
      <clipPath clipPathUnits="userSpaceOnUse" id="clipPath11">
        <path d="M419 449 L441 449 L441 491 L419 491 L419 449 Z" />
      </clipPath>
      <clipPath clipPathUnits="userSpaceOnUse" id="clipPath12">
        <path d="M440 449 L484 449 L484 468 L440 468 L440 449 Z" />
      </clipPath>
      <clipPath clipPathUnits="userSpaceOnUse" id="clipPath13">
        <path d="M419 569 L441 569 L441 611 L419 611 L419 569 Z" />
      </clipPath>
      <clipPath clipPathUnits="userSpaceOnUse" id="clipPath14">
        <path d="M440 569 L484 569 L484 588 L440 588 L440 569 Z" />
      </clipPath>
      <clipPath clipPathUnits="userSpaceOnUse" id="clipPath15">
        <path d="M419 269 L441 269 L441 311 L419 311 L419 269 Z" />
      </clipPath>
      <clipPath clipPathUnits="userSpaceOnUse" id="clipPath16">
        <path d="M440 269 L475 269 L475 288 L440 288 L440 269 Z" />
      </clipPath>
      <clipPath clipPathUnits="userSpaceOnUse" id="clipPath17">
        <path d="M419 389 L441 389 L441 431 L419 431 L419 389 Z" />
      </clipPath>
      <clipPath clipPathUnits="userSpaceOnUse" id="clipPath18">
        <path d="M440 389 L475 389 L475 408 L440 408 L440 389 Z" />
      </clipPath>
      <clipPath clipPathUnits="userSpaceOnUse" id="clipPath19">
        <path d="M419 509 L441 509 L441 551 L419 551 L419 509 Z" />
      </clipPath>
      <clipPath clipPathUnits="userSpaceOnUse" id="clipPath20">
        <path d="M440 509 L475 509 L475 528 L440 528 L440 509 Z" />
      </clipPath>
      <clipPath clipPathUnits="userSpaceOnUse" id="clipPath21">
        <path d="M504 9 L619 9 L619 61 L504 61 L504 9 Z" />
      </clipPath>
      <clipPath clipPathUnits="userSpaceOnUse" id="clipPath22">
        <path d="M504 9 L623 9 L623 61 L504 61 L504 9 Z" />
      </clipPath>
      <clipPath clipPathUnits="userSpaceOnUse" id="clipPath23">
        <path d="M504 9 L621 9 L621 61 L504 61 L504 9 Z" />
      </clipPath>
      <clipPath clipPathUnits="userSpaceOnUse" id="clipPath24">
        <path d="M504 9 L622 9 L622 61 L504 61 L504 9 Z" />
      </clipPath>
      <clipPath clipPathUnits="userSpaceOnUse" id="clipPath25">
        <path d="M555 59 L567 59 L567 721 L555 721 L555 59 Z" />
      </clipPath>
      <clipPath clipPathUnits="userSpaceOnUse" id="clipPath26">
        <path d="M550 89 L572 89 L572 131 L550 131 L550 89 Z" />
      </clipPath>
      <clipPath clipPathUnits="userSpaceOnUse" id="clipPath27">
        <path d="M571 89 L615 89 L615 108 L571 108 L571 89 Z" />
      </clipPath>
      <clipPath clipPathUnits="userSpaceOnUse" id="clipPath28">
        <path d="M634 9 L786 9 L786 61 L634 61 L634 9 Z" />
      </clipPath>
      <clipPath clipPathUnits="userSpaceOnUse" id="clipPath29">
        <path d="M634 9 L789 9 L789 61 L634 61 L634 9 Z" />
      </clipPath>
      <clipPath clipPathUnits="userSpaceOnUse" id="clipPath30">
        <path d="M704 59 L716 59 L716 721 L704 721 L704 59 Z" />
      </clipPath>
      <clipPath clipPathUnits="userSpaceOnUse" id="clipPath31">
        <path d="M699 209 L721 209 L721 251 L699 251 L699 209 Z" />
      </clipPath>
      <clipPath clipPathUnits="userSpaceOnUse" id="clipPath32">
        <path d="M720 209 L764 209 L764 228 L720 228 L720 209 Z" />
      </clipPath>
      <clipPath clipPathUnits="userSpaceOnUse" id="clipPath33">
        <path d="M699 149 L721 149 L721 191 L699 191 L699 149 Z" />
      </clipPath>
      <clipPath clipPathUnits="userSpaceOnUse" id="clipPath34">
        <path d="M720 149 L755 149 L755 168 L720 168 L720 149 Z" />
      </clipPath>
      <clipPath clipPathUnits="userSpaceOnUse" id="clipPath35">
        <path d="M796 9 L948 9 L948 61 L796 61 L796 9 Z" />
      </clipPath>
      <clipPath clipPathUnits="userSpaceOnUse" id="clipPath36">
        <path d="M796 9 L952 9 L952 61 L796 61 L796 9 Z" />
      </clipPath>
      <clipPath clipPathUnits="userSpaceOnUse" id="clipPath37">
        <path d="M796 9 L951 9 L951 61 L796 61 L796 9 Z" />
      </clipPath>
      <clipPath clipPathUnits="userSpaceOnUse" id="clipPath38">
        <path d="M866 59 L878 59 L878 721 L866 721 L866 59 Z" />
      </clipPath>
      <clipPath clipPathUnits="userSpaceOnUse" id="clipPath39">
        <path d="M861 626 L883 626 L883 668 L861 668 L861 626 Z" />
      </clipPath>
      <clipPath clipPathUnits="userSpaceOnUse" id="clipPath40">
        <path d="M882 626 L917 626 L917 645 L882 645 L882 626 Z" />
      </clipPath>
      <clipPath clipPathUnits="userSpaceOnUse" id="clipPath41">
        <path d="M-1 -1 L958 -1 L958 731 L-1 731 L-1 -1 Z" />
      </clipPath>
      <clipPath clipPathUnits="userSpaceOnUse" id="clipPath42">
        <path d="M342 71 L526 71 L526 90 L342 90 L342 71 Z" />
      </clipPath>
      <clipPath clipPathUnits="userSpaceOnUse" id="clipPath43">
        <path d="M311 85 L323 85 L323 96 L311 96 L311 85 Z" />
      </clipPath>
      <clipPath clipPathUnits="userSpaceOnUse" id="clipPath44">
        <path d="M383 191 L633 191 L633 210 L383 210 L383 191 Z" />
      </clipPath>
      <clipPath clipPathUnits="userSpaceOnUse" id="clipPath45">
        <path d="M311 205 L323 205 L323 216 L311 216 L311 205 Z" />
      </clipPath>
      <clipPath clipPathUnits="userSpaceOnUse" id="clipPath46">
        <path d="M102 311 L635 311 L635 330 L102 330 L102 311 Z" />
      </clipPath>
      <clipPath clipPathUnits="userSpaceOnUse" id="clipPath47">
        <path d="M311 325 L323 325 L323 336 L311 336 L311 325 Z" />
      </clipPath>
      <clipPath clipPathUnits="userSpaceOnUse" id="clipPath48">
        <path d="M23 431 L715 431 L715 450 L23 450 L23 431 Z" />
      </clipPath>
      <clipPath clipPathUnits="userSpaceOnUse" id="clipPath49">
        <path d="M311 445 L323 445 L323 456 L311 456 L311 445 Z" />
      </clipPath>
      <clipPath clipPathUnits="userSpaceOnUse" id="clipPath50">
        <path d="M286 551 L452 551 L452 570 L286 570 L286 551 Z" />
      </clipPath>
      <clipPath clipPathUnits="userSpaceOnUse" id="clipPath51">
        <path d="M311 565 L323 565 L323 576 L311 576 L311 565 Z" />
      </clipPath>
      <clipPath clipPathUnits="userSpaceOnUse" id="clipPath52">
        <path d="M448 131 L568 131 L568 150 L448 150 L448 131 Z" />
      </clipPath>
      <clipPath clipPathUnits="userSpaceOnUse" id="clipPath53">
        <path d="M691 145 L703 145 L703 156 L691 156 L691 145 Z" />
      </clipPath>
      <clipPath clipPathUnits="userSpaceOnUse" id="clipPath54">
        <path d="M236 251 L501 251 L501 270 L236 270 L236 251 Z" />
      </clipPath>
      <clipPath clipPathUnits="userSpaceOnUse" id="clipPath55">
        <path d="M411 265 L423 265 L423 276 L411 276 L411 265 Z" />
      </clipPath>
      <clipPath clipPathUnits="userSpaceOnUse" id="clipPath56">
        <path d="M129 371 L608 371 L608 390 L129 390 L129 371 Z" />
      </clipPath>
      <clipPath clipPathUnits="userSpaceOnUse" id="clipPath57">
        <path d="M411 385 L423 385 L423 396 L411 396 L411 385 Z" />
      </clipPath>
      <clipPath clipPathUnits="userSpaceOnUse" id="clipPath58">
        <path d="M166 491 L571 491 L571 510 L166 510 L166 491 Z" />
      </clipPath>
      <clipPath clipPathUnits="userSpaceOnUse" id="clipPath59">
        <path d="M411 505 L423 505 L423 516 L411 516 L411 505 Z" />
      </clipPath>
      <clipPath clipPathUnits="userSpaceOnUse" id="clipPath60">
        <path d="M467 629 L702 629 L702 689 L467 689 L467 629 Z" />
      </clipPath>
      <clipPath clipPathUnits="userSpaceOnUse" id="clipPath61">
        <path d="M853 622 L865 622 L865 633 L853 633 L853 622 Z" />
      </clipPath>
    </defs>
    <g font-size="9" fill="rgb(238,201,142)" stroke-linejoin="round" stroke="rgb(238,201,142)" stroke-width="0" stroke-miterlimit="0">
      <rect x="278" y="10" clip-path="url(#clipPath1)" width="70" height="30" stroke="none" />
    </g>
    <g font-size="9" stroke-width="0.1" stroke-linecap="butt">
      <rect x="278" y="10" clip-path="url(#clipPath1)" fill="none" width="69" height="29" />
      <text x="289" font-size="14" y="30" clip-path="url(#clipPath2)" stroke="none" xml:space="preserve">System</text>
      <line clip-path="url(#clipPath3)" fill="none" x1="312" x2="312" y1="40" y2="720" stroke-dasharray="10,10" stroke-width="1.1" />
    </g>
    <g stroke-linecap="butt" font-size="9" fill="rgb(255,245,181)" stroke-dasharray="10,10" stroke="rgb(255,245,181)" stroke-width="1.1">
      <rect x="378" y="10" clip-path="url(#clipPath4)" width="104" height="50" stroke="none" />
    </g>
    <g font-size="9" stroke-width="0.1" stroke-linecap="butt">
      <rect x="378" y="10" clip-path="url(#clipPath4)" fill="none" width="103" height="49" />
      <text x="409" font-size="14" y="24" clip-path="url(#clipPath5)" stroke="none" xml:space="preserve">Benny</text>
      <text x="425" font-size="14" y="41" clip-path="url(#clipPath6)" stroke="none" xml:space="preserve">: </text>
      <text x="379" font-size="14" y="58" clip-path="url(#clipPath7)" stroke="none" xml:space="preserve">actWeakPerson</text>
      <line clip-path="url(#clipPath8)" fill="none" x1="429" x2="429" y1="60" y2="720" stroke-dasharray="10,10" stroke-width="1.1" />
    </g>
    <g stroke-linecap="butt" font-size="9" fill="rgb(39,76,114)" stroke-dasharray="10,10" stroke="rgb(39,76,114)" stroke-width="1.1">
      <rect x="420" y="330" clip-path="url(#clipPath9)" width="20" height="40" stroke="none" />
      <rect x="420" y="330" clip-path="url(#clipPath9)" fill="none" width="19" stroke-dasharray="none" height="39" stroke-width="0.1" />
    </g>
    <g font-size="14" stroke-width="0.1" stroke-linecap="butt">
      <text xml:space="preserve" x="441" y="344" clip-path="url(#clipPath10)" stroke="none">out03</text>
      <rect x="420" y="450" clip-path="url(#clipPath11)" fill="rgb(39,76,114)" width="20" height="40" stroke="none" />
      <rect x="420" y="450" clip-path="url(#clipPath11)" fill="none" width="19" height="39" stroke="rgb(39,76,114)" />
      <text xml:space="preserve" x="441" y="464" clip-path="url(#clipPath12)" stroke="none">out04</text>
      <rect x="420" y="570" clip-path="url(#clipPath13)" fill="rgb(39,76,114)" width="20" height="40" stroke="none" />
      <rect x="420" y="570" clip-path="url(#clipPath13)" fill="none" width="19" height="39" stroke="rgb(39,76,114)" />
      <text xml:space="preserve" x="441" y="584" clip-path="url(#clipPath14)" stroke="none">out05</text>
      <rect x="420" y="270" clip-path="url(#clipPath15)" fill="rgb(194,239,255)" width="20" height="40" stroke="none" />
      <rect x="420" y="270" clip-path="url(#clipPath15)" fill="none" width="19" height="39" stroke="rgb(194,239,255)" />
      <text xml:space="preserve" x="441" y="284" clip-path="url(#clipPath16)" stroke="none">in02</text>
      <rect x="420" y="390" clip-path="url(#clipPath17)" fill="rgb(194,239,255)" width="20" height="40" stroke="none" />
      <rect x="420" y="390" clip-path="url(#clipPath17)" fill="none" width="19" height="39" stroke="rgb(194,239,255)" />
      <text xml:space="preserve" x="441" y="404" clip-path="url(#clipPath18)" stroke="none">in03</text>
      <rect x="420" y="510" clip-path="url(#clipPath19)" fill="rgb(194,239,255)" width="20" height="40" stroke="none" />
      <rect x="420" y="510" clip-path="url(#clipPath19)" fill="none" width="19" height="39" stroke="rgb(194,239,255)" />
      <text xml:space="preserve" x="441" y="524" clip-path="url(#clipPath20)" stroke="none">in04</text>
      <rect x="505" y="10" clip-path="url(#clipPath21)" fill="rgb(255,245,181)" width="113" height="50" stroke="none" />
      <rect x="505" y="10" clip-path="url(#clipPath21)" fill="none" width="112" height="49" />
      <text xml:space="preserve" x="527" y="24" clip-path="url(#clipPath22)" stroke="none">BennyGPS</text>
      <text xml:space="preserve" x="557" y="41" clip-path="url(#clipPath23)" stroke="none">: </text>
      <text xml:space="preserve" x="507" y="58" clip-path="url(#clipPath24)" stroke="none">actPositionReq...</text>
      <line clip-path="url(#clipPath25)" fill="none" x1="560" x2="560" y1="60" y2="720" stroke-dasharray="10,10" stroke-width="1.1" />
    </g>
    <g stroke-linecap="butt" font-size="9" fill="rgb(39,76,114)" stroke-dasharray="10,10" stroke="rgb(39,76,114)" stroke-width="1.1">
      <rect x="551" y="90" clip-path="url(#clipPath26)" width="20" height="40" stroke="none" />
      <rect x="551" y="90" clip-path="url(#clipPath26)" fill="none" width="19" stroke-dasharray="none" height="39" stroke-width="0.1" />
    </g>
    <g font-size="14" stroke-width="0.1" stroke-linecap="butt">
      <text xml:space="preserve" x="572" y="104" clip-path="url(#clipPath27)" stroke="none">out01</text>
      <rect x="635" y="10" clip-path="url(#clipPath28)" fill="rgb(255,245,181)" width="150" height="50" stroke="none" />
      <rect x="635" y="10" clip-path="url(#clipPath28)" fill="none" width="149" height="49" />
      <text xml:space="preserve" x="686" y="32" clip-path="url(#clipPath29)" stroke="none">Garmin</text>
      <text xml:space="preserve" x="673" y="49" clip-path="url(#clipPath29)" stroke="none">: actSensor</text>
      <line clip-path="url(#clipPath30)" fill="none" x1="709" x2="709" y1="60" y2="720" stroke-dasharray="10,10" stroke-width="1.1" />
    </g>
    <g stroke-linecap="butt" font-size="9" fill="rgb(39,76,114)" stroke-dasharray="10,10" stroke="rgb(39,76,114)" stroke-width="1.1">
      <rect x="700" y="210" clip-path="url(#clipPath31)" width="20" height="40" stroke="none" />
      <rect x="700" y="210" clip-path="url(#clipPath31)" fill="none" width="19" stroke-dasharray="none" height="39" stroke-width="0.1" />
    </g>
    <g font-size="14" stroke-width="0.1" stroke-linecap="butt">
      <text xml:space="preserve" x="721" y="224" clip-path="url(#clipPath32)" stroke="none">out02</text>
      <rect x="700" y="150" clip-path="url(#clipPath33)" fill="rgb(194,239,255)" width="20" height="40" stroke="none" />
      <rect x="700" y="150" clip-path="url(#clipPath33)" fill="none" width="19" height="39" stroke="rgb(194,239,255)" />
      <text xml:space="preserve" x="721" y="164" clip-path="url(#clipPath34)" stroke="none">in01</text>
      <rect x="797" y="10" clip-path="url(#clipPath35)" fill="rgb(255,245,181)" width="150" height="50" stroke="none" />
      <rect x="797" y="10" clip-path="url(#clipPath35)" fill="none" width="149" height="49" />
      <text xml:space="preserve" x="851" y="32" clip-path="url(#clipPath36)" stroke="none">Tango</text>
      <text xml:space="preserve" x="806" y="49" clip-path="url(#clipPath37)" stroke="none">: actPhoneCompany</text>
      <line clip-path="url(#clipPath38)" fill="none" x1="871" x2="871" y1="60" y2="720" stroke-dasharray="10,10" stroke-width="1.1" />
    </g>
    <g stroke-linecap="butt" font-size="9" fill="rgb(194,239,255)" stroke-dasharray="10,10" stroke="rgb(194,239,255)" stroke-width="1.1">
      <rect x="862" y="627" clip-path="url(#clipPath39)" width="20" height="40" stroke="none" />
      <rect x="862" y="627" clip-path="url(#clipPath39)" fill="none" width="19" stroke-dasharray="none" height="39" stroke-width="0.1" />
    </g>
    <g font-size="14" stroke-width="0.1" stroke-linecap="butt">
      <text xml:space="preserve" x="883" y="641" clip-path="url(#clipPath40)" stroke="none">in05</text>
      <line clip-path="url(#clipPath41)" fill="none" x1="551" x2="313" y1="90" y2="90" stroke="rgb(136,136,136)" stroke-width="2.1" />
      <text x="343" y="86" clip-path="url(#clipPath42)" stroke="none" stroke-width="2.1" xml:space="preserve">oeGetPositionFromSensor()</text>
      <line clip-path="url(#clipPath43)" fill="none" x1="320" x2="313" y1="87" y2="90" stroke="rgb(136,136,136)" stroke-width="2.1" />
      <line clip-path="url(#clipPath43)" fill="none" x1="313" x2="320" y1="90" y2="93" stroke="rgb(136,136,136)" stroke-width="2.1" />
      <line clip-path="url(#clipPath41)" fill="none" x1="700" x2="313" y1="210" y2="210" stroke="rgb(136,136,136)" stroke-width="2.1" />
      <text x="384" y="206" clip-path="url(#clipPath44)" stroke="none" stroke-width="2.1" xml:space="preserve">oeSendPos("49.626506, 6.163065")</text>
      <line clip-path="url(#clipPath45)" fill="none" x1="320" x2="313" y1="207" y2="210" stroke="rgb(136,136,136)" stroke-width="2.1" />
      <line clip-path="url(#clipPath45)" fill="none" x1="313" x2="320" y1="210" y2="213" stroke="rgb(136,136,136)" stroke-width="2.1" />
      <line clip-path="url(#clipPath41)" fill="none" x1="420" x2="313" y1="330" y2="330" stroke="rgb(136,136,136)" stroke-width="2.1" />
      <text x="103" y="326" clip-path="url(#clipPath46)" stroke="none" stroke-width="2.1" xml:space="preserve">oeInputManualPos("1 rue des maraîchers-Luxembourg","49.626506, 6.163065")</text>
      <line clip-path="url(#clipPath47)" fill="none" x1="320" x2="313" y1="327" y2="330" stroke="rgb(136,136,136)" stroke-width="2.1" />
      <line clip-path="url(#clipPath47)" fill="none" x1="313" x2="320" y1="330" y2="333" stroke="rgb(136,136,136)" stroke-width="2.1" />
      <line clip-path="url(#clipPath41)" fill="none" x1="420" x2="313" y1="450" y2="450" stroke="rgb(136,136,136)" stroke-width="2.1" />
      <text x="24" y="446" clip-path="url(#clipPath48)" stroke="none" stroke-width="2.1" xml:space="preserve">oeSendHelpRequest("Benny Hill","6611726354","49.618416, 6.172678","1 rue de Cents - Luxembourg")</text>
      <line clip-path="url(#clipPath49)" fill="none" x1="320" x2="313" y1="447" y2="450" stroke="rgb(136,136,136)" stroke-width="2.1" />
      <line clip-path="url(#clipPath49)" fill="none" x1="313" x2="320" y1="450" y2="453" stroke="rgb(136,136,136)" stroke-width="2.1" />
      <line clip-path="url(#clipPath41)" fill="none" x1="420" x2="313" y1="570" y2="570" stroke="rgb(136,136,136)" stroke-width="2.1" />
      <text x="287" y="566" clip-path="url(#clipPath50)" stroke="none" stroke-width="2.1" xml:space="preserve">oeAlertFamily("Hid : 12")</text>
      <line clip-path="url(#clipPath51)" fill="none" x1="320" x2="313" y1="567" y2="570" stroke="rgb(136,136,136)" stroke-width="2.1" />
      <line clip-path="url(#clipPath51)" fill="none" x1="313" x2="320" y1="570" y2="573" stroke="rgb(136,136,136)" stroke-width="2.1" />
    </g>
    <g stroke-linecap="butt" font-size="14" fill="rgb(136,136,136)" stroke-dasharray="5,5" stroke="rgb(136,136,136)" stroke-width="2.1">
      <line clip-path="url(#clipPath41)" fill="none" x1="700" x2="313" y1="150" y2="150" />
      <text x="449" y="146" clip-path="url(#clipPath52)" fill="black" stroke="none" xml:space="preserve">iereqCurrentPos()</text>
      <line clip-path="url(#clipPath53)" fill="none" x1="693" x2="700" y1="153" y2="150" stroke-dasharray="none" />
      <line clip-path="url(#clipPath53)" fill="none" x1="700" x2="693" y1="150" y2="147" stroke-dasharray="none" />
      <line clip-path="url(#clipPath41)" fill="none" x1="420" x2="313" y1="270" y2="270" />
      <text x="237" y="266" clip-path="url(#clipPath54)" fill="black" stroke="none" xml:space="preserve">ieSentdPosition(49.626506, 6.163065)</text>
      <line clip-path="url(#clipPath55)" fill="none" x1="413" x2="420" y1="273" y2="270" stroke-dasharray="none" />
      <line clip-path="url(#clipPath55)" fill="none" x1="420" x2="413" y1="270" y2="267" stroke-dasharray="none" />
      <line clip-path="url(#clipPath41)" fill="none" x1="420" x2="313" y1="390" y2="390" />
      <text x="130" y="386" clip-path="url(#clipPath56)" fill="black" stroke="none" xml:space="preserve">ieConfirmPos(1 rue des maraîchers-Luxembourg,49.626506, 6.163065)</text>
      <line clip-path="url(#clipPath57)" fill="none" x1="413" x2="420" y1="393" y2="390" stroke-dasharray="none" />
      <line clip-path="url(#clipPath57)" fill="none" x1="420" x2="413" y1="390" y2="387" stroke-dasharray="none" />
      <line clip-path="url(#clipPath41)" fill="none" x1="420" x2="313" y1="510" y2="510" />
      <text x="167" y="506" clip-path="url(#clipPath58)" fill="black" stroke="none" xml:space="preserve">ieSentConfirmationMessage(Your help request has been sent)</text>
      <line clip-path="url(#clipPath59)" fill="none" x1="413" x2="420" y1="513" y2="510" stroke-dasharray="none" />
      <line clip-path="url(#clipPath59)" fill="none" x1="420" x2="413" y1="510" y2="507" stroke-dasharray="none" />
      <line clip-path="url(#clipPath41)" fill="none" x1="862" x2="313" y1="627" y2="627" />
      <text x="468" y="656" clip-path="url(#clipPath60)" fill="black" stroke="none" xml:space="preserve">ieSmsForFamily(Benny has sent an </text>
      <text x="493" y="673" clip-path="url(#clipPath60)" fill="black" stroke="none" xml:space="preserve">help request,6611726354)</text>
      <line clip-path="url(#clipPath61)" fill="none" x1="855" x2="862" y1="630" y2="627" stroke-dasharray="none" />
      <line clip-path="url(#clipPath61)" fill="none" x1="862" x2="855" y1="627" y2="624" stroke-dasharray="none" />
    </g>
  </g>
</svg>

