<?xml version="1.0" encoding="UTF-8"?>
<svg xmlns="http://www.w3.org/2000/svg" xmlns:xlink="http://www.w3.org/1999/xlink" stroke-dasharray="none" shape-rendering="auto" font-family="'Dialog'" width="719" text-rendering="auto" fill-opacity="1" contentScriptType="text/ecmascript" color-interpolation="auto" color-rendering="auto" preserveAspectRatio="xMidYMid meet" font-size="12" viewBox="0 0 719 582" fill="black" stroke="black" image-rendering="auto" stroke-miterlimit="10" zoomAndPan="magnify" version="1.0" stroke-linecap="square" stroke-linejoin="miter" contentStyleType="text/css" font-style="normal" height="582" stroke-width="1" stroke-dashoffset="0" font-weight="normal" stroke-opacity="1">
  <!--Generated by the Batik Graphics2D SVG Generator-->
  <defs id="genericDefs" />
  <g>
    <defs id="defs1">
      <clipPath clipPathUnits="userSpaceOnUse" id="clipPath1">
        <path d="M9 9 L81 9 L81 41 L9 41 L9 9 Z" />
      </clipPath>
      <clipPath clipPathUnits="userSpaceOnUse" id="clipPath2">
        <path d="M9 9 L85 9 L85 41 L9 41 L9 9 Z" />
      </clipPath>
      <clipPath clipPathUnits="userSpaceOnUse" id="clipPath3">
        <path d="M39 39 L51 39 L51 573 L39 573 L39 39 Z" />
      </clipPath>
      <clipPath clipPathUnits="userSpaceOnUse" id="clipPath4">
        <path d="M107 9 L259 9 L259 97 L107 97 L107 9 Z" />
      </clipPath>
      <clipPath clipPathUnits="userSpaceOnUse" id="clipPath5">
        <path d="M107 9 L263 9 L263 97 L107 97 L107 9 Z" />
      </clipPath>
      <clipPath clipPathUnits="userSpaceOnUse" id="clipPath6">
        <path d="M107 9 L262 9 L262 97 L107 97 L107 9 Z" />
      </clipPath>
      <clipPath clipPathUnits="userSpaceOnUse" id="clipPath7">
        <path d="M177 95 L189 95 L189 573 L177 573 L177 95 Z" />
      </clipPath>
      <clipPath clipPathUnits="userSpaceOnUse" id="clipPath8">
        <path d="M172 121 L194 121 L194 163 L172 163 L172 121 Z" />
      </clipPath>
      <clipPath clipPathUnits="userSpaceOnUse" id="clipPath9">
        <path d="M193 121 L237 121 L237 140 L193 140 L193 121 Z" />
      </clipPath>
      <clipPath clipPathUnits="userSpaceOnUse" id="clipPath10">
        <path d="M289 9 L441 9 L441 113 L289 113 L289 9 Z" />
      </clipPath>
      <clipPath clipPathUnits="userSpaceOnUse" id="clipPath11">
        <path d="M289 9 L445 9 L445 113 L289 113 L289 9 Z" />
      </clipPath>
      <clipPath clipPathUnits="userSpaceOnUse" id="clipPath12">
        <path d="M289 9 L444 9 L444 113 L289 113 L289 9 Z" />
      </clipPath>
      <clipPath clipPathUnits="userSpaceOnUse" id="clipPath13">
        <path d="M359 111 L371 111 L371 573 L359 573 L359 111 Z" />
      </clipPath>
      <clipPath clipPathUnits="userSpaceOnUse" id="clipPath14">
        <path d="M354 241 L376 241 L376 283 L354 283 L354 241 Z" />
      </clipPath>
      <clipPath clipPathUnits="userSpaceOnUse" id="clipPath15">
        <path d="M375 241 L419 241 L419 260 L375 260 L375 241 Z" />
      </clipPath>
      <clipPath clipPathUnits="userSpaceOnUse" id="clipPath16">
        <path d="M354 181 L376 181 L376 223 L354 223 L354 181 Z" />
      </clipPath>
      <clipPath clipPathUnits="userSpaceOnUse" id="clipPath17">
        <path d="M375 181 L410 181 L410 200 L375 200 L375 181 Z" />
      </clipPath>
      <clipPath clipPathUnits="userSpaceOnUse" id="clipPath18">
        <path d="M354 301 L376 301 L376 343 L354 343 L354 301 Z" />
      </clipPath>
      <clipPath clipPathUnits="userSpaceOnUse" id="clipPath19">
        <path d="M375 301 L410 301 L410 320 L375 320 L375 301 Z" />
      </clipPath>
      <clipPath clipPathUnits="userSpaceOnUse" id="clipPath20">
        <path d="M354 481 L376 481 L376 523 L354 523 L354 481 Z" />
      </clipPath>
      <clipPath clipPathUnits="userSpaceOnUse" id="clipPath21">
        <path d="M375 481 L410 481 L410 500 L375 500 L375 481 Z" />
      </clipPath>
      <clipPath clipPathUnits="userSpaceOnUse" id="clipPath22">
        <path d="M469 9 L710 9 L710 106 L469 106 L469 9 Z" />
      </clipPath>
      <clipPath clipPathUnits="userSpaceOnUse" id="clipPath23">
        <path d="M469 9 L714 9 L714 106 L469 106 L469 9 Z" />
      </clipPath>
      <clipPath clipPathUnits="userSpaceOnUse" id="clipPath24">
        <path d="M469 9 L713 9 L713 106 L469 106 L469 9 Z" />
      </clipPath>
      <clipPath clipPathUnits="userSpaceOnUse" id="clipPath25">
        <path d="M583 104 L595 104 L595 573 L583 573 L583 104 Z" />
      </clipPath>
      <clipPath clipPathUnits="userSpaceOnUse" id="clipPath26">
        <path d="M578 421 L600 421 L600 463 L578 463 L578 421 Z" />
      </clipPath>
      <clipPath clipPathUnits="userSpaceOnUse" id="clipPath27">
        <path d="M599 421 L643 421 L643 440 L599 440 L599 421 Z" />
      </clipPath>
      <clipPath clipPathUnits="userSpaceOnUse" id="clipPath28">
        <path d="M578 361 L600 361 L600 403 L578 403 L578 361 Z" />
      </clipPath>
      <clipPath clipPathUnits="userSpaceOnUse" id="clipPath29">
        <path d="M599 361 L634 361 L634 380 L599 380 L599 361 Z" />
      </clipPath>
      <clipPath clipPathUnits="userSpaceOnUse" id="clipPath30">
        <path d="M-1 -1 L720 -1 L720 583 L-1 583 L-1 -1 Z" />
      </clipPath>
      <clipPath clipPathUnits="userSpaceOnUse" id="clipPath31">
        <path d="M59 103 L162 103 L162 122 L59 122 L59 103 Z" />
      </clipPath>
      <clipPath clipPathUnits="userSpaceOnUse" id="clipPath32">
        <path d="M43 117 L55 117 L55 128 L43 128 L43 117 Z" />
      </clipPath>
      <clipPath clipPathUnits="userSpaceOnUse" id="clipPath33">
        <path d="M127 223 L277 223 L277 242 L127 242 L127 223 Z" />
      </clipPath>
      <clipPath clipPathUnits="userSpaceOnUse" id="clipPath34">
        <path d="M43 237 L55 237 L55 248 L43 248 L43 237 Z" />
      </clipPath>
      <clipPath clipPathUnits="userSpaceOnUse" id="clipPath35">
        <path d="M239 403 L389 403 L389 422 L239 422 L239 403 Z" />
      </clipPath>
      <clipPath clipPathUnits="userSpaceOnUse" id="clipPath36">
        <path d="M43 417 L55 417 L55 428 L43 428 L43 417 Z" />
      </clipPath>
      <clipPath clipPathUnits="userSpaceOnUse" id="clipPath37">
        <path d="M119 163 L284 163 L284 182 L119 182 L119 163 Z" />
      </clipPath>
      <clipPath clipPathUnits="userSpaceOnUse" id="clipPath38">
        <path d="M346 177 L358 177 L358 188 L346 188 L346 177 Z" />
      </clipPath>
      <clipPath clipPathUnits="userSpaceOnUse" id="clipPath39">
        <path d="M109 283 L295 283 L295 302 L109 302 L109 283 Z" />
      </clipPath>
      <clipPath clipPathUnits="userSpaceOnUse" id="clipPath40">
        <path d="M346 297 L358 297 L358 308 L346 308 L346 297 Z" />
      </clipPath>
      <clipPath clipPathUnits="userSpaceOnUse" id="clipPath41">
        <path d="M255 343 L372 343 L372 362 L255 362 L255 343 Z" />
      </clipPath>
      <clipPath clipPathUnits="userSpaceOnUse" id="clipPath42">
        <path d="M570 357 L582 357 L582 368 L570 368 L570 357 Z" />
      </clipPath>
      <clipPath clipPathUnits="userSpaceOnUse" id="clipPath43">
        <path d="M120 463 L283 463 L283 482 L120 482 L120 463 Z" />
      </clipPath>
      <clipPath clipPathUnits="userSpaceOnUse" id="clipPath44">
        <path d="M346 477 L358 477 L358 488 L346 488 L346 477 Z" />
      </clipPath>
    </defs>
    <g font-size="9" fill="rgb(238,201,142)" stroke-linejoin="round" stroke="rgb(238,201,142)" stroke-width="0" stroke-miterlimit="0">
      <rect x="10" y="10" clip-path="url(#clipPath1)" width="70" height="30" stroke="none" />
    </g>
    <g font-size="9" stroke-width="0.1" stroke-linecap="butt">
      <rect x="10" y="10" clip-path="url(#clipPath1)" fill="none" width="69" height="29" />
      <text x="21" font-size="14" y="30" clip-path="url(#clipPath2)" stroke="none" xml:space="preserve">System</text>
      <line clip-path="url(#clipPath3)" fill="none" x1="44" x2="44" y1="40" y2="572" stroke-dasharray="10,10" stroke-width="1.1" />
    </g>
    <g stroke-linecap="butt" font-size="9" fill="rgb(255,245,181)" stroke-dasharray="10,10" stroke="rgb(255,245,181)" stroke-width="1.1">
      <rect x="108" y="10" clip-path="url(#clipPath4)" width="150" height="86" stroke="none" />
    </g>
    <g font-size="9" stroke-width="0.1" stroke-linecap="butt">
      <rect x="108" y="10" clip-path="url(#clipPath4)" fill="none" width="149" height="85" />
      <text x="166" font-size="14" y="50" clip-path="url(#clipPath5)" stroke="none" xml:space="preserve">John</text>
      <text x="128" font-size="14" y="67" clip-path="url(#clipPath6)" stroke="none" xml:space="preserve">: actWeakPerson</text>
      <line clip-path="url(#clipPath7)" fill="none" x1="182" x2="182" y1="96" y2="572" stroke-dasharray="10,10" stroke-width="1.1" />
    </g>
    <g stroke-linecap="butt" font-size="9" fill="rgb(39,76,114)" stroke-dasharray="10,10" stroke="rgb(39,76,114)" stroke-width="1.1">
      <rect x="173" y="122" clip-path="url(#clipPath8)" width="20" height="40" stroke="none" />
      <rect x="173" y="122" clip-path="url(#clipPath8)" fill="none" width="19" stroke-dasharray="none" height="39" stroke-width="0.1" />
    </g>
    <g font-size="14" stroke-width="0.1" stroke-linecap="butt">
      <text xml:space="preserve" x="194" y="136" clip-path="url(#clipPath9)" stroke="none">out01</text>
      <rect x="290" y="10" clip-path="url(#clipPath10)" fill="rgb(255,245,181)" width="150" height="102" stroke="none" />
      <rect x="290" y="10" clip-path="url(#clipPath10)" fill="none" width="149" height="101" />
      <text xml:space="preserve" x="350" y="58" clip-path="url(#clipPath11)" stroke="none">DB1</text>
      <text xml:space="preserve" x="304" y="75" clip-path="url(#clipPath12)" stroke="none">: actMainDatabase</text>
      <line clip-path="url(#clipPath13)" fill="none" x1="364" x2="364" y1="112" y2="572" stroke-dasharray="10,10" stroke-width="1.1" />
    </g>
    <g stroke-linecap="butt" font-size="9" fill="rgb(39,76,114)" stroke-dasharray="10,10" stroke="rgb(39,76,114)" stroke-width="1.1">
      <rect x="355" y="242" clip-path="url(#clipPath14)" width="20" height="40" stroke="none" />
      <rect x="355" y="242" clip-path="url(#clipPath14)" fill="none" width="19" stroke-dasharray="none" height="39" stroke-width="0.1" />
    </g>
    <g font-size="14" stroke-width="0.1" stroke-linecap="butt">
      <text xml:space="preserve" x="376" y="256" clip-path="url(#clipPath15)" stroke="none">out02</text>
      <rect x="355" y="182" clip-path="url(#clipPath16)" fill="rgb(194,239,255)" width="20" height="40" stroke="none" />
      <rect x="355" y="182" clip-path="url(#clipPath16)" fill="none" width="19" height="39" stroke="rgb(194,239,255)" />
      <text xml:space="preserve" x="376" y="196" clip-path="url(#clipPath17)" stroke="none">in01</text>
      <rect x="355" y="302" clip-path="url(#clipPath18)" fill="rgb(194,239,255)" width="20" height="40" stroke="none" />
      <rect x="355" y="302" clip-path="url(#clipPath18)" fill="none" width="19" height="39" stroke="rgb(194,239,255)" />
      <text xml:space="preserve" x="376" y="316" clip-path="url(#clipPath19)" stroke="none">in02</text>
      <rect x="355" y="482" clip-path="url(#clipPath20)" fill="rgb(194,239,255)" width="20" height="40" stroke="none" />
      <rect x="355" y="482" clip-path="url(#clipPath20)" fill="none" width="19" height="39" stroke="rgb(194,239,255)" />
      <text xml:space="preserve" x="376" y="496" clip-path="url(#clipPath21)" stroke="none">in04</text>
      <rect x="470" y="10" clip-path="url(#clipPath22)" fill="rgb(255,245,181)" width="239" height="95" stroke="none" />
      <rect x="470" y="10" clip-path="url(#clipPath22)" fill="none" width="238" height="94" />
      <text xml:space="preserve" x="565" y="54" clip-path="url(#clipPath23)" stroke="none">Orange</text>
      <text xml:space="preserve" x="524" y="71" clip-path="url(#clipPath24)" stroke="none">: actPhoneCompany</text>
      <line clip-path="url(#clipPath25)" fill="none" x1="588" x2="588" y1="105" y2="572" stroke-dasharray="10,10" stroke-width="1.1" />
    </g>
    <g stroke-linecap="butt" font-size="9" fill="rgb(39,76,114)" stroke-dasharray="10,10" stroke="rgb(39,76,114)" stroke-width="1.1">
      <rect x="579" y="422" clip-path="url(#clipPath26)" width="20" height="40" stroke="none" />
      <rect x="579" y="422" clip-path="url(#clipPath26)" fill="none" width="19" stroke-dasharray="none" height="39" stroke-width="0.1" />
    </g>
    <g font-size="14" stroke-width="0.1" stroke-linecap="butt">
      <text xml:space="preserve" x="600" y="436" clip-path="url(#clipPath27)" stroke="none">out03</text>
      <rect x="579" y="362" clip-path="url(#clipPath28)" fill="rgb(194,239,255)" width="20" height="40" stroke="none" />
      <rect x="579" y="362" clip-path="url(#clipPath28)" fill="none" width="19" height="39" stroke="rgb(194,239,255)" />
      <text xml:space="preserve" x="600" y="376" clip-path="url(#clipPath29)" stroke="none">in03</text>
      <line clip-path="url(#clipPath30)" fill="none" x1="173" x2="45" y1="122" y2="122" stroke="rgb(136,136,136)" stroke-width="2.1" />
      <text x="60" y="118" clip-path="url(#clipPath31)" stroke="none" stroke-width="2.1" xml:space="preserve">oeAlertFamily()</text>
      <line clip-path="url(#clipPath32)" fill="none" x1="52" x2="45" y1="119" y2="122" stroke="rgb(136,136,136)" stroke-width="2.1" />
      <line clip-path="url(#clipPath32)" fill="none" x1="45" x2="52" y1="122" y2="125" stroke="rgb(136,136,136)" stroke-width="2.1" />
      <line clip-path="url(#clipPath30)" fill="none" x1="355" x2="45" y1="242" y2="242" stroke="rgb(136,136,136)" stroke-width="2.1" />
      <text x="128" y="238" clip-path="url(#clipPath33)" stroke="none" stroke-width="2.1" xml:space="preserve">oeSendFamilyDetails()</text>
      <line clip-path="url(#clipPath34)" fill="none" x1="52" x2="45" y1="239" y2="242" stroke="rgb(136,136,136)" stroke-width="2.1" />
      <line clip-path="url(#clipPath34)" fill="none" x1="45" x2="52" y1="242" y2="245" stroke="rgb(136,136,136)" stroke-width="2.1" />
      <line clip-path="url(#clipPath30)" fill="none" x1="579" x2="45" y1="422" y2="422" stroke="rgb(136,136,136)" stroke-width="2.1" />
      <text x="240" y="418" clip-path="url(#clipPath35)" stroke="none" stroke-width="2.1" xml:space="preserve">oeGetDeliveryReport()</text>
      <line clip-path="url(#clipPath36)" fill="none" x1="52" x2="45" y1="419" y2="422" stroke="rgb(136,136,136)" stroke-width="2.1" />
      <line clip-path="url(#clipPath36)" fill="none" x1="45" x2="52" y1="422" y2="425" stroke="rgb(136,136,136)" stroke-width="2.1" />
    </g>
    <g stroke-linecap="butt" font-size="14" fill="rgb(136,136,136)" stroke-dasharray="5,5" stroke="rgb(136,136,136)" stroke-width="2.1">
      <line clip-path="url(#clipPath30)" fill="none" x1="355" x2="45" y1="182" y2="182" />
      <text x="120" y="178" clip-path="url(#clipPath37)" fill="black" stroke="none" xml:space="preserve">ieFamilyDetailsRequest()</text>
      <line clip-path="url(#clipPath38)" fill="none" x1="348" x2="355" y1="185" y2="182" stroke-dasharray="none" />
      <line clip-path="url(#clipPath38)" fill="none" x1="355" x2="348" y1="182" y2="179" stroke-dasharray="none" />
      <line clip-path="url(#clipPath30)" fill="none" x1="355" x2="45" y1="302" y2="302" />
      <text x="110" y="298" clip-path="url(#clipPath39)" fill="black" stroke="none" xml:space="preserve">ieConfirmationOfSmsSend()</text>
      <line clip-path="url(#clipPath40)" fill="none" x1="348" x2="355" y1="305" y2="302" stroke-dasharray="none" />
      <line clip-path="url(#clipPath40)" fill="none" x1="355" x2="348" y1="302" y2="299" stroke-dasharray="none" />
      <line clip-path="url(#clipPath30)" fill="none" x1="579" x2="45" y1="362" y2="362" />
      <text x="256" y="358" clip-path="url(#clipPath41)" fill="black" stroke="none" xml:space="preserve">ieSmsForFamily()</text>
      <line clip-path="url(#clipPath42)" fill="none" x1="572" x2="579" y1="365" y2="362" stroke-dasharray="none" />
      <line clip-path="url(#clipPath42)" fill="none" x1="579" x2="572" y1="362" y2="359" stroke-dasharray="none" />
      <line clip-path="url(#clipPath30)" fill="none" x1="355" x2="45" y1="482" y2="482" />
      <text x="121" y="478" clip-path="url(#clipPath43)" fill="black" stroke="none" xml:space="preserve">ieFamilyDeliveryReport()</text>
      <line clip-path="url(#clipPath44)" fill="none" x1="348" x2="355" y1="485" y2="482" stroke-dasharray="none" />
      <line clip-path="url(#clipPath44)" fill="none" x1="355" x2="348" y1="482" y2="479" stroke-dasharray="none" />
    </g>
  </g>
</svg>

