<?xml version="1.0" encoding="UTF-8"?>
<svg xmlns="http://www.w3.org/2000/svg" xmlns:xlink="http://www.w3.org/1999/xlink" stroke-dasharray="none" shape-rendering="auto" font-family="'Dialog'" width="993" text-rendering="auto" fill-opacity="1" contentScriptType="text/ecmascript" color-interpolation="auto" color-rendering="auto" preserveAspectRatio="xMidYMid meet" font-size="12" viewBox="0 0 993 790" fill="black" stroke="black" image-rendering="auto" stroke-miterlimit="10" zoomAndPan="magnify" version="1.0" stroke-linecap="square" stroke-linejoin="miter" contentStyleType="text/css" font-style="normal" height="790" stroke-width="1" stroke-dashoffset="0" font-weight="normal" stroke-opacity="1">
  <!--Generated by the Batik Graphics2D SVG Generator-->
  <defs id="genericDefs" />
  <g>
    <defs id="defs1">
      <clipPath clipPathUnits="userSpaceOnUse" id="clipPath1">
        <path d="M192 9 L264 9 L264 41 L192 41 L192 9 Z" />
      </clipPath>
      <clipPath clipPathUnits="userSpaceOnUse" id="clipPath2">
        <path d="M192 9 L268 9 L268 41 L192 41 L192 9 Z" />
      </clipPath>
      <clipPath clipPathUnits="userSpaceOnUse" id="clipPath3">
        <path d="M222 39 L234 39 L234 781 L222 781 L222 39 Z" />
      </clipPath>
      <clipPath clipPathUnits="userSpaceOnUse" id="clipPath4">
        <path d="M292 9 L444 9 L444 61 L292 61 L292 9 Z" />
      </clipPath>
      <clipPath clipPathUnits="userSpaceOnUse" id="clipPath5">
        <path d="M292 9 L448 9 L448 61 L292 61 L292 9 Z" />
      </clipPath>
      <clipPath clipPathUnits="userSpaceOnUse" id="clipPath6">
        <path d="M292 9 L447 9 L447 61 L292 61 L292 9 Z" />
      </clipPath>
      <clipPath clipPathUnits="userSpaceOnUse" id="clipPath7">
        <path d="M362 59 L374 59 L374 781 L362 781 L362 59 Z" />
      </clipPath>
      <clipPath clipPathUnits="userSpaceOnUse" id="clipPath8">
        <path d="M357 329 L379 329 L379 371 L357 371 L357 329 Z" />
      </clipPath>
      <clipPath clipPathUnits="userSpaceOnUse" id="clipPath9">
        <path d="M378 329 L422 329 L422 348 L378 348 L378 329 Z" />
      </clipPath>
      <clipPath clipPathUnits="userSpaceOnUse" id="clipPath10">
        <path d="M357 449 L379 449 L379 491 L357 491 L357 449 Z" />
      </clipPath>
      <clipPath clipPathUnits="userSpaceOnUse" id="clipPath11">
        <path d="M378 449 L422 449 L422 468 L378 468 L378 449 Z" />
      </clipPath>
      <clipPath clipPathUnits="userSpaceOnUse" id="clipPath12">
        <path d="M357 689 L379 689 L379 731 L357 731 L357 689 Z" />
      </clipPath>
      <clipPath clipPathUnits="userSpaceOnUse" id="clipPath13">
        <path d="M378 689 L422 689 L422 708 L378 708 L378 689 Z" />
      </clipPath>
      <clipPath clipPathUnits="userSpaceOnUse" id="clipPath14">
        <path d="M357 269 L379 269 L379 311 L357 311 L357 269 Z" />
      </clipPath>
      <clipPath clipPathUnits="userSpaceOnUse" id="clipPath15">
        <path d="M378 269 L412 269 L412 288 L378 288 L378 269 Z" />
      </clipPath>
      <clipPath clipPathUnits="userSpaceOnUse" id="clipPath16">
        <path d="M357 389 L379 389 L379 431 L357 431 L357 389 Z" />
      </clipPath>
      <clipPath clipPathUnits="userSpaceOnUse" id="clipPath17">
        <path d="M378 389 L412 389 L412 408 L378 408 L378 389 Z" />
      </clipPath>
      <clipPath clipPathUnits="userSpaceOnUse" id="clipPath18">
        <path d="M357 629 L379 629 L379 671 L357 671 L357 629 Z" />
      </clipPath>
      <clipPath clipPathUnits="userSpaceOnUse" id="clipPath19">
        <path d="M378 629 L412 629 L412 648 L378 648 L378 629 Z" />
      </clipPath>
      <clipPath clipPathUnits="userSpaceOnUse" id="clipPath20">
        <path d="M472 9 L624 9 L624 61 L472 61 L472 9 Z" />
      </clipPath>
      <clipPath clipPathUnits="userSpaceOnUse" id="clipPath21">
        <path d="M472 9 L628 9 L628 61 L472 61 L472 9 Z" />
      </clipPath>
      <clipPath clipPathUnits="userSpaceOnUse" id="clipPath22">
        <path d="M472 9 L627 9 L627 61 L472 61 L472 9 Z" />
      </clipPath>
      <clipPath clipPathUnits="userSpaceOnUse" id="clipPath23">
        <path d="M542 59 L554 59 L554 781 L542 781 L542 59 Z" />
      </clipPath>
      <clipPath clipPathUnits="userSpaceOnUse" id="clipPath24">
        <path d="M537 89 L559 89 L559 131 L537 131 L537 89 Z" />
      </clipPath>
      <clipPath clipPathUnits="userSpaceOnUse" id="clipPath25">
        <path d="M558 89 L602 89 L602 108 L558 108 L558 89 Z" />
      </clipPath>
      <clipPath clipPathUnits="userSpaceOnUse" id="clipPath26">
        <path d="M652 9 L804 9 L804 61 L652 61 L652 9 Z" />
      </clipPath>
      <clipPath clipPathUnits="userSpaceOnUse" id="clipPath27">
        <path d="M652 9 L807 9 L807 61 L652 61 L652 9 Z" />
      </clipPath>
      <clipPath clipPathUnits="userSpaceOnUse" id="clipPath28">
        <path d="M722 59 L734 59 L734 781 L722 781 L722 59 Z" />
      </clipPath>
      <clipPath clipPathUnits="userSpaceOnUse" id="clipPath29">
        <path d="M717 209 L739 209 L739 251 L717 251 L717 209 Z" />
      </clipPath>
      <clipPath clipPathUnits="userSpaceOnUse" id="clipPath30">
        <path d="M738 209 L782 209 L782 228 L738 228 L738 209 Z" />
      </clipPath>
      <clipPath clipPathUnits="userSpaceOnUse" id="clipPath31">
        <path d="M717 149 L739 149 L739 191 L717 191 L717 149 Z" />
      </clipPath>
      <clipPath clipPathUnits="userSpaceOnUse" id="clipPath32">
        <path d="M738 149 L772 149 L772 168 L738 168 L738 149 Z" />
      </clipPath>
      <clipPath clipPathUnits="userSpaceOnUse" id="clipPath33">
        <path d="M832 9 L984 9 L984 61 L832 61 L832 9 Z" />
      </clipPath>
      <clipPath clipPathUnits="userSpaceOnUse" id="clipPath34">
        <path d="M832 9 L988 9 L988 61 L832 61 L832 9 Z" />
      </clipPath>
      <clipPath clipPathUnits="userSpaceOnUse" id="clipPath35">
        <path d="M832 9 L987 9 L987 61 L832 61 L832 9 Z" />
      </clipPath>
      <clipPath clipPathUnits="userSpaceOnUse" id="clipPath36">
        <path d="M902 59 L914 59 L914 781 L902 781 L902 59 Z" />
      </clipPath>
      <clipPath clipPathUnits="userSpaceOnUse" id="clipPath37">
        <path d="M897 569 L919 569 L919 611 L897 611 L897 569 Z" />
      </clipPath>
      <clipPath clipPathUnits="userSpaceOnUse" id="clipPath38">
        <path d="M918 569 L962 569 L962 588 L918 588 L918 569 Z" />
      </clipPath>
      <clipPath clipPathUnits="userSpaceOnUse" id="clipPath39">
        <path d="M897 509 L919 509 L919 551 L897 551 L897 509 Z" />
      </clipPath>
      <clipPath clipPathUnits="userSpaceOnUse" id="clipPath40">
        <path d="M918 509 L952 509 L952 528 L918 528 L918 509 Z" />
      </clipPath>
      <clipPath clipPathUnits="userSpaceOnUse" id="clipPath41">
        <path d="M-1 -1 L994 -1 L994 791 L-1 791 L-1 -1 Z" />
      </clipPath>
      <clipPath clipPathUnits="userSpaceOnUse" id="clipPath42">
        <path d="M293 71 L476 71 L476 90 L293 90 L293 71 Z" />
      </clipPath>
      <clipPath clipPathUnits="userSpaceOnUse" id="clipPath43">
        <path d="M226 85 L238 85 L238 96 L226 96 L226 85 Z" />
      </clipPath>
      <clipPath clipPathUnits="userSpaceOnUse" id="clipPath44">
        <path d="M349 191 L601 191 L601 210 L349 210 L349 191 Z" />
      </clipPath>
      <clipPath clipPathUnits="userSpaceOnUse" id="clipPath45">
        <path d="M226 205 L238 205 L238 216 L226 216 L226 205 Z" />
      </clipPath>
      <clipPath clipPathUnits="userSpaceOnUse" id="clipPath46">
        <path d="M23 311 L566 311 L566 330 L23 330 L23 311 Z" />
      </clipPath>
      <clipPath clipPathUnits="userSpaceOnUse" id="clipPath47">
        <path d="M226 325 L238 325 L238 336 L226 336 L226 325 Z" />
      </clipPath>
      <clipPath clipPathUnits="userSpaceOnUse" id="clipPath48">
        <path d="M220 431 L370 431 L370 450 L220 450 L220 431 Z" />
      </clipPath>
      <clipPath clipPathUnits="userSpaceOnUse" id="clipPath49">
        <path d="M226 445 L238 445 L238 456 L226 456 L226 445 Z" />
      </clipPath>
      <clipPath clipPathUnits="userSpaceOnUse" id="clipPath50">
        <path d="M437 551 L693 551 L693 570 L437 570 L437 551 Z" />
      </clipPath>
      <clipPath clipPathUnits="userSpaceOnUse" id="clipPath51">
        <path d="M226 565 L238 565 L238 576 L226 576 L226 565 Z" />
      </clipPath>
      <clipPath clipPathUnits="userSpaceOnUse" id="clipPath52">
        <path d="M242 671 L347 671 L347 690 L242 690 L242 671 Z" />
      </clipPath>
      <clipPath clipPathUnits="userSpaceOnUse" id="clipPath53">
        <path d="M226 685 L238 685 L238 696 L226 696 L226 685 Z" />
      </clipPath>
      <clipPath clipPathUnits="userSpaceOnUse" id="clipPath54">
        <path d="M414 131 L535 131 L535 150 L414 150 L414 131 Z" />
      </clipPath>
      <clipPath clipPathUnits="userSpaceOnUse" id="clipPath55">
        <path d="M709 145 L721 145 L721 156 L709 156 L709 145 Z" />
      </clipPath>
      <clipPath clipPathUnits="userSpaceOnUse" id="clipPath56">
        <path d="M161 251 L428 251 L428 270 L161 270 L161 251 Z" />
      </clipPath>
      <clipPath clipPathUnits="userSpaceOnUse" id="clipPath57">
        <path d="M349 265 L361 265 L361 276 L349 276 L349 265 Z" />
      </clipPath>
      <clipPath clipPathUnits="userSpaceOnUse" id="clipPath58">
        <path d="M53 371 L536 371 L536 390 L53 390 L53 371 Z" />
      </clipPath>
      <clipPath clipPathUnits="userSpaceOnUse" id="clipPath59">
        <path d="M349 385 L361 385 L361 396 L349 396 L349 385 Z" />
      </clipPath>
      <clipPath clipPathUnits="userSpaceOnUse" id="clipPath60">
        <path d="M265 491 L865 491 L865 510 L265 510 L265 491 Z" />
      </clipPath>
      <clipPath clipPathUnits="userSpaceOnUse" id="clipPath61">
        <path d="M889 505 L901 505 L901 516 L889 516 L889 505 Z" />
      </clipPath>
      <clipPath clipPathUnits="userSpaceOnUse" id="clipPath62">
        <path d="M89 611 L500 611 L500 630 L89 630 L89 611 Z" />
      </clipPath>
      <clipPath clipPathUnits="userSpaceOnUse" id="clipPath63">
        <path d="M349 625 L361 625 L361 636 L349 636 L349 625 Z" />
      </clipPath>
    </defs>
    <g font-size="9" fill="rgb(238,201,142)" stroke-linejoin="round" stroke="rgb(238,201,142)" stroke-width="0" stroke-miterlimit="0">
      <rect x="193" y="10" clip-path="url(#clipPath1)" width="70" height="30" stroke="none" />
    </g>
    <g font-size="9" stroke-width="0.1" stroke-linecap="butt">
      <rect x="193" y="10" clip-path="url(#clipPath1)" fill="none" width="69" height="29" />
      <text x="203" font-size="14" y="30" clip-path="url(#clipPath2)" stroke="none" xml:space="preserve">System</text>
      <line clip-path="url(#clipPath3)" fill="none" x1="227" x2="227" y1="40" y2="780" stroke-dasharray="10,10" stroke-width="1.1" />
    </g>
    <g stroke-linecap="butt" font-size="9" fill="rgb(255,245,181)" stroke-dasharray="10,10" stroke="rgb(255,245,181)" stroke-width="1.1">
      <rect x="293" y="10" clip-path="url(#clipPath4)" width="150" height="50" stroke="none" />
    </g>
    <g font-size="9" stroke-width="0.1" stroke-linecap="butt">
      <rect x="293" y="10" clip-path="url(#clipPath4)" fill="none" width="149" height="49" />
      <text x="347" font-size="14" y="32" clip-path="url(#clipPath5)" stroke="none" xml:space="preserve">Benny</text>
      <text x="312" font-size="14" y="49" clip-path="url(#clipPath6)" stroke="none" xml:space="preserve">: actWeakPerson</text>
      <line clip-path="url(#clipPath7)" fill="none" x1="367" x2="367" y1="60" y2="780" stroke-dasharray="10,10" stroke-width="1.1" />
    </g>
    <g stroke-linecap="butt" font-size="9" fill="rgb(39,76,114)" stroke-dasharray="10,10" stroke="rgb(39,76,114)" stroke-width="1.1">
      <rect x="358" y="330" clip-path="url(#clipPath8)" width="20" height="40" stroke="none" />
      <rect x="358" y="330" clip-path="url(#clipPath8)" fill="none" width="19" stroke-dasharray="none" height="39" stroke-width="0.1" />
    </g>
    <g font-size="14" stroke-width="0.1" stroke-linecap="butt">
      <text xml:space="preserve" x="379" y="344" clip-path="url(#clipPath9)" stroke="none">out03</text>
      <rect x="358" y="450" clip-path="url(#clipPath10)" fill="rgb(39,76,114)" width="20" height="40" stroke="none" />
      <rect x="358" y="450" clip-path="url(#clipPath10)" fill="none" width="19" height="39" stroke="rgb(39,76,114)" />
      <text xml:space="preserve" x="379" y="464" clip-path="url(#clipPath11)" stroke="none">out04</text>
      <rect x="358" y="690" clip-path="url(#clipPath12)" fill="rgb(39,76,114)" width="20" height="40" stroke="none" />
      <rect x="358" y="690" clip-path="url(#clipPath12)" fill="none" width="19" height="39" stroke="rgb(39,76,114)" />
      <text xml:space="preserve" x="379" y="704" clip-path="url(#clipPath13)" stroke="none">out06</text>
      <rect x="358" y="270" clip-path="url(#clipPath14)" fill="rgb(194,239,255)" width="20" height="40" stroke="none" />
      <rect x="358" y="270" clip-path="url(#clipPath14)" fill="none" width="19" height="39" stroke="rgb(194,239,255)" />
      <text xml:space="preserve" x="379" y="284" clip-path="url(#clipPath15)" stroke="none">in02</text>
      <rect x="358" y="390" clip-path="url(#clipPath16)" fill="rgb(194,239,255)" width="20" height="40" stroke="none" />
      <rect x="358" y="390" clip-path="url(#clipPath16)" fill="none" width="19" height="39" stroke="rgb(194,239,255)" />
      <text xml:space="preserve" x="379" y="404" clip-path="url(#clipPath17)" stroke="none">in03</text>
      <rect x="358" y="630" clip-path="url(#clipPath18)" fill="rgb(194,239,255)" width="20" height="40" stroke="none" />
      <rect x="358" y="630" clip-path="url(#clipPath18)" fill="none" width="19" height="39" stroke="rgb(194,239,255)" />
      <text xml:space="preserve" x="379" y="644" clip-path="url(#clipPath19)" stroke="none">in05</text>
      <rect x="473" y="10" clip-path="url(#clipPath20)" fill="rgb(255,245,181)" width="150" height="50" stroke="none" />
      <rect x="473" y="10" clip-path="url(#clipPath20)" fill="none" width="149" height="49" />
      <text xml:space="preserve" x="513" y="32" clip-path="url(#clipPath21)" stroke="none">BennyGPS</text>
      <text xml:space="preserve" x="474" y="49" clip-path="url(#clipPath22)" stroke="none">: actPositionRequester</text>
      <line clip-path="url(#clipPath23)" fill="none" x1="547" x2="547" y1="60" y2="780" stroke-dasharray="10,10" stroke-width="1.1" />
    </g>
    <g stroke-linecap="butt" font-size="9" fill="rgb(39,76,114)" stroke-dasharray="10,10" stroke="rgb(39,76,114)" stroke-width="1.1">
      <rect x="538" y="90" clip-path="url(#clipPath24)" width="20" height="40" stroke="none" />
      <rect x="538" y="90" clip-path="url(#clipPath24)" fill="none" width="19" stroke-dasharray="none" height="39" stroke-width="0.1" />
    </g>
    <g font-size="14" stroke-width="0.1" stroke-linecap="butt">
      <text xml:space="preserve" x="559" y="104" clip-path="url(#clipPath25)" stroke="none">out01</text>
      <rect x="653" y="10" clip-path="url(#clipPath26)" fill="rgb(255,245,181)" width="150" height="50" stroke="none" />
      <rect x="653" y="10" clip-path="url(#clipPath26)" fill="none" width="149" height="49" />
      <text xml:space="preserve" x="705" y="32" clip-path="url(#clipPath27)" stroke="none">Garmin</text>
      <text xml:space="preserve" x="691" y="49" clip-path="url(#clipPath27)" stroke="none">: actSensor</text>
      <line clip-path="url(#clipPath28)" fill="none" x1="727" x2="727" y1="60" y2="780" stroke-dasharray="10,10" stroke-width="1.1" />
    </g>
    <g stroke-linecap="butt" font-size="9" fill="rgb(39,76,114)" stroke-dasharray="10,10" stroke="rgb(39,76,114)" stroke-width="1.1">
      <rect x="718" y="210" clip-path="url(#clipPath29)" width="20" height="40" stroke="none" />
      <rect x="718" y="210" clip-path="url(#clipPath29)" fill="none" width="19" stroke-dasharray="none" height="39" stroke-width="0.1" />
    </g>
    <g font-size="14" stroke-width="0.1" stroke-linecap="butt">
      <text xml:space="preserve" x="739" y="224" clip-path="url(#clipPath30)" stroke="none">out02</text>
      <rect x="718" y="150" clip-path="url(#clipPath31)" fill="rgb(194,239,255)" width="20" height="40" stroke="none" />
      <rect x="718" y="150" clip-path="url(#clipPath31)" fill="none" width="19" height="39" stroke="rgb(194,239,255)" />
      <text xml:space="preserve" x="739" y="164" clip-path="url(#clipPath32)" stroke="none">in01</text>
      <rect x="833" y="10" clip-path="url(#clipPath33)" fill="rgb(255,245,181)" width="150" height="50" stroke="none" />
      <rect x="833" y="10" clip-path="url(#clipPath33)" fill="none" width="149" height="49" />
      <text xml:space="preserve" x="893" y="32" clip-path="url(#clipPath34)" stroke="none">DB1</text>
      <text xml:space="preserve" x="846" y="49" clip-path="url(#clipPath35)" stroke="none">: actMainDatabase</text>
      <line clip-path="url(#clipPath36)" fill="none" x1="907" x2="907" y1="60" y2="780" stroke-dasharray="10,10" stroke-width="1.1" />
    </g>
    <g stroke-linecap="butt" font-size="9" fill="rgb(39,76,114)" stroke-dasharray="10,10" stroke="rgb(39,76,114)" stroke-width="1.1">
      <rect x="898" y="570" clip-path="url(#clipPath37)" width="20" height="40" stroke="none" />
      <rect x="898" y="570" clip-path="url(#clipPath37)" fill="none" width="19" stroke-dasharray="none" height="39" stroke-width="0.1" />
    </g>
    <g font-size="14" stroke-width="0.1" stroke-linecap="butt">
      <text xml:space="preserve" x="919" y="584" clip-path="url(#clipPath38)" stroke="none">out05</text>
      <rect x="898" y="510" clip-path="url(#clipPath39)" fill="rgb(194,239,255)" width="20" height="40" stroke="none" />
      <rect x="898" y="510" clip-path="url(#clipPath39)" fill="none" width="19" height="39" stroke="rgb(194,239,255)" />
      <text xml:space="preserve" x="919" y="524" clip-path="url(#clipPath40)" stroke="none">in04</text>
      <line clip-path="url(#clipPath41)" fill="none" x1="538" x2="228" y1="90" y2="90" stroke="rgb(136,136,136)" stroke-width="2.1" />
      <text x="294" y="86" clip-path="url(#clipPath42)" stroke="none" stroke-width="2.1" xml:space="preserve">oeGetPositionFromSensor()</text>
      <line clip-path="url(#clipPath43)" fill="none" x1="235" x2="228" y1="87" y2="90" stroke="rgb(136,136,136)" stroke-width="2.1" />
      <line clip-path="url(#clipPath43)" fill="none" x1="228" x2="235" y1="90" y2="93" stroke="rgb(136,136,136)" stroke-width="2.1" />
      <line clip-path="url(#clipPath41)" fill="none" x1="718" x2="228" y1="210" y2="210" stroke="rgb(136,136,136)" stroke-width="2.1" />
      <text x="350" y="206" clip-path="url(#clipPath44)" stroke="none" stroke-width="2.1" xml:space="preserve">oeSendPos("49.626506, 6.163065")</text>
      <line clip-path="url(#clipPath45)" fill="none" x1="235" x2="228" y1="207" y2="210" stroke="rgb(136,136,136)" stroke-width="2.1" />
      <line clip-path="url(#clipPath45)" fill="none" x1="228" x2="235" y1="210" y2="213" stroke="rgb(136,136,136)" stroke-width="2.1" />
      <line clip-path="url(#clipPath41)" fill="none" x1="358" x2="228" y1="330" y2="330" stroke="rgb(136,136,136)" stroke-width="2.1" />
      <text x="24" y="326" clip-path="url(#clipPath46)" stroke="none" stroke-width="2.1" xml:space="preserve">oeInputManualPos("1 rue des maraîchers-Luxembourg","49.626506, 6.163065")</text>
      <line clip-path="url(#clipPath47)" fill="none" x1="235" x2="228" y1="327" y2="330" stroke="rgb(136,136,136)" stroke-width="2.1" />
      <line clip-path="url(#clipPath47)" fill="none" x1="228" x2="235" y1="330" y2="333" stroke="rgb(136,136,136)" stroke-width="2.1" />
      <line clip-path="url(#clipPath41)" fill="none" x1="358" x2="228" y1="450" y2="450" stroke="rgb(136,136,136)" stroke-width="2.1" />
      <text x="221" y="446" clip-path="url(#clipPath48)" stroke="none" stroke-width="2.1" xml:space="preserve">oeSendHelpRequest()</text>
      <line clip-path="url(#clipPath49)" fill="none" x1="235" x2="228" y1="447" y2="450" stroke="rgb(136,136,136)" stroke-width="2.1" />
      <line clip-path="url(#clipPath49)" fill="none" x1="228" x2="235" y1="450" y2="453" stroke="rgb(136,136,136)" stroke-width="2.1" />
      <line clip-path="url(#clipPath41)" fill="none" x1="898" x2="228" y1="570" y2="570" stroke="rgb(136,136,136)" stroke-width="2.1" />
      <text x="438" y="566" clip-path="url(#clipPath50)" stroke="none" stroke-width="2.1" xml:space="preserve">oeConfirmEntryAdded("id : 27","true")</text>
      <line clip-path="url(#clipPath51)" fill="none" x1="235" x2="228" y1="567" y2="570" stroke="rgb(136,136,136)" stroke-width="2.1" />
      <line clip-path="url(#clipPath51)" fill="none" x1="228" x2="235" y1="570" y2="573" stroke="rgb(136,136,136)" stroke-width="2.1" />
      <line clip-path="url(#clipPath41)" fill="none" x1="358" x2="228" y1="690" y2="690" stroke="rgb(136,136,136)" stroke-width="2.1" />
      <text x="243" y="686" clip-path="url(#clipPath52)" stroke="none" stroke-width="2.1" xml:space="preserve">oeAlertFamily()</text>
      <line clip-path="url(#clipPath53)" fill="none" x1="235" x2="228" y1="687" y2="690" stroke="rgb(136,136,136)" stroke-width="2.1" />
      <line clip-path="url(#clipPath53)" fill="none" x1="228" x2="235" y1="690" y2="693" stroke="rgb(136,136,136)" stroke-width="2.1" />
    </g>
    <g stroke-linecap="butt" font-size="14" fill="rgb(136,136,136)" stroke-dasharray="5,5" stroke="rgb(136,136,136)" stroke-width="2.1">
      <line clip-path="url(#clipPath41)" fill="none" x1="718" x2="228" y1="150" y2="150" />
      <text x="415" y="146" clip-path="url(#clipPath54)" fill="black" stroke="none" xml:space="preserve">iereqCurrentPos()</text>
      <line clip-path="url(#clipPath55)" fill="none" x1="711" x2="718" y1="153" y2="150" stroke-dasharray="none" />
      <line clip-path="url(#clipPath55)" fill="none" x1="718" x2="711" y1="150" y2="147" stroke-dasharray="none" />
      <line clip-path="url(#clipPath41)" fill="none" x1="358" x2="228" y1="270" y2="270" />
      <text x="162" y="266" clip-path="url(#clipPath56)" fill="black" stroke="none" xml:space="preserve">ieSentdPosition(49.626506, 6.163065)</text>
      <line clip-path="url(#clipPath57)" fill="none" x1="351" x2="358" y1="273" y2="270" stroke-dasharray="none" />
      <line clip-path="url(#clipPath57)" fill="none" x1="358" x2="351" y1="270" y2="267" stroke-dasharray="none" />
      <line clip-path="url(#clipPath41)" fill="none" x1="358" x2="228" y1="390" y2="390" />
      <text x="54" y="386" clip-path="url(#clipPath58)" fill="black" stroke="none" xml:space="preserve">ieConfirmPos(1 rue des maraîchers-Luxembourg,49.626506, 6.163065)</text>
      <line clip-path="url(#clipPath59)" fill="none" x1="351" x2="358" y1="393" y2="390" stroke-dasharray="none" />
      <line clip-path="url(#clipPath59)" fill="none" x1="358" x2="351" y1="390" y2="387" stroke-dasharray="none" />
      <line clip-path="url(#clipPath41)" fill="none" x1="898" x2="228" y1="510" y2="510" />
      <text x="266" y="506" clip-path="url(#clipPath60)" fill="black" stroke="none" xml:space="preserve">ieAddEntry(Benny Hill,6611726354,49.618416, 6.172678,1 rue de Cents - Luxembourg)</text>
      <line clip-path="url(#clipPath61)" fill="none" x1="891" x2="898" y1="513" y2="510" stroke-dasharray="none" />
      <line clip-path="url(#clipPath61)" fill="none" x1="898" x2="891" y1="510" y2="507" stroke-dasharray="none" />
      <line clip-path="url(#clipPath41)" fill="none" x1="358" x2="228" y1="630" y2="630" />
      <text x="90" y="626" clip-path="url(#clipPath62)" fill="black" stroke="none" xml:space="preserve">ieSentConfirmationMessage(Your help request has been sent)</text>
      <line clip-path="url(#clipPath63)" fill="none" x1="351" x2="358" y1="633" y2="630" stroke-dasharray="none" />
      <line clip-path="url(#clipPath63)" fill="none" x1="358" x2="351" y1="630" y2="627" stroke-dasharray="none" />
    </g>
  </g>
</svg>

