<?xml version="1.0" encoding="UTF-8"?>
<svg xmlns="http://www.w3.org/2000/svg" xmlns:xlink="http://www.w3.org/1999/xlink" stroke-dasharray="none" shape-rendering="auto" font-family="'Dialog'" width="1054" text-rendering="auto" fill-opacity="1" contentScriptType="text/ecmascript" color-interpolation="auto" color-rendering="auto" preserveAspectRatio="xMidYMid meet" font-size="12" viewBox="0 0 1054 790" fill="black" stroke="black" image-rendering="auto" stroke-miterlimit="10" zoomAndPan="magnify" version="1.0" stroke-linecap="square" stroke-linejoin="miter" contentStyleType="text/css" font-style="normal" height="790" stroke-width="1" stroke-dashoffset="0" font-weight="normal" stroke-opacity="1">
  <!--Generated by the Batik Graphics2D SVG Generator-->
  <defs id="genericDefs" />
  <g>
    <defs id="defs1">
      <clipPath clipPathUnits="userSpaceOnUse" id="clipPath1">
        <path d="M259 9 L331 9 L331 41 L259 41 L259 9 Z" />
      </clipPath>
      <clipPath clipPathUnits="userSpaceOnUse" id="clipPath2">
        <path d="M259 9 L335 9 L335 41 L259 41 L259 9 Z" />
      </clipPath>
      <clipPath clipPathUnits="userSpaceOnUse" id="clipPath3">
        <path d="M289 39 L301 39 L301 781 L289 781 L289 39 Z" />
      </clipPath>
      <clipPath clipPathUnits="userSpaceOnUse" id="clipPath4">
        <path d="M393 9 L545 9 L545 61 L393 61 L393 9 Z" />
      </clipPath>
      <clipPath clipPathUnits="userSpaceOnUse" id="clipPath5">
        <path d="M393 9 L549 9 L549 61 L393 61 L393 9 Z" />
      </clipPath>
      <clipPath clipPathUnits="userSpaceOnUse" id="clipPath6">
        <path d="M393 9 L548 9 L548 61 L393 61 L393 9 Z" />
      </clipPath>
      <clipPath clipPathUnits="userSpaceOnUse" id="clipPath7">
        <path d="M463 59 L475 59 L475 781 L463 781 L463 59 Z" />
      </clipPath>
      <clipPath clipPathUnits="userSpaceOnUse" id="clipPath8">
        <path d="M458 249 L480 249 L480 291 L458 291 L458 249 Z" />
      </clipPath>
      <clipPath clipPathUnits="userSpaceOnUse" id="clipPath9">
        <path d="M479 249 L523 249 L523 268 L479 268 L479 249 Z" />
      </clipPath>
      <clipPath clipPathUnits="userSpaceOnUse" id="clipPath10">
        <path d="M458 339 L480 339 L480 381 L458 381 L458 339 Z" />
      </clipPath>
      <clipPath clipPathUnits="userSpaceOnUse" id="clipPath11">
        <path d="M479 339 L523 339 L523 358 L479 358 L479 339 Z" />
      </clipPath>
      <clipPath clipPathUnits="userSpaceOnUse" id="clipPath12">
        <path d="M458 429 L480 429 L480 471 L458 471 L458 429 Z" />
      </clipPath>
      <clipPath clipPathUnits="userSpaceOnUse" id="clipPath13">
        <path d="M479 429 L523 429 L523 448 L479 448 L479 429 Z" />
      </clipPath>
      <clipPath clipPathUnits="userSpaceOnUse" id="clipPath14">
        <path d="M458 204 L480 204 L480 246 L458 246 L458 204 Z" />
      </clipPath>
      <clipPath clipPathUnits="userSpaceOnUse" id="clipPath15">
        <path d="M479 204 L513 204 L513 223 L479 223 L479 204 Z" />
      </clipPath>
      <clipPath clipPathUnits="userSpaceOnUse" id="clipPath16">
        <path d="M458 294 L480 294 L480 336 L458 336 L458 294 Z" />
      </clipPath>
      <clipPath clipPathUnits="userSpaceOnUse" id="clipPath17">
        <path d="M479 294 L513 294 L513 313 L479 313 L479 294 Z" />
      </clipPath>
      <clipPath clipPathUnits="userSpaceOnUse" id="clipPath18">
        <path d="M458 384 L480 384 L480 426 L458 426 L458 384 Z" />
      </clipPath>
      <clipPath clipPathUnits="userSpaceOnUse" id="clipPath19">
        <path d="M479 384 L513 384 L513 403 L479 403 L479 384 Z" />
      </clipPath>
      <clipPath clipPathUnits="userSpaceOnUse" id="clipPath20">
        <path d="M553 9 L705 9 L705 61 L553 61 L553 9 Z" />
      </clipPath>
      <clipPath clipPathUnits="userSpaceOnUse" id="clipPath21">
        <path d="M553 9 L709 9 L709 61 L553 61 L553 9 Z" />
      </clipPath>
      <clipPath clipPathUnits="userSpaceOnUse" id="clipPath22">
        <path d="M553 9 L708 9 L708 61 L553 61 L553 9 Z" />
      </clipPath>
      <clipPath clipPathUnits="userSpaceOnUse" id="clipPath23">
        <path d="M623 59 L635 59 L635 781 L623 781 L623 59 Z" />
      </clipPath>
      <clipPath clipPathUnits="userSpaceOnUse" id="clipPath24">
        <path d="M618 69 L640 69 L640 111 L618 111 L618 69 Z" />
      </clipPath>
      <clipPath clipPathUnits="userSpaceOnUse" id="clipPath25">
        <path d="M639 69 L683 69 L683 88 L639 88 L639 69 Z" />
      </clipPath>
      <clipPath clipPathUnits="userSpaceOnUse" id="clipPath26">
        <path d="M733 9 L885 9 L885 61 L733 61 L733 9 Z" />
      </clipPath>
      <clipPath clipPathUnits="userSpaceOnUse" id="clipPath27">
        <path d="M733 9 L888 9 L888 61 L733 61 L733 9 Z" />
      </clipPath>
      <clipPath clipPathUnits="userSpaceOnUse" id="clipPath28">
        <path d="M803 59 L815 59 L815 781 L803 781 L803 59 Z" />
      </clipPath>
      <clipPath clipPathUnits="userSpaceOnUse" id="clipPath29">
        <path d="M798 159 L820 159 L820 201 L798 201 L798 159 Z" />
      </clipPath>
      <clipPath clipPathUnits="userSpaceOnUse" id="clipPath30">
        <path d="M819 159 L863 159 L863 178 L819 178 L819 159 Z" />
      </clipPath>
      <clipPath clipPathUnits="userSpaceOnUse" id="clipPath31">
        <path d="M798 114 L820 114 L820 156 L798 156 L798 114 Z" />
      </clipPath>
      <clipPath clipPathUnits="userSpaceOnUse" id="clipPath32">
        <path d="M819 114 L853 114 L853 133 L819 133 L819 114 Z" />
      </clipPath>
      <clipPath clipPathUnits="userSpaceOnUse" id="clipPath33">
        <path d="M893 9 L1045 9 L1045 61 L893 61 L893 9 Z" />
      </clipPath>
      <clipPath clipPathUnits="userSpaceOnUse" id="clipPath34">
        <path d="M893 9 L1049 9 L1049 61 L893 61 L893 9 Z" />
      </clipPath>
      <clipPath clipPathUnits="userSpaceOnUse" id="clipPath35">
        <path d="M893 9 L1048 9 L1048 61 L893 61 L893 9 Z" />
      </clipPath>
      <clipPath clipPathUnits="userSpaceOnUse" id="clipPath36">
        <path d="M963 59 L975 59 L975 781 L963 781 L963 59 Z" />
      </clipPath>
      <clipPath clipPathUnits="userSpaceOnUse" id="clipPath37">
        <path d="M958 474 L980 474 L980 516 L958 516 L958 474 Z" />
      </clipPath>
      <clipPath clipPathUnits="userSpaceOnUse" id="clipPath38">
        <path d="M979 474 L1013 474 L1013 493 L979 493 L979 474 Z" />
      </clipPath>
      <clipPath clipPathUnits="userSpaceOnUse" id="clipPath39">
        <path d="M-1 -1 L1055 -1 L1055 791 L-1 791 L-1 -1 Z" />
      </clipPath>
      <clipPath clipPathUnits="userSpaceOnUse" id="clipPath40">
        <path d="M367 50 L550 50 L550 69 L367 69 L367 50 Z" />
      </clipPath>
      <clipPath clipPathUnits="userSpaceOnUse" id="clipPath41">
        <path d="M293 64 L305 64 L305 75 L293 75 L293 64 Z" />
      </clipPath>
      <clipPath clipPathUnits="userSpaceOnUse" id="clipPath42">
        <path d="M423 140 L675 140 L675 159 L423 159 L423 140 Z" />
      </clipPath>
      <clipPath clipPathUnits="userSpaceOnUse" id="clipPath43">
        <path d="M293 154 L305 154 L305 165 L293 165 L293 154 Z" />
      </clipPath>
      <clipPath clipPathUnits="userSpaceOnUse" id="clipPath44">
        <path d="M107 230 L650 230 L650 249 L107 249 L107 230 Z" />
      </clipPath>
      <clipPath clipPathUnits="userSpaceOnUse" id="clipPath45">
        <path d="M293 244 L305 244 L305 255 L293 255 L293 244 Z" />
      </clipPath>
      <clipPath clipPathUnits="userSpaceOnUse" id="clipPath46">
        <path d="M23 320 L734 320 L734 339 L23 339 L23 320 Z" />
      </clipPath>
      <clipPath clipPathUnits="userSpaceOnUse" id="clipPath47">
        <path d="M293 334 L305 334 L305 345 L293 345 L293 334 Z" />
      </clipPath>
      <clipPath clipPathUnits="userSpaceOnUse" id="clipPath48">
        <path d="M294 410 L463 410 L463 429 L294 429 L294 410 Z" />
      </clipPath>
      <clipPath clipPathUnits="userSpaceOnUse" id="clipPath49">
        <path d="M293 424 L305 424 L305 435 L293 435 L293 424 Z" />
      </clipPath>
      <clipPath clipPathUnits="userSpaceOnUse" id="clipPath50">
        <path d="M488 95 L609 95 L609 114 L488 114 L488 95 Z" />
      </clipPath>
      <clipPath clipPathUnits="userSpaceOnUse" id="clipPath51">
        <path d="M790 109 L802 109 L802 120 L790 120 L790 109 Z" />
      </clipPath>
      <clipPath clipPathUnits="userSpaceOnUse" id="clipPath52">
        <path d="M245 185 L512 185 L512 204 L245 204 L245 185 Z" />
      </clipPath>
      <clipPath clipPathUnits="userSpaceOnUse" id="clipPath53">
        <path d="M450 199 L462 199 L462 210 L450 210 L450 199 Z" />
      </clipPath>
      <clipPath clipPathUnits="userSpaceOnUse" id="clipPath54">
        <path d="M137 275 L620 275 L620 294 L137 294 L137 275 Z" />
      </clipPath>
      <clipPath clipPathUnits="userSpaceOnUse" id="clipPath55">
        <path d="M450 289 L462 289 L462 300 L450 300 L450 289 Z" />
      </clipPath>
      <clipPath clipPathUnits="userSpaceOnUse" id="clipPath56">
        <path d="M173 365 L584 365 L584 384 L173 384 L173 365 Z" />
      </clipPath>
      <clipPath clipPathUnits="userSpaceOnUse" id="clipPath57">
        <path d="M450 379 L462 379 L462 390 L450 390 L450 379 Z" />
      </clipPath>
      <clipPath clipPathUnits="userSpaceOnUse" id="clipPath58">
        <path d="M419 455 L838 455 L838 474 L419 474 L419 455 Z" />
      </clipPath>
      <clipPath clipPathUnits="userSpaceOnUse" id="clipPath59">
        <path d="M950 469 L962 469 L962 480 L950 480 L950 469 Z" />
      </clipPath>
    </defs>
    <g font-size="9" fill="rgb(238,201,142)" stroke-linejoin="round" stroke="rgb(238,201,142)" stroke-width="0" stroke-miterlimit="0">
      <rect x="260" y="10" clip-path="url(#clipPath1)" width="70" height="30" stroke="none" />
    </g>
    <g font-size="9" stroke-width="0.1" stroke-linecap="butt">
      <rect x="260" y="10" clip-path="url(#clipPath1)" fill="none" width="69" height="29" />
      <text x="270" font-size="14" y="30" clip-path="url(#clipPath2)" stroke="none" xml:space="preserve">System</text>
      <line clip-path="url(#clipPath3)" fill="none" x1="294" x2="294" y1="40" y2="780" stroke-dasharray="10,10" stroke-width="1.1" />
    </g>
    <g stroke-linecap="butt" font-size="9" fill="rgb(255,245,181)" stroke-dasharray="10,10" stroke="rgb(255,245,181)" stroke-width="1.1">
      <rect x="394" y="10" clip-path="url(#clipPath4)" width="150" height="50" stroke="none" />
    </g>
    <g font-size="9" stroke-width="0.1" stroke-linecap="butt">
      <rect x="394" y="10" clip-path="url(#clipPath4)" fill="none" width="149" height="49" />
      <text x="448" font-size="14" y="32" clip-path="url(#clipPath5)" stroke="none" xml:space="preserve">Benny</text>
      <text x="413" font-size="14" y="49" clip-path="url(#clipPath6)" stroke="none" xml:space="preserve">: actWeakPerson</text>
      <line clip-path="url(#clipPath7)" fill="none" x1="468" x2="468" y1="60" y2="780" stroke-dasharray="10,10" stroke-width="1.1" />
    </g>
    <g stroke-linecap="butt" font-size="9" fill="rgb(39,76,114)" stroke-dasharray="10,10" stroke="rgb(39,76,114)" stroke-width="1.1">
      <rect x="459" y="250" clip-path="url(#clipPath8)" width="20" height="40" stroke="none" />
      <rect x="459" y="250" clip-path="url(#clipPath8)" fill="none" width="19" stroke-dasharray="none" height="39" stroke-width="0.1" />
    </g>
    <g font-size="14" stroke-width="0.1" stroke-linecap="butt">
      <text xml:space="preserve" x="480" y="264" clip-path="url(#clipPath9)" stroke="none">out03</text>
      <rect x="459" y="340" clip-path="url(#clipPath10)" fill="rgb(39,76,114)" width="20" height="40" stroke="none" />
      <rect x="459" y="340" clip-path="url(#clipPath10)" fill="none" width="19" height="39" stroke="rgb(39,76,114)" />
      <text xml:space="preserve" x="480" y="354" clip-path="url(#clipPath11)" stroke="none">out04</text>
      <rect x="459" y="430" clip-path="url(#clipPath12)" fill="rgb(39,76,114)" width="20" height="40" stroke="none" />
      <rect x="459" y="430" clip-path="url(#clipPath12)" fill="none" width="19" height="39" stroke="rgb(39,76,114)" />
      <text xml:space="preserve" x="480" y="444" clip-path="url(#clipPath13)" stroke="none">out05</text>
      <rect x="459" y="205" clip-path="url(#clipPath14)" fill="rgb(194,239,255)" width="20" height="40" stroke="none" />
      <rect x="459" y="205" clip-path="url(#clipPath14)" fill="none" width="19" height="39" stroke="rgb(194,239,255)" />
      <text xml:space="preserve" x="480" y="219" clip-path="url(#clipPath15)" stroke="none">in02</text>
      <rect x="459" y="295" clip-path="url(#clipPath16)" fill="rgb(194,239,255)" width="20" height="40" stroke="none" />
      <rect x="459" y="295" clip-path="url(#clipPath16)" fill="none" width="19" height="39" stroke="rgb(194,239,255)" />
      <text xml:space="preserve" x="480" y="309" clip-path="url(#clipPath17)" stroke="none">in03</text>
      <rect x="459" y="385" clip-path="url(#clipPath18)" fill="rgb(194,239,255)" width="20" height="40" stroke="none" />
      <rect x="459" y="385" clip-path="url(#clipPath18)" fill="none" width="19" height="39" stroke="rgb(194,239,255)" />
      <text xml:space="preserve" x="480" y="399" clip-path="url(#clipPath19)" stroke="none">in04</text>
      <rect x="554" y="10" clip-path="url(#clipPath20)" fill="rgb(255,245,181)" width="150" height="50" stroke="none" />
      <rect x="554" y="10" clip-path="url(#clipPath20)" fill="none" width="149" height="49" />
      <text xml:space="preserve" x="594" y="32" clip-path="url(#clipPath21)" stroke="none">BennyGPS</text>
      <text xml:space="preserve" x="555" y="49" clip-path="url(#clipPath22)" stroke="none">: actPositionRequester</text>
      <line clip-path="url(#clipPath23)" fill="none" x1="628" x2="628" y1="60" y2="780" stroke-dasharray="10,10" stroke-width="1.1" />
    </g>
    <g stroke-linecap="butt" font-size="9" fill="rgb(39,76,114)" stroke-dasharray="10,10" stroke="rgb(39,76,114)" stroke-width="1.1">
      <rect x="619" y="70" clip-path="url(#clipPath24)" width="20" height="40" stroke="none" />
      <rect x="619" y="70" clip-path="url(#clipPath24)" fill="none" width="19" stroke-dasharray="none" height="39" stroke-width="0.1" />
    </g>
    <g font-size="14" stroke-width="0.1" stroke-linecap="butt">
      <text xml:space="preserve" x="640" y="84" clip-path="url(#clipPath25)" stroke="none">out01</text>
      <rect x="734" y="10" clip-path="url(#clipPath26)" fill="rgb(255,245,181)" width="150" height="50" stroke="none" />
      <rect x="734" y="10" clip-path="url(#clipPath26)" fill="none" width="149" height="49" />
      <text xml:space="preserve" x="786" y="32" clip-path="url(#clipPath27)" stroke="none">Garmin</text>
      <text xml:space="preserve" x="772" y="49" clip-path="url(#clipPath27)" stroke="none">: actSensor</text>
      <line clip-path="url(#clipPath28)" fill="none" x1="808" x2="808" y1="60" y2="780" stroke-dasharray="10,10" stroke-width="1.1" />
    </g>
    <g stroke-linecap="butt" font-size="9" fill="rgb(39,76,114)" stroke-dasharray="10,10" stroke="rgb(39,76,114)" stroke-width="1.1">
      <rect x="799" y="160" clip-path="url(#clipPath29)" width="20" height="40" stroke="none" />
      <rect x="799" y="160" clip-path="url(#clipPath29)" fill="none" width="19" stroke-dasharray="none" height="39" stroke-width="0.1" />
    </g>
    <g font-size="14" stroke-width="0.1" stroke-linecap="butt">
      <text xml:space="preserve" x="820" y="174" clip-path="url(#clipPath30)" stroke="none">out02</text>
      <rect x="799" y="115" clip-path="url(#clipPath31)" fill="rgb(194,239,255)" width="20" height="40" stroke="none" />
      <rect x="799" y="115" clip-path="url(#clipPath31)" fill="none" width="19" height="39" stroke="rgb(194,239,255)" />
      <text xml:space="preserve" x="820" y="129" clip-path="url(#clipPath32)" stroke="none">in01</text>
      <rect x="894" y="10" clip-path="url(#clipPath33)" fill="rgb(255,245,181)" width="150" height="50" stroke="none" />
      <rect x="894" y="10" clip-path="url(#clipPath33)" fill="none" width="149" height="49" />
      <text xml:space="preserve" x="947" y="32" clip-path="url(#clipPath34)" stroke="none">Tango</text>
      <text xml:space="preserve" x="902" y="49" clip-path="url(#clipPath35)" stroke="none">: actPhoneCompany</text>
      <line clip-path="url(#clipPath36)" fill="none" x1="968" x2="968" y1="60" y2="780" stroke-dasharray="10,10" stroke-width="1.1" />
    </g>
    <g stroke-linecap="butt" font-size="9" fill="rgb(194,239,255)" stroke-dasharray="10,10" stroke="rgb(194,239,255)" stroke-width="1.1">
      <rect x="959" y="475" clip-path="url(#clipPath37)" width="20" height="40" stroke="none" />
      <rect x="959" y="475" clip-path="url(#clipPath37)" fill="none" width="19" stroke-dasharray="none" height="39" stroke-width="0.1" />
    </g>
    <g font-size="14" stroke-width="0.1" stroke-linecap="butt">
      <text xml:space="preserve" x="980" y="489" clip-path="url(#clipPath38)" stroke="none">in05</text>
      <line clip-path="url(#clipPath39)" fill="none" x1="619" x2="295" y1="69" y2="69" stroke="rgb(136,136,136)" stroke-width="2.1" />
      <text x="368" y="65" clip-path="url(#clipPath40)" stroke="none" stroke-width="2.1" xml:space="preserve">oeGetPositionFromSensor()</text>
      <line clip-path="url(#clipPath41)" fill="none" x1="302" x2="295" y1="66" y2="69" stroke="rgb(136,136,136)" stroke-width="2.1" />
      <line clip-path="url(#clipPath41)" fill="none" x1="295" x2="302" y1="69" y2="72" stroke="rgb(136,136,136)" stroke-width="2.1" />
      <line clip-path="url(#clipPath39)" fill="none" x1="799" x2="295" y1="159" y2="159" stroke="rgb(136,136,136)" stroke-width="2.1" />
      <text x="424" y="155" clip-path="url(#clipPath42)" stroke="none" stroke-width="2.1" xml:space="preserve">oeSendPos("49.626506, 6.163065")</text>
      <line clip-path="url(#clipPath43)" fill="none" x1="302" x2="295" y1="156" y2="159" stroke="rgb(136,136,136)" stroke-width="2.1" />
      <line clip-path="url(#clipPath43)" fill="none" x1="295" x2="302" y1="159" y2="162" stroke="rgb(136,136,136)" stroke-width="2.1" />
      <line clip-path="url(#clipPath39)" fill="none" x1="459" x2="295" y1="249" y2="249" stroke="rgb(136,136,136)" stroke-width="2.1" />
      <text x="108" y="245" clip-path="url(#clipPath44)" stroke="none" stroke-width="2.1" xml:space="preserve">oeInputManualPos("1 rue des maraîchers-Luxembourg","49.626506, 6.163065")</text>
      <line clip-path="url(#clipPath45)" fill="none" x1="302" x2="295" y1="246" y2="249" stroke="rgb(136,136,136)" stroke-width="2.1" />
      <line clip-path="url(#clipPath45)" fill="none" x1="295" x2="302" y1="249" y2="252" stroke="rgb(136,136,136)" stroke-width="2.1" />
      <line clip-path="url(#clipPath39)" fill="none" x1="459" x2="295" y1="339" y2="339" stroke="rgb(136,136,136)" stroke-width="2.1" />
      <text x="24" y="335" clip-path="url(#clipPath46)" stroke="none" stroke-width="2.1" xml:space="preserve">oeSendHelpRequest("Benny Hill","6611726354","49.618416, 6.172678","1 rue de Cents - Luxembourg")</text>
      <line clip-path="url(#clipPath47)" fill="none" x1="302" x2="295" y1="336" y2="339" stroke="rgb(136,136,136)" stroke-width="2.1" />
      <line clip-path="url(#clipPath47)" fill="none" x1="295" x2="302" y1="339" y2="342" stroke="rgb(136,136,136)" stroke-width="2.1" />
      <line clip-path="url(#clipPath39)" fill="none" x1="459" x2="295" y1="429" y2="429" stroke="rgb(136,136,136)" stroke-width="2.1" />
      <text x="295" y="425" clip-path="url(#clipPath48)" stroke="none" stroke-width="2.1" xml:space="preserve">oeAlertFamily("Hid : 12")</text>
      <line clip-path="url(#clipPath49)" fill="none" x1="302" x2="295" y1="426" y2="429" stroke="rgb(136,136,136)" stroke-width="2.1" />
      <line clip-path="url(#clipPath49)" fill="none" x1="295" x2="302" y1="429" y2="432" stroke="rgb(136,136,136)" stroke-width="2.1" />
    </g>
    <g stroke-linecap="butt" font-size="14" fill="rgb(136,136,136)" stroke-dasharray="5,5" stroke="rgb(136,136,136)" stroke-width="2.1">
      <line clip-path="url(#clipPath39)" fill="none" x1="799" x2="295" y1="114" y2="114" />
      <text x="489" y="110" clip-path="url(#clipPath50)" fill="black" stroke="none" xml:space="preserve">iereqCurrentPos()</text>
      <line clip-path="url(#clipPath51)" fill="none" x1="792" x2="799" y1="117" y2="114" stroke-dasharray="none" />
      <line clip-path="url(#clipPath51)" fill="none" x1="799" x2="792" y1="114" y2="111" stroke-dasharray="none" />
      <line clip-path="url(#clipPath39)" fill="none" x1="459" x2="295" y1="204" y2="204" />
      <text x="246" y="200" clip-path="url(#clipPath52)" fill="black" stroke="none" xml:space="preserve">ieSentdPosition(49.626506, 6.163065)</text>
      <line clip-path="url(#clipPath53)" fill="none" x1="452" x2="459" y1="207" y2="204" stroke-dasharray="none" />
      <line clip-path="url(#clipPath53)" fill="none" x1="459" x2="452" y1="204" y2="201" stroke-dasharray="none" />
      <line clip-path="url(#clipPath39)" fill="none" x1="459" x2="295" y1="294" y2="294" />
      <text x="138" y="290" clip-path="url(#clipPath54)" fill="black" stroke="none" xml:space="preserve">ieConfirmPos(1 rue des maraîchers-Luxembourg,49.626506, 6.163065)</text>
      <line clip-path="url(#clipPath55)" fill="none" x1="452" x2="459" y1="297" y2="294" stroke-dasharray="none" />
      <line clip-path="url(#clipPath55)" fill="none" x1="459" x2="452" y1="294" y2="291" stroke-dasharray="none" />
      <line clip-path="url(#clipPath39)" fill="none" x1="459" x2="295" y1="384" y2="384" />
      <text x="174" y="380" clip-path="url(#clipPath56)" fill="black" stroke="none" xml:space="preserve">ieSentConfirmationMessage(Your help request has been sent)</text>
      <line clip-path="url(#clipPath57)" fill="none" x1="452" x2="459" y1="387" y2="384" stroke-dasharray="none" />
      <line clip-path="url(#clipPath57)" fill="none" x1="459" x2="452" y1="384" y2="381" stroke-dasharray="none" />
      <line clip-path="url(#clipPath39)" fill="none" x1="959" x2="295" y1="474" y2="474" />
      <text x="420" y="470" clip-path="url(#clipPath58)" fill="black" stroke="none" xml:space="preserve">ieSmsForFamily(Benny has sent an help request,6611726354)</text>
      <line clip-path="url(#clipPath59)" fill="none" x1="952" x2="959" y1="477" y2="474" stroke-dasharray="none" />
      <line clip-path="url(#clipPath59)" fill="none" x1="959" x2="952" y1="474" y2="471" stroke-dasharray="none" />
    </g>
  </g>
</svg>

