<?xml version="1.0" encoding="UTF-8"?>
<svg xmlns="http://www.w3.org/2000/svg" xmlns:xlink="http://www.w3.org/1999/xlink" stroke-dasharray="none" shape-rendering="auto" font-family="'Dialog'" width="482" text-rendering="auto" fill-opacity="1" contentScriptType="text/ecmascript" color-interpolation="auto" color-rendering="auto" preserveAspectRatio="xMidYMid meet" font-size="12" viewBox="0 0 482 370" fill="black" stroke="black" image-rendering="auto" stroke-miterlimit="10" zoomAndPan="magnify" version="1.0" stroke-linecap="square" stroke-linejoin="miter" contentStyleType="text/css" font-style="normal" height="370" stroke-width="1" stroke-dashoffset="0" font-weight="normal" stroke-opacity="1">
  <!--Generated by the Batik Graphics2D SVG Generator-->
  <defs id="genericDefs" />
  <g>
    <defs id="defs1">
      <clipPath clipPathUnits="userSpaceOnUse" id="clipPath1">
        <path d="M41 9 L113 9 L113 41 L41 41 L41 9 Z" />
      </clipPath>
      <clipPath clipPathUnits="userSpaceOnUse" id="clipPath2">
        <path d="M41 9 L117 9 L117 41 L41 41 L41 9 Z" />
      </clipPath>
      <clipPath clipPathUnits="userSpaceOnUse" id="clipPath3">
        <path d="M71 39 L83 39 L83 361 L71 361 L71 39 Z" />
      </clipPath>
      <clipPath clipPathUnits="userSpaceOnUse" id="clipPath4">
        <path d="M141 9 L293 9 L293 61 L141 61 L141 9 Z" />
      </clipPath>
      <clipPath clipPathUnits="userSpaceOnUse" id="clipPath5">
        <path d="M141 9 L297 9 L297 61 L141 61 L141 9 Z" />
      </clipPath>
      <clipPath clipPathUnits="userSpaceOnUse" id="clipPath6">
        <path d="M141 9 L296 9 L296 61 L141 61 L141 9 Z" />
      </clipPath>
      <clipPath clipPathUnits="userSpaceOnUse" id="clipPath7">
        <path d="M211 59 L223 59 L223 361 L211 361 L211 59 Z" />
      </clipPath>
      <clipPath clipPathUnits="userSpaceOnUse" id="clipPath8">
        <path d="M206 89 L228 89 L228 131 L206 131 L206 89 Z" />
      </clipPath>
      <clipPath clipPathUnits="userSpaceOnUse" id="clipPath9">
        <path d="M227 89 L271 89 L271 108 L227 108 L227 89 Z" />
      </clipPath>
      <clipPath clipPathUnits="userSpaceOnUse" id="clipPath10">
        <path d="M206 269 L228 269 L228 311 L206 311 L206 269 Z" />
      </clipPath>
      <clipPath clipPathUnits="userSpaceOnUse" id="clipPath11">
        <path d="M227 269 L261 269 L261 288 L227 288 L227 269 Z" />
      </clipPath>
      <clipPath clipPathUnits="userSpaceOnUse" id="clipPath12">
        <path d="M321 9 L473 9 L473 61 L321 61 L321 9 Z" />
      </clipPath>
      <clipPath clipPathUnits="userSpaceOnUse" id="clipPath13">
        <path d="M321 9 L476 9 L476 61 L321 61 L321 9 Z" />
      </clipPath>
      <clipPath clipPathUnits="userSpaceOnUse" id="clipPath14">
        <path d="M391 59 L403 59 L403 361 L391 361 L391 59 Z" />
      </clipPath>
      <clipPath clipPathUnits="userSpaceOnUse" id="clipPath15">
        <path d="M386 209 L408 209 L408 251 L386 251 L386 209 Z" />
      </clipPath>
      <clipPath clipPathUnits="userSpaceOnUse" id="clipPath16">
        <path d="M407 209 L451 209 L451 228 L407 228 L407 209 Z" />
      </clipPath>
      <clipPath clipPathUnits="userSpaceOnUse" id="clipPath17">
        <path d="M386 149 L408 149 L408 191 L386 191 L386 149 Z" />
      </clipPath>
      <clipPath clipPathUnits="userSpaceOnUse" id="clipPath18">
        <path d="M407 149 L441 149 L441 168 L407 168 L407 149 Z" />
      </clipPath>
      <clipPath clipPathUnits="userSpaceOnUse" id="clipPath19">
        <path d="M-1 -1 L483 -1 L483 371 L-1 371 L-1 -1 Z" />
      </clipPath>
      <clipPath clipPathUnits="userSpaceOnUse" id="clipPath20">
        <path d="M56 71 L232 71 L232 90 L56 90 L56 71 Z" />
      </clipPath>
      <clipPath clipPathUnits="userSpaceOnUse" id="clipPath21">
        <path d="M75 85 L87 85 L87 96 L75 96 L75 85 Z" />
      </clipPath>
      <clipPath clipPathUnits="userSpaceOnUse" id="clipPath22">
        <path d="M114 191 L354 191 L354 210 L114 210 L114 191 Z" />
      </clipPath>
      <clipPath clipPathUnits="userSpaceOnUse" id="clipPath23">
        <path d="M75 205 L87 205 L87 216 L75 216 L75 205 Z" />
      </clipPath>
      <clipPath clipPathUnits="userSpaceOnUse" id="clipPath24">
        <path d="M155 131 L313 131 L313 150 L155 150 L155 131 Z" />
      </clipPath>
      <clipPath clipPathUnits="userSpaceOnUse" id="clipPath25">
        <path d="M378 145 L390 145 L390 156 L378 156 L378 145 Z" />
      </clipPath>
      <clipPath clipPathUnits="userSpaceOnUse" id="clipPath26">
        <path d="M23 251 L265 251 L265 270 L23 270 L23 251 Z" />
      </clipPath>
      <clipPath clipPathUnits="userSpaceOnUse" id="clipPath27">
        <path d="M198 265 L210 265 L210 276 L198 276 L198 265 Z" />
      </clipPath>
    </defs>
    <g font-size="9" fill="rgb(238,201,142)" stroke-linejoin="round" stroke="rgb(238,201,142)" stroke-width="0" stroke-miterlimit="0">
      <rect x="42" y="10" clip-path="url(#clipPath1)" width="70" height="30" stroke="none" />
    </g>
    <g font-size="9" stroke-width="0.1" stroke-linecap="butt">
      <rect x="42" y="10" clip-path="url(#clipPath1)" fill="none" width="69" height="29" />
      <text x="52" font-size="14" y="30" clip-path="url(#clipPath2)" stroke="none" xml:space="preserve">System</text>
      <line clip-path="url(#clipPath3)" fill="none" x1="76" x2="76" y1="40" y2="360" stroke-dasharray="10,10" stroke-width="1.1" />
    </g>
    <g stroke-linecap="butt" font-size="9" fill="rgb(255,245,181)" stroke-dasharray="10,10" stroke="rgb(255,245,181)" stroke-width="1.1">
      <rect x="142" y="10" clip-path="url(#clipPath4)" width="150" height="50" stroke="none" />
    </g>
    <g font-size="9" stroke-width="0.1" stroke-linecap="butt">
      <rect x="142" y="10" clip-path="url(#clipPath4)" fill="none" width="149" height="49" />
      <text x="204" font-size="14" y="32" clip-path="url(#clipPath5)" stroke="none" xml:space="preserve">tom</text>
      <text x="164" font-size="14" y="49" clip-path="url(#clipPath6)" stroke="none" xml:space="preserve">: actCoordinator</text>
      <line clip-path="url(#clipPath7)" fill="none" x1="216" x2="216" y1="60" y2="360" stroke-dasharray="10,10" stroke-width="1.1" />
    </g>
    <g stroke-linecap="butt" font-size="9" fill="rgb(39,76,114)" stroke-dasharray="10,10" stroke="rgb(39,76,114)" stroke-width="1.1">
      <rect x="207" y="90" clip-path="url(#clipPath8)" width="20" height="40" stroke="none" />
      <rect x="207" y="90" clip-path="url(#clipPath8)" fill="none" width="19" stroke-dasharray="none" height="39" stroke-width="0.1" />
    </g>
    <g font-size="14" stroke-width="0.1" stroke-linecap="butt">
      <text xml:space="preserve" x="228" y="104" clip-path="url(#clipPath9)" stroke="none">out01</text>
      <rect x="207" y="270" clip-path="url(#clipPath10)" fill="rgb(194,239,255)" width="20" height="40" stroke="none" />
      <rect x="207" y="270" clip-path="url(#clipPath10)" fill="none" width="19" height="39" stroke="rgb(194,239,255)" />
      <text xml:space="preserve" x="228" y="284" clip-path="url(#clipPath11)" stroke="none">in02</text>
      <rect x="322" y="10" clip-path="url(#clipPath12)" fill="rgb(255,245,181)" width="150" height="50" stroke="none" />
      <rect x="322" y="10" clip-path="url(#clipPath12)" fill="none" width="149" height="49" />
      <text xml:space="preserve" x="377" y="32" clip-path="url(#clipPath13)" stroke="none">tango</text>
      <text xml:space="preserve" x="330" y="49" clip-path="url(#clipPath13)" stroke="none">: actPhoneCompany</text>
      <line clip-path="url(#clipPath14)" fill="none" x1="396" x2="396" y1="60" y2="360" stroke-dasharray="10,10" stroke-width="1.1" />
    </g>
    <g stroke-linecap="butt" font-size="9" fill="rgb(39,76,114)" stroke-dasharray="10,10" stroke="rgb(39,76,114)" stroke-width="1.1">
      <rect x="387" y="210" clip-path="url(#clipPath15)" width="20" height="40" stroke="none" />
      <rect x="387" y="210" clip-path="url(#clipPath15)" fill="none" width="19" stroke-dasharray="none" height="39" stroke-width="0.1" />
    </g>
    <g font-size="14" stroke-width="0.1" stroke-linecap="butt">
      <text xml:space="preserve" x="408" y="224" clip-path="url(#clipPath16)" stroke="none">out02</text>
      <rect x="387" y="150" clip-path="url(#clipPath17)" fill="rgb(194,239,255)" width="20" height="40" stroke="none" />
      <rect x="387" y="150" clip-path="url(#clipPath17)" fill="none" width="19" height="39" stroke="rgb(194,239,255)" />
      <text xml:space="preserve" x="408" y="164" clip-path="url(#clipPath18)" stroke="none">in01</text>
      <line clip-path="url(#clipPath19)" fill="none" x1="207" x2="77" y1="90" y2="90" stroke="rgb(136,136,136)" stroke-width="2.1" />
      <text x="57" y="86" clip-path="url(#clipPath20)" stroke="none" stroke-width="2.1" xml:space="preserve">oeReqCall("661234567")</text>
      <line clip-path="url(#clipPath21)" fill="none" x1="84" x2="77" y1="87" y2="90" stroke="rgb(136,136,136)" stroke-width="2.1" />
      <line clip-path="url(#clipPath21)" fill="none" x1="77" x2="84" y1="90" y2="93" stroke="rgb(136,136,136)" stroke-width="2.1" />
      <line clip-path="url(#clipPath19)" fill="none" x1="387" x2="77" y1="210" y2="210" stroke="rgb(136,136,136)" stroke-width="2.1" />
      <text x="115" y="206" clip-path="url(#clipPath22)" stroke="none" stroke-width="2.1" xml:space="preserve">oeGetConfirm("661234567","true")</text>
      <line clip-path="url(#clipPath23)" fill="none" x1="84" x2="77" y1="207" y2="210" stroke="rgb(136,136,136)" stroke-width="2.1" />
      <line clip-path="url(#clipPath23)" fill="none" x1="77" x2="84" y1="210" y2="213" stroke="rgb(136,136,136)" stroke-width="2.1" />
    </g>
    <g stroke-linecap="butt" font-size="14" fill="rgb(136,136,136)" stroke-dasharray="5,5" stroke="rgb(136,136,136)" stroke-width="2.1">
      <line clip-path="url(#clipPath19)" fill="none" x1="387" x2="77" y1="150" y2="150" />
      <text x="156" y="146" clip-path="url(#clipPath24)" fill="black" stroke="none" xml:space="preserve">ieConfirm(661234567)</text>
      <line clip-path="url(#clipPath25)" fill="none" x1="380" x2="387" y1="153" y2="150" stroke-dasharray="none" />
      <line clip-path="url(#clipPath25)" fill="none" x1="387" x2="380" y1="150" y2="147" stroke-dasharray="none" />
      <line clip-path="url(#clipPath19)" fill="none" x1="207" x2="77" y1="270" y2="270" />
      <text x="24" y="266" clip-path="url(#clipPath26)" fill="black" stroke="none" xml:space="preserve">ieRequestConfirm(661234567,true)</text>
      <line clip-path="url(#clipPath27)" fill="none" x1="200" x2="207" y1="273" y2="270" stroke-dasharray="none" />
      <line clip-path="url(#clipPath27)" fill="none" x1="207" x2="200" y1="270" y2="267" stroke-dasharray="none" />
    </g>
  </g>
</svg>

